G04 #@! TF.GenerationSoftware,KiCad,Pcbnew,(5.1.10-1-10_14)*
G04 #@! TF.CreationDate,2021-11-27T23:13:30-07:00*
G04 #@! TF.ProjectId,ChristmasTreePCB,43687269-7374-46d6-9173-547265655043,rev?*
G04 #@! TF.SameCoordinates,Original*
G04 #@! TF.FileFunction,Copper,L1,Top*
G04 #@! TF.FilePolarity,Positive*
%FSLAX46Y46*%
G04 Gerber Fmt 4.6, Leading zero omitted, Abs format (unit mm)*
G04 Created by KiCad (PCBNEW (5.1.10-1-10_14)) date 2021-11-27 23:13:30*
%MOMM*%
%LPD*%
G01*
G04 APERTURE LIST*
G04 #@! TA.AperFunction,ComponentPad*
%ADD10R,1.700000X1.700000*%
G04 #@! TD*
G04 #@! TA.AperFunction,ComponentPad*
%ADD11O,1.700000X1.700000*%
G04 #@! TD*
G04 #@! TA.AperFunction,SMDPad,CuDef*
%ADD12R,1.300000X1.550000*%
G04 #@! TD*
G04 #@! TA.AperFunction,ComponentPad*
%ADD13R,2.000000X2.000000*%
G04 #@! TD*
G04 #@! TA.AperFunction,ComponentPad*
%ADD14C,2.000000*%
G04 #@! TD*
G04 #@! TA.AperFunction,ViaPad*
%ADD15C,0.800000*%
G04 #@! TD*
G04 #@! TA.AperFunction,Conductor*
%ADD16C,0.254000*%
G04 #@! TD*
G04 #@! TA.AperFunction,Conductor*
%ADD17C,0.100000*%
G04 #@! TD*
G04 APERTURE END LIST*
G04 #@! TA.AperFunction,SMDPad,CuDef*
G36*
G01*
X238362500Y-79104600D02*
X237887500Y-79104600D01*
G75*
G02*
X237650000Y-78867100I0J237500D01*
G01*
X237650000Y-78267100D01*
G75*
G02*
X237887500Y-78029600I237500J0D01*
G01*
X238362500Y-78029600D01*
G75*
G02*
X238600000Y-78267100I0J-237500D01*
G01*
X238600000Y-78867100D01*
G75*
G02*
X238362500Y-79104600I-237500J0D01*
G01*
G37*
G04 #@! TD.AperFunction*
G04 #@! TA.AperFunction,SMDPad,CuDef*
G36*
G01*
X238362500Y-77379600D02*
X237887500Y-77379600D01*
G75*
G02*
X237650000Y-77142100I0J237500D01*
G01*
X237650000Y-76542100D01*
G75*
G02*
X237887500Y-76304600I237500J0D01*
G01*
X238362500Y-76304600D01*
G75*
G02*
X238600000Y-76542100I0J-237500D01*
G01*
X238600000Y-77142100D01*
G75*
G02*
X238362500Y-77379600I-237500J0D01*
G01*
G37*
G04 #@! TD.AperFunction*
G04 #@! TA.AperFunction,SMDPad,CuDef*
G36*
G01*
X230981700Y-31940900D02*
X230981700Y-31465900D01*
G75*
G02*
X231219200Y-31228400I237500J0D01*
G01*
X231794200Y-31228400D01*
G75*
G02*
X232031700Y-31465900I0J-237500D01*
G01*
X232031700Y-31940900D01*
G75*
G02*
X231794200Y-32178400I-237500J0D01*
G01*
X231219200Y-32178400D01*
G75*
G02*
X230981700Y-31940900I0J237500D01*
G01*
G37*
G04 #@! TD.AperFunction*
G04 #@! TA.AperFunction,SMDPad,CuDef*
G36*
G01*
X232731700Y-31940900D02*
X232731700Y-31465900D01*
G75*
G02*
X232969200Y-31228400I237500J0D01*
G01*
X233544200Y-31228400D01*
G75*
G02*
X233781700Y-31465900I0J-237500D01*
G01*
X233781700Y-31940900D01*
G75*
G02*
X233544200Y-32178400I-237500J0D01*
G01*
X232969200Y-32178400D01*
G75*
G02*
X232731700Y-31940900I0J237500D01*
G01*
G37*
G04 #@! TD.AperFunction*
G04 #@! TA.AperFunction,SMDPad,CuDef*
G36*
G01*
X261369500Y-85368100D02*
X261369500Y-85843100D01*
G75*
G02*
X261132000Y-86080600I-237500J0D01*
G01*
X260557000Y-86080600D01*
G75*
G02*
X260319500Y-85843100I0J237500D01*
G01*
X260319500Y-85368100D01*
G75*
G02*
X260557000Y-85130600I237500J0D01*
G01*
X261132000Y-85130600D01*
G75*
G02*
X261369500Y-85368100I0J-237500D01*
G01*
G37*
G04 #@! TD.AperFunction*
G04 #@! TA.AperFunction,SMDPad,CuDef*
G36*
G01*
X263119500Y-85368100D02*
X263119500Y-85843100D01*
G75*
G02*
X262882000Y-86080600I-237500J0D01*
G01*
X262307000Y-86080600D01*
G75*
G02*
X262069500Y-85843100I0J237500D01*
G01*
X262069500Y-85368100D01*
G75*
G02*
X262307000Y-85130600I237500J0D01*
G01*
X262882000Y-85130600D01*
G75*
G02*
X263119500Y-85368100I0J-237500D01*
G01*
G37*
G04 #@! TD.AperFunction*
G04 #@! TA.AperFunction,SMDPad,CuDef*
G36*
G01*
X218854100Y-43781100D02*
X218854100Y-43306100D01*
G75*
G02*
X219091600Y-43068600I237500J0D01*
G01*
X219666600Y-43068600D01*
G75*
G02*
X219904100Y-43306100I0J-237500D01*
G01*
X219904100Y-43781100D01*
G75*
G02*
X219666600Y-44018600I-237500J0D01*
G01*
X219091600Y-44018600D01*
G75*
G02*
X218854100Y-43781100I0J237500D01*
G01*
G37*
G04 #@! TD.AperFunction*
G04 #@! TA.AperFunction,SMDPad,CuDef*
G36*
G01*
X220604100Y-43781100D02*
X220604100Y-43306100D01*
G75*
G02*
X220841600Y-43068600I237500J0D01*
G01*
X221416600Y-43068600D01*
G75*
G02*
X221654100Y-43306100I0J-237500D01*
G01*
X221654100Y-43781100D01*
G75*
G02*
X221416600Y-44018600I-237500J0D01*
G01*
X220841600Y-44018600D01*
G75*
G02*
X220604100Y-43781100I0J237500D01*
G01*
G37*
G04 #@! TD.AperFunction*
G04 #@! TA.AperFunction,SMDPad,CuDef*
G36*
G01*
X244114300Y-43306100D02*
X244114300Y-43781100D01*
G75*
G02*
X243876800Y-44018600I-237500J0D01*
G01*
X243301800Y-44018600D01*
G75*
G02*
X243064300Y-43781100I0J237500D01*
G01*
X243064300Y-43306100D01*
G75*
G02*
X243301800Y-43068600I237500J0D01*
G01*
X243876800Y-43068600D01*
G75*
G02*
X244114300Y-43306100I0J-237500D01*
G01*
G37*
G04 #@! TD.AperFunction*
G04 #@! TA.AperFunction,SMDPad,CuDef*
G36*
G01*
X245864300Y-43306100D02*
X245864300Y-43781100D01*
G75*
G02*
X245626800Y-44018600I-237500J0D01*
G01*
X245051800Y-44018600D01*
G75*
G02*
X244814300Y-43781100I0J237500D01*
G01*
X244814300Y-43306100D01*
G75*
G02*
X245051800Y-43068600I237500J0D01*
G01*
X245626800Y-43068600D01*
G75*
G02*
X245864300Y-43306100I0J-237500D01*
G01*
G37*
G04 #@! TD.AperFunction*
G04 #@! TA.AperFunction,SMDPad,CuDef*
G36*
G01*
X210226500Y-64809100D02*
X210226500Y-64334100D01*
G75*
G02*
X210464000Y-64096600I237500J0D01*
G01*
X211039000Y-64096600D01*
G75*
G02*
X211276500Y-64334100I0J-237500D01*
G01*
X211276500Y-64809100D01*
G75*
G02*
X211039000Y-65046600I-237500J0D01*
G01*
X210464000Y-65046600D01*
G75*
G02*
X210226500Y-64809100I0J237500D01*
G01*
G37*
G04 #@! TD.AperFunction*
G04 #@! TA.AperFunction,SMDPad,CuDef*
G36*
G01*
X211976500Y-64809100D02*
X211976500Y-64334100D01*
G75*
G02*
X212214000Y-64096600I237500J0D01*
G01*
X212789000Y-64096600D01*
G75*
G02*
X213026500Y-64334100I0J-237500D01*
G01*
X213026500Y-64809100D01*
G75*
G02*
X212789000Y-65046600I-237500J0D01*
G01*
X212214000Y-65046600D01*
G75*
G02*
X211976500Y-64809100I0J237500D01*
G01*
G37*
G04 #@! TD.AperFunction*
G04 #@! TA.AperFunction,SMDPad,CuDef*
G36*
G01*
X252741900Y-64334100D02*
X252741900Y-64809100D01*
G75*
G02*
X252504400Y-65046600I-237500J0D01*
G01*
X251929400Y-65046600D01*
G75*
G02*
X251691900Y-64809100I0J237500D01*
G01*
X251691900Y-64334100D01*
G75*
G02*
X251929400Y-64096600I237500J0D01*
G01*
X252504400Y-64096600D01*
G75*
G02*
X252741900Y-64334100I0J-237500D01*
G01*
G37*
G04 #@! TD.AperFunction*
G04 #@! TA.AperFunction,SMDPad,CuDef*
G36*
G01*
X254491900Y-64334100D02*
X254491900Y-64809100D01*
G75*
G02*
X254254400Y-65046600I-237500J0D01*
G01*
X253679400Y-65046600D01*
G75*
G02*
X253441900Y-64809100I0J237500D01*
G01*
X253441900Y-64334100D01*
G75*
G02*
X253679400Y-64096600I237500J0D01*
G01*
X254254400Y-64096600D01*
G75*
G02*
X254491900Y-64334100I0J-237500D01*
G01*
G37*
G04 #@! TD.AperFunction*
G04 #@! TA.AperFunction,SMDPad,CuDef*
G36*
G01*
X201598900Y-85843100D02*
X201598900Y-85368100D01*
G75*
G02*
X201836400Y-85130600I237500J0D01*
G01*
X202411400Y-85130600D01*
G75*
G02*
X202648900Y-85368100I0J-237500D01*
G01*
X202648900Y-85843100D01*
G75*
G02*
X202411400Y-86080600I-237500J0D01*
G01*
X201836400Y-86080600D01*
G75*
G02*
X201598900Y-85843100I0J237500D01*
G01*
G37*
G04 #@! TD.AperFunction*
G04 #@! TA.AperFunction,SMDPad,CuDef*
G36*
G01*
X203348900Y-85843100D02*
X203348900Y-85368100D01*
G75*
G02*
X203586400Y-85130600I237500J0D01*
G01*
X204161400Y-85130600D01*
G75*
G02*
X204398900Y-85368100I0J-237500D01*
G01*
X204398900Y-85843100D01*
G75*
G02*
X204161400Y-86080600I-237500J0D01*
G01*
X203586400Y-86080600D01*
G75*
G02*
X203348900Y-85843100I0J237500D01*
G01*
G37*
G04 #@! TD.AperFunction*
D10*
X231084200Y-110697000D03*
D11*
X233624200Y-110697000D03*
X231084200Y-113237000D03*
X233624200Y-113237000D03*
X231084200Y-115777000D03*
X233624200Y-115777000D03*
G04 #@! TA.AperFunction,SMDPad,CuDef*
G36*
G01*
X213761334Y-96884934D02*
X213761334Y-97359934D01*
G75*
G02*
X213523834Y-97597434I-237500J0D01*
G01*
X213023834Y-97597434D01*
G75*
G02*
X212786334Y-97359934I0J237500D01*
G01*
X212786334Y-96884934D01*
G75*
G02*
X213023834Y-96647434I237500J0D01*
G01*
X213523834Y-96647434D01*
G75*
G02*
X213761334Y-96884934I0J-237500D01*
G01*
G37*
G04 #@! TD.AperFunction*
G04 #@! TA.AperFunction,SMDPad,CuDef*
G36*
G01*
X211936334Y-96884934D02*
X211936334Y-97359934D01*
G75*
G02*
X211698834Y-97597434I-237500J0D01*
G01*
X211198834Y-97597434D01*
G75*
G02*
X210961334Y-97359934I0J237500D01*
G01*
X210961334Y-96884934D01*
G75*
G02*
X211198834Y-96647434I237500J0D01*
G01*
X211698834Y-96647434D01*
G75*
G02*
X211936334Y-96884934I0J-237500D01*
G01*
G37*
G04 #@! TD.AperFunction*
G04 #@! TA.AperFunction,SMDPad,CuDef*
G36*
G01*
X205251400Y-94667100D02*
X205251400Y-94192100D01*
G75*
G02*
X205488900Y-93954600I237500J0D01*
G01*
X205988900Y-93954600D01*
G75*
G02*
X206226400Y-94192100I0J-237500D01*
G01*
X206226400Y-94667100D01*
G75*
G02*
X205988900Y-94904600I-237500J0D01*
G01*
X205488900Y-94904600D01*
G75*
G02*
X205251400Y-94667100I0J237500D01*
G01*
G37*
G04 #@! TD.AperFunction*
G04 #@! TA.AperFunction,SMDPad,CuDef*
G36*
G01*
X203426400Y-94667100D02*
X203426400Y-94192100D01*
G75*
G02*
X203663900Y-93954600I237500J0D01*
G01*
X204163900Y-93954600D01*
G75*
G02*
X204401400Y-94192100I0J-237500D01*
G01*
X204401400Y-94667100D01*
G75*
G02*
X204163900Y-94904600I-237500J0D01*
G01*
X203663900Y-94904600D01*
G75*
G02*
X203426400Y-94667100I0J237500D01*
G01*
G37*
G04 #@! TD.AperFunction*
G04 #@! TA.AperFunction,SMDPad,CuDef*
G36*
G01*
X261292000Y-93912099D02*
X261292000Y-94387099D01*
G75*
G02*
X261054500Y-94624599I-237500J0D01*
G01*
X260554500Y-94624599D01*
G75*
G02*
X260317000Y-94387099I0J237500D01*
G01*
X260317000Y-93912099D01*
G75*
G02*
X260554500Y-93674599I237500J0D01*
G01*
X261054500Y-93674599D01*
G75*
G02*
X261292000Y-93912099I0J-237500D01*
G01*
G37*
G04 #@! TD.AperFunction*
G04 #@! TA.AperFunction,SMDPad,CuDef*
G36*
G01*
X259467000Y-93912099D02*
X259467000Y-94387099D01*
G75*
G02*
X259229500Y-94624599I-237500J0D01*
G01*
X258729500Y-94624599D01*
G75*
G02*
X258492000Y-94387099I0J237500D01*
G01*
X258492000Y-93912099D01*
G75*
G02*
X258729500Y-93674599I237500J0D01*
G01*
X259229500Y-93674599D01*
G75*
G02*
X259467000Y-93912099I0J-237500D01*
G01*
G37*
G04 #@! TD.AperFunction*
G04 #@! TA.AperFunction,SMDPad,CuDef*
G36*
G01*
X252989066Y-97219933D02*
X252989066Y-96744933D01*
G75*
G02*
X253226566Y-96507433I237500J0D01*
G01*
X253726566Y-96507433D01*
G75*
G02*
X253964066Y-96744933I0J-237500D01*
G01*
X253964066Y-97219933D01*
G75*
G02*
X253726566Y-97457433I-237500J0D01*
G01*
X253226566Y-97457433D01*
G75*
G02*
X252989066Y-97219933I0J237500D01*
G01*
G37*
G04 #@! TD.AperFunction*
G04 #@! TA.AperFunction,SMDPad,CuDef*
G36*
G01*
X251164066Y-97219933D02*
X251164066Y-96744933D01*
G75*
G02*
X251401566Y-96507433I237500J0D01*
G01*
X251901566Y-96507433D01*
G75*
G02*
X252139066Y-96744933I0J-237500D01*
G01*
X252139066Y-97219933D01*
G75*
G02*
X251901566Y-97457433I-237500J0D01*
G01*
X251401566Y-97457433D01*
G75*
G02*
X251164066Y-97219933I0J237500D01*
G01*
G37*
G04 #@! TD.AperFunction*
G04 #@! TA.AperFunction,SMDPad,CuDef*
G36*
G01*
X221296268Y-99577768D02*
X221296268Y-100052768D01*
G75*
G02*
X221058768Y-100290268I-237500J0D01*
G01*
X220558768Y-100290268D01*
G75*
G02*
X220321268Y-100052768I0J237500D01*
G01*
X220321268Y-99577768D01*
G75*
G02*
X220558768Y-99340268I237500J0D01*
G01*
X221058768Y-99340268D01*
G75*
G02*
X221296268Y-99577768I0J-237500D01*
G01*
G37*
G04 #@! TD.AperFunction*
G04 #@! TA.AperFunction,SMDPad,CuDef*
G36*
G01*
X219471268Y-99577768D02*
X219471268Y-100052768D01*
G75*
G02*
X219233768Y-100290268I-237500J0D01*
G01*
X218733768Y-100290268D01*
G75*
G02*
X218496268Y-100052768I0J237500D01*
G01*
X218496268Y-99577768D01*
G75*
G02*
X218733768Y-99340268I237500J0D01*
G01*
X219233768Y-99340268D01*
G75*
G02*
X219471268Y-99577768I0J-237500D01*
G01*
G37*
G04 #@! TD.AperFunction*
G04 #@! TA.AperFunction,SMDPad,CuDef*
G36*
G01*
X245661133Y-100052768D02*
X245661133Y-99577768D01*
G75*
G02*
X245898633Y-99340268I237500J0D01*
G01*
X246398633Y-99340268D01*
G75*
G02*
X246636133Y-99577768I0J-237500D01*
G01*
X246636133Y-100052768D01*
G75*
G02*
X246398633Y-100290268I-237500J0D01*
G01*
X245898633Y-100290268D01*
G75*
G02*
X245661133Y-100052768I0J237500D01*
G01*
G37*
G04 #@! TD.AperFunction*
G04 #@! TA.AperFunction,SMDPad,CuDef*
G36*
G01*
X243836133Y-100052768D02*
X243836133Y-99577768D01*
G75*
G02*
X244073633Y-99340268I237500J0D01*
G01*
X244573633Y-99340268D01*
G75*
G02*
X244811133Y-99577768I0J-237500D01*
G01*
X244811133Y-100052768D01*
G75*
G02*
X244573633Y-100290268I-237500J0D01*
G01*
X244073633Y-100290268D01*
G75*
G02*
X243836133Y-100052768I0J237500D01*
G01*
G37*
G04 #@! TD.AperFunction*
G04 #@! TA.AperFunction,SMDPad,CuDef*
G36*
G01*
X227959200Y-77189600D02*
X227959200Y-76889600D01*
G75*
G02*
X228109200Y-76739600I150000J0D01*
G01*
X229409200Y-76739600D01*
G75*
G02*
X229559200Y-76889600I0J-150000D01*
G01*
X229559200Y-77189600D01*
G75*
G02*
X229409200Y-77339600I-150000J0D01*
G01*
X228109200Y-77339600D01*
G75*
G02*
X227959200Y-77189600I0J150000D01*
G01*
G37*
G04 #@! TD.AperFunction*
G04 #@! TA.AperFunction,SMDPad,CuDef*
G36*
G01*
X227959200Y-78459600D02*
X227959200Y-78159600D01*
G75*
G02*
X228109200Y-78009600I150000J0D01*
G01*
X229409200Y-78009600D01*
G75*
G02*
X229559200Y-78159600I0J-150000D01*
G01*
X229559200Y-78459600D01*
G75*
G02*
X229409200Y-78609600I-150000J0D01*
G01*
X228109200Y-78609600D01*
G75*
G02*
X227959200Y-78459600I0J150000D01*
G01*
G37*
G04 #@! TD.AperFunction*
G04 #@! TA.AperFunction,SMDPad,CuDef*
G36*
G01*
X227959200Y-79729600D02*
X227959200Y-79429600D01*
G75*
G02*
X228109200Y-79279600I150000J0D01*
G01*
X229409200Y-79279600D01*
G75*
G02*
X229559200Y-79429600I0J-150000D01*
G01*
X229559200Y-79729600D01*
G75*
G02*
X229409200Y-79879600I-150000J0D01*
G01*
X228109200Y-79879600D01*
G75*
G02*
X227959200Y-79729600I0J150000D01*
G01*
G37*
G04 #@! TD.AperFunction*
G04 #@! TA.AperFunction,SMDPad,CuDef*
G36*
G01*
X227959200Y-80999600D02*
X227959200Y-80699600D01*
G75*
G02*
X228109200Y-80549600I150000J0D01*
G01*
X229409200Y-80549600D01*
G75*
G02*
X229559200Y-80699600I0J-150000D01*
G01*
X229559200Y-80999600D01*
G75*
G02*
X229409200Y-81149600I-150000J0D01*
G01*
X228109200Y-81149600D01*
G75*
G02*
X227959200Y-80999600I0J150000D01*
G01*
G37*
G04 #@! TD.AperFunction*
G04 #@! TA.AperFunction,SMDPad,CuDef*
G36*
G01*
X235159200Y-80999600D02*
X235159200Y-80699600D01*
G75*
G02*
X235309200Y-80549600I150000J0D01*
G01*
X236609200Y-80549600D01*
G75*
G02*
X236759200Y-80699600I0J-150000D01*
G01*
X236759200Y-80999600D01*
G75*
G02*
X236609200Y-81149600I-150000J0D01*
G01*
X235309200Y-81149600D01*
G75*
G02*
X235159200Y-80999600I0J150000D01*
G01*
G37*
G04 #@! TD.AperFunction*
G04 #@! TA.AperFunction,SMDPad,CuDef*
G36*
G01*
X235159200Y-79729600D02*
X235159200Y-79429600D01*
G75*
G02*
X235309200Y-79279600I150000J0D01*
G01*
X236609200Y-79279600D01*
G75*
G02*
X236759200Y-79429600I0J-150000D01*
G01*
X236759200Y-79729600D01*
G75*
G02*
X236609200Y-79879600I-150000J0D01*
G01*
X235309200Y-79879600D01*
G75*
G02*
X235159200Y-79729600I0J150000D01*
G01*
G37*
G04 #@! TD.AperFunction*
G04 #@! TA.AperFunction,SMDPad,CuDef*
G36*
G01*
X235159200Y-78459600D02*
X235159200Y-78159600D01*
G75*
G02*
X235309200Y-78009600I150000J0D01*
G01*
X236609200Y-78009600D01*
G75*
G02*
X236759200Y-78159600I0J-150000D01*
G01*
X236759200Y-78459600D01*
G75*
G02*
X236609200Y-78609600I-150000J0D01*
G01*
X235309200Y-78609600D01*
G75*
G02*
X235159200Y-78459600I0J150000D01*
G01*
G37*
G04 #@! TD.AperFunction*
G04 #@! TA.AperFunction,SMDPad,CuDef*
G36*
G01*
X235159200Y-77189600D02*
X235159200Y-76889600D01*
G75*
G02*
X235309200Y-76739600I150000J0D01*
G01*
X236609200Y-76739600D01*
G75*
G02*
X236759200Y-76889600I0J-150000D01*
G01*
X236759200Y-77189600D01*
G75*
G02*
X236609200Y-77339600I-150000J0D01*
G01*
X235309200Y-77339600D01*
G75*
G02*
X235159200Y-77189600I0J150000D01*
G01*
G37*
G04 #@! TD.AperFunction*
D12*
X234609200Y-106733101D03*
X230109200Y-106733101D03*
X230109200Y-98773101D03*
X234609200Y-98773101D03*
D13*
X238583201Y-102753101D03*
D14*
X225883201Y-102753101D03*
D15*
X225548467Y-106302533D03*
X230124000Y-105156000D03*
X232283000Y-102743000D03*
X233680000Y-76708000D03*
X239522000Y-79375000D03*
X264414000Y-86360000D03*
X272669000Y-107315000D03*
X255905000Y-65405000D03*
X247713500Y-44577000D03*
X217233500Y-44450000D03*
X208788000Y-65405000D03*
X200279000Y-86360000D03*
X191643000Y-107442000D03*
X252603000Y-95123000D03*
X233807000Y-80264000D03*
X235712000Y-101092000D03*
X254889000Y-95250000D03*
X230759000Y-78359000D03*
X221107000Y-97917000D03*
X232359200Y-43230800D03*
X231267000Y-46101000D03*
X231055899Y-65362101D03*
X223608989Y-86906011D03*
X213685400Y-64571600D03*
X232791000Y-63817500D03*
X232971990Y-73606010D03*
X224335990Y-76400010D03*
X251023400Y-64571600D03*
X231782900Y-64571600D03*
X231394000Y-80518000D03*
X233299000Y-78359000D03*
X250837056Y-105524944D03*
X250825000Y-107442000D03*
X219075000Y-95250000D03*
X220599000Y-96774000D03*
X228077900Y-86501100D03*
X226998400Y-78817600D03*
D16*
X232088100Y-109160900D02*
X230953900Y-109160900D01*
X232088100Y-109160900D02*
X233624200Y-110697000D01*
X230109200Y-108316200D02*
X230109200Y-106733101D01*
X230953900Y-109160900D02*
X230109200Y-108316200D01*
X237927500Y-77039600D02*
X238125000Y-76842100D01*
X235959200Y-77039600D02*
X237927500Y-77039600D01*
X236311499Y-102753101D02*
X235586201Y-103478399D01*
X238583201Y-102753101D02*
X236311499Y-102753101D01*
X235586201Y-107769702D02*
X233624200Y-109731703D01*
X235586201Y-103478399D02*
X235586201Y-107769702D01*
X233624200Y-109731703D02*
X233624200Y-109862700D01*
X233624200Y-110697000D02*
X233624200Y-109862700D01*
X230109200Y-106733101D02*
X230109200Y-98773101D01*
X214209368Y-97122434D02*
X218690467Y-101603533D01*
X213273834Y-97122434D02*
X214209368Y-97122434D01*
X230109200Y-97274266D02*
X226641010Y-93806076D01*
X226641010Y-86346952D02*
X232283000Y-80704962D01*
X232854500Y-75184000D02*
X237553500Y-75184000D01*
X226641010Y-93806076D02*
X226641010Y-86346952D01*
X230109200Y-98773101D02*
X230109200Y-97274266D01*
X232283000Y-75755500D02*
X232854500Y-75184000D01*
X237553500Y-75184000D02*
X238125000Y-75755500D01*
X232283000Y-80704962D02*
X232283000Y-75755500D01*
X238125000Y-75755500D02*
X238125000Y-76842100D01*
X218690467Y-101603533D02*
X219321934Y-102235000D01*
X223389467Y-106302533D02*
X225548467Y-106302533D01*
X218690467Y-101603533D02*
X223389467Y-106302533D01*
X225548467Y-106302533D02*
X225802467Y-106302533D01*
X233256700Y-31703400D02*
X233256700Y-32427300D01*
X233256700Y-31703400D02*
X233256700Y-32478100D01*
X233256700Y-32478100D02*
X232359200Y-33375600D01*
X232359200Y-33375600D02*
X232359200Y-43230800D01*
X231267000Y-47053500D02*
X231267000Y-46101000D01*
X231638490Y-47424990D02*
X231267000Y-47053500D01*
X231055899Y-63311081D02*
X231638490Y-62728490D01*
X231638490Y-62728490D02*
X231638490Y-47424990D01*
X231055899Y-65362101D02*
X231055899Y-63311081D01*
X224335990Y-87633012D02*
X223608989Y-86906011D01*
X224335990Y-93599000D02*
X224335990Y-87633012D01*
X211132400Y-94429600D02*
X211259400Y-94429600D01*
X223505390Y-94429600D02*
X224335990Y-93599000D01*
X211132400Y-94429600D02*
X223505390Y-94429600D01*
X205738900Y-94429600D02*
X211132400Y-94429600D01*
X219379100Y-44373100D02*
X219379100Y-43543600D01*
X219792980Y-44786980D02*
X219379100Y-44373100D01*
X244938980Y-44786980D02*
X239985980Y-44786980D01*
X245339300Y-44386660D02*
X244938980Y-44786980D01*
X245339300Y-43543600D02*
X245339300Y-44386660D01*
X231743567Y-44786980D02*
X219792980Y-44786980D01*
X234105020Y-44786980D02*
X239985980Y-44786980D01*
X239985980Y-44786980D02*
X239477980Y-44786980D01*
X233330434Y-44786980D02*
X234105020Y-44786980D01*
X232546511Y-45570903D02*
X233330434Y-44786980D01*
X232546510Y-45583490D02*
X232546511Y-45570903D01*
X233851020Y-44786980D02*
X234105020Y-44786980D01*
X232540077Y-45583490D02*
X231743567Y-44786980D01*
X232546510Y-45583490D02*
X232540077Y-45583490D01*
X212501500Y-64571600D02*
X213685400Y-64571600D01*
X213685400Y-64571600D02*
X213939400Y-64571600D01*
X232546511Y-45570903D02*
X232546510Y-52631990D01*
X232546510Y-62945077D02*
X232791000Y-63189567D01*
X232546510Y-52631990D02*
X232546510Y-62945077D01*
X232791000Y-63189567D02*
X232791000Y-63817500D01*
X232791000Y-63817500D02*
X232791000Y-64262000D01*
X232236910Y-66357500D02*
X232236910Y-74175900D01*
X232236910Y-74175900D02*
X232791000Y-74729990D01*
X232791000Y-65803410D02*
X232236910Y-66357500D01*
X232791000Y-63817500D02*
X232791000Y-65803410D01*
X237607490Y-74729990D02*
X237741557Y-74729991D01*
X232791000Y-74729990D02*
X237607490Y-74729990D01*
X240382783Y-80884850D02*
X240382783Y-77371217D01*
X237741557Y-74729991D02*
X240382783Y-77371217D01*
X253476566Y-93978632D02*
X252976967Y-93479033D01*
X253476566Y-96982433D02*
X253476566Y-93978632D01*
X253239367Y-93741434D02*
X252976967Y-93479033D01*
X245801467Y-86303533D02*
X240382783Y-80884850D01*
X246527120Y-87002033D02*
X246499967Y-87002033D01*
X260844500Y-85605600D02*
X247923553Y-85605600D01*
X246690467Y-86838687D02*
X246711077Y-86818077D01*
X246690467Y-87192533D02*
X246690467Y-86838687D01*
X246711077Y-86818077D02*
X246527120Y-87002033D01*
X247923553Y-85605600D02*
X246711077Y-86818077D01*
X252976967Y-93479033D02*
X246690467Y-87192533D01*
X246690467Y-87192533D02*
X246499967Y-87002033D01*
X246316011Y-86818077D02*
X246309467Y-86811533D01*
X246711077Y-86818077D02*
X246316011Y-86818077D01*
X246309467Y-86811533D02*
X245801467Y-86303533D01*
X246499967Y-87002033D02*
X246309467Y-86811533D01*
X243589300Y-42668700D02*
X243589300Y-43543600D01*
X243840000Y-42418000D02*
X243589300Y-42668700D01*
X246191310Y-42864310D02*
X245745000Y-42418000D01*
X246191310Y-44765690D02*
X246191310Y-42864310D01*
X245745000Y-42418000D02*
X243840000Y-42418000D01*
X245716010Y-45240990D02*
X246191310Y-44765690D01*
X234178030Y-45240990D02*
X234540010Y-45240990D01*
X234540010Y-45240990D02*
X245716010Y-45240990D01*
X233000520Y-45758960D02*
X233000520Y-62757020D01*
X233518490Y-45240990D02*
X233000520Y-45758960D01*
X234540010Y-45240990D02*
X233518490Y-45240990D01*
X233000520Y-62757020D02*
X233362500Y-63119000D01*
X253966900Y-64571600D02*
X253966900Y-65498900D01*
X253966900Y-65498900D02*
X253679800Y-65786000D01*
X253679800Y-65786000D02*
X233610002Y-65786000D01*
X232971990Y-67109990D02*
X232971990Y-73606010D01*
X233518001Y-66563979D02*
X232971990Y-67109990D01*
X233518001Y-63274501D02*
X233518001Y-66563979D01*
X233000520Y-62757020D02*
X233518001Y-63274501D01*
X203873900Y-85605600D02*
X222242400Y-85605600D01*
X222242400Y-85605600D02*
X223385400Y-85605600D01*
X223893400Y-85605600D02*
X224335990Y-85163010D01*
X224335990Y-85163010D02*
X224335990Y-76400010D01*
X222242400Y-85605600D02*
X223893400Y-85605600D01*
X237419437Y-74275980D02*
X233641960Y-74275980D01*
X237929614Y-74275982D02*
X237419437Y-74275980D01*
X233641960Y-74275980D02*
X232971990Y-73606010D01*
X240836793Y-77183161D02*
X237929614Y-74275982D01*
X262128000Y-84328000D02*
X260350000Y-84328000D01*
X259526410Y-85151590D02*
X245291589Y-85151590D01*
X240836793Y-80696794D02*
X240836793Y-77183161D01*
X262594500Y-84794500D02*
X262128000Y-84328000D01*
X245291589Y-85151590D02*
X240836793Y-80696794D01*
X260350000Y-84328000D02*
X259526410Y-85151590D01*
X262594500Y-85605600D02*
X262594500Y-84794500D01*
X262255000Y-86741000D02*
X262594500Y-86401500D01*
X259668610Y-86059610D02*
X260350000Y-86741000D01*
X247523000Y-86648220D02*
X248111610Y-86059610D01*
X247523000Y-87383000D02*
X247523000Y-86648220D01*
X262594500Y-86401500D02*
X262594500Y-85605600D01*
X248111610Y-86059610D02*
X259668610Y-86059610D01*
X254289599Y-94149599D02*
X247523000Y-87383000D01*
X260350000Y-86741000D02*
X262255000Y-86741000D01*
X258979500Y-94149599D02*
X254289599Y-94149599D01*
X252216900Y-64571600D02*
X251023400Y-64571600D01*
X224790000Y-86995000D02*
X224790000Y-87103780D01*
X251023400Y-64571600D02*
X250896400Y-64571600D01*
X220853000Y-42418000D02*
X221129100Y-42694100D01*
X219181360Y-42418000D02*
X220853000Y-42418000D01*
X218527090Y-43072270D02*
X219181360Y-42418000D01*
X218527090Y-44537090D02*
X218527090Y-43072270D01*
X219230990Y-45240990D02*
X218527090Y-44537090D01*
X221129100Y-42694100D02*
X221129100Y-43543600D01*
X231555510Y-45240990D02*
X219230990Y-45240990D01*
X232092500Y-45777980D02*
X231555510Y-45240990D01*
X231782900Y-63226146D02*
X232092500Y-62916546D01*
X232092500Y-62916546D02*
X232092500Y-45777980D01*
X231782900Y-64571600D02*
X231782900Y-63226146D01*
X231782900Y-64571600D02*
X231782900Y-66301900D01*
X231753190Y-66272190D02*
X231782900Y-66301900D01*
X230399810Y-66272190D02*
X231753190Y-66272190D01*
X210751500Y-64571600D02*
X210751500Y-65463500D01*
X210751500Y-65463500D02*
X211074000Y-65786000D01*
X229913620Y-65786000D02*
X230399810Y-66272190D01*
X211074000Y-65786000D02*
X229913620Y-65786000D01*
X202123900Y-85605600D02*
X202123900Y-86299900D01*
X219021010Y-99778026D02*
X218983768Y-99815268D01*
X231782900Y-74668100D02*
X231782900Y-66301900D01*
X224790000Y-85852000D02*
X224790000Y-78351933D01*
X224790000Y-78351933D02*
X227386433Y-75755500D01*
X230695500Y-75755500D02*
X231782900Y-74668100D01*
X202123900Y-86299900D02*
X202438000Y-86614000D01*
X224709390Y-86059610D02*
X224790000Y-85979000D01*
X204597000Y-86614000D02*
X205151390Y-86059610D01*
X202438000Y-86614000D02*
X204597000Y-86614000D01*
X224582390Y-86059610D02*
X224790000Y-85852000D01*
X224455390Y-86059610D02*
X224582390Y-86059610D01*
X224790000Y-85979000D02*
X224790000Y-85852000D01*
X205151390Y-86059610D02*
X224455390Y-86059610D01*
X224616610Y-86059610D02*
X224709390Y-86059610D01*
X224455390Y-86059610D02*
X224616610Y-86059610D01*
X224790000Y-86233000D02*
X224790000Y-85979000D01*
X224790000Y-86233000D02*
X224616610Y-86059610D01*
X224790000Y-86995000D02*
X224790000Y-86233000D01*
X227386433Y-75755500D02*
X230695500Y-75755500D01*
X220711390Y-94883610D02*
X219202000Y-96393000D01*
X223693447Y-94883610D02*
X220711390Y-94883610D01*
X224790000Y-93787057D02*
X223693447Y-94883610D01*
X224790000Y-86995000D02*
X224790000Y-93787057D01*
X218983768Y-96611231D02*
X218983768Y-99815268D01*
X219202000Y-96393000D02*
X218983768Y-96611231D01*
X235261581Y-108736388D02*
X236040211Y-107957759D01*
X231084200Y-111704200D02*
X231084200Y-110697000D01*
X231439999Y-112059999D02*
X231084200Y-111704200D01*
X234003163Y-112059999D02*
X231439999Y-112059999D01*
X235261581Y-110801581D02*
X234003163Y-112059999D01*
X235261581Y-108736388D02*
X235261581Y-110801581D01*
X238435467Y-79579600D02*
X235959200Y-79579600D01*
X251651566Y-92795699D02*
X238435467Y-79579600D01*
X251651566Y-96982433D02*
X251651566Y-92795699D01*
X251651566Y-106107434D02*
X251651566Y-96982433D01*
X251206000Y-106553000D02*
X251651566Y-106107434D01*
X237444969Y-106553000D02*
X251206000Y-106553000D01*
X235261581Y-108736388D02*
X237444969Y-106553000D01*
X235909800Y-78359000D02*
X235959200Y-78309600D01*
X233299000Y-78359000D02*
X235909800Y-78359000D01*
X226187000Y-94316255D02*
X226187000Y-85725000D01*
X226187000Y-85725000D02*
X231394000Y-80518000D01*
X220808768Y-99815268D02*
X221367732Y-99815268D01*
X221846628Y-99336372D02*
X221846628Y-98656628D01*
X221367732Y-99815268D02*
X221846628Y-99336372D01*
X221846628Y-98656628D02*
X226187000Y-94316255D01*
X220808768Y-103079768D02*
X220808768Y-99815268D01*
X223304532Y-105575532D02*
X220808768Y-103079768D01*
X226795377Y-105575532D02*
X223304532Y-105575532D01*
X229132199Y-107912354D02*
X226795377Y-105575532D01*
X229132199Y-111284999D02*
X229132199Y-107912354D01*
X231084200Y-113237000D02*
X229132199Y-111284999D01*
X233624200Y-113237000D02*
X235715591Y-111145609D01*
X235959200Y-80849600D02*
X239063400Y-80849600D01*
X246619900Y-88406100D02*
X246963143Y-88749343D01*
X239063400Y-80849600D02*
X246619900Y-88406100D01*
X250837056Y-96511103D02*
X250837056Y-97453763D01*
X235715591Y-109089409D02*
X235715591Y-108962409D01*
X235715591Y-109089409D02*
X235715591Y-108924444D01*
X235715591Y-111145609D02*
X235715591Y-109216409D01*
X235715591Y-109216409D02*
X235715591Y-108924444D01*
X235715591Y-109216409D02*
X235715591Y-109089409D01*
X235715591Y-108924444D02*
X237633025Y-107007010D01*
X249100990Y-107007010D02*
X249628010Y-107007010D01*
X237633025Y-107007010D02*
X249100990Y-107007010D01*
X249100990Y-107007010D02*
X249428000Y-107007010D01*
X249628010Y-107007010D02*
X250063000Y-107442000D01*
X250063000Y-107442000D02*
X250825000Y-107442000D01*
X250825000Y-107442000D02*
X251333000Y-107442000D01*
X251333000Y-107442000D02*
X252105576Y-106669424D01*
X252105576Y-106669424D02*
X252105576Y-100446424D01*
X252105576Y-100446424D02*
X252105576Y-100319424D01*
X256667000Y-95250000D02*
X252105576Y-99811424D01*
X260350000Y-95250000D02*
X256667000Y-95250000D01*
X260804500Y-94795500D02*
X260350000Y-95250000D01*
X252105576Y-99811424D02*
X252105576Y-100446424D01*
X260804500Y-94149599D02*
X260804500Y-94795500D01*
X250837056Y-97810500D02*
X251197556Y-98171000D01*
X250837056Y-96380944D02*
X250837056Y-97810500D01*
X251079000Y-96139000D02*
X250837056Y-96380944D01*
X251079000Y-92865198D02*
X251079000Y-96139000D01*
X246619901Y-88406100D02*
X251079000Y-92865198D01*
X246619900Y-88406100D02*
X246619901Y-88406100D01*
X250837056Y-105524944D02*
X250837056Y-105000056D01*
X250837056Y-105000056D02*
X251197556Y-104639556D01*
X251197556Y-98171000D02*
X251197556Y-104639556D01*
X211448834Y-97122434D02*
X211448834Y-97796166D01*
X211448834Y-97796166D02*
X211461166Y-97796166D01*
X228678189Y-113370989D02*
X231084200Y-115777000D01*
X228678189Y-108100411D02*
X228678189Y-113370989D01*
X227613378Y-107035600D02*
X228678189Y-108100411D01*
X223480468Y-107035600D02*
X227613378Y-107035600D01*
X214597192Y-98152324D02*
X223480468Y-107035600D01*
X211804992Y-98152324D02*
X214597192Y-98152324D01*
X211448834Y-97796166D02*
X211804992Y-98152324D01*
X226744400Y-77039600D02*
X228759200Y-77039600D01*
X225244010Y-78539990D02*
X226744400Y-77039600D01*
X225244010Y-93975114D02*
X225244010Y-78539990D01*
X219798278Y-100286598D02*
X219798278Y-96438788D01*
X223881504Y-95337620D02*
X225244010Y-93975114D01*
X211448834Y-97122434D02*
X211448834Y-96386834D01*
X218567000Y-100838000D02*
X219246876Y-100838000D01*
X220899446Y-95337620D02*
X223881504Y-95337620D01*
X219798278Y-96438788D02*
X220899446Y-95337620D01*
X219246876Y-100838000D02*
X219798278Y-100286598D01*
X213861834Y-96132834D02*
X218567000Y-100838000D01*
X211702834Y-96132834D02*
X213861834Y-96132834D01*
X211448834Y-96386834D02*
X211702834Y-96132834D01*
X203913900Y-94429600D02*
X203913900Y-95074900D01*
X206502000Y-95377000D02*
X206995390Y-94883610D01*
X204216000Y-95377000D02*
X206502000Y-95377000D01*
X203913900Y-95074900D02*
X204216000Y-95377000D01*
X225698020Y-80498980D02*
X225698020Y-94163168D01*
X226617400Y-79579600D02*
X225698020Y-80498980D01*
X228759200Y-79579600D02*
X226617400Y-79579600D01*
X206995390Y-94883610D02*
X218708610Y-94883610D01*
X218708610Y-94883610D02*
X219075000Y-95250000D01*
X219075000Y-95250000D02*
X219202000Y-95377000D01*
X223087188Y-96774000D02*
X225698020Y-94163168D01*
X220599000Y-96774000D02*
X223087188Y-96774000D01*
X234609200Y-106733101D02*
X234609200Y-98773101D01*
X244323633Y-99815268D02*
X237254668Y-99815268D01*
X236212501Y-98773101D02*
X234609200Y-98773101D01*
X237254668Y-99815268D02*
X236212501Y-98773101D01*
X227506400Y-78309600D02*
X226998400Y-78817600D01*
X228759200Y-78309600D02*
X227506400Y-78309600D01*
X227095020Y-87483980D02*
X228077900Y-86501100D01*
X227095020Y-93618020D02*
X227095020Y-87483980D01*
X232250101Y-98773101D02*
X227095020Y-93618020D01*
X234609200Y-98773101D02*
X232250101Y-98773101D01*
X236271201Y-118034200D02*
X228447200Y-118034200D01*
X228447200Y-113858420D01*
X229931613Y-115342834D01*
X229900507Y-115417931D01*
X229853200Y-115655757D01*
X229853200Y-115898243D01*
X229900507Y-116136069D01*
X229993302Y-116360097D01*
X230128020Y-116561717D01*
X230299483Y-116733180D01*
X230501103Y-116867898D01*
X230725131Y-116960693D01*
X230962957Y-117008000D01*
X231205443Y-117008000D01*
X231443269Y-116960693D01*
X231667297Y-116867898D01*
X231868917Y-116733180D01*
X232040380Y-116561717D01*
X232175098Y-116360097D01*
X232219109Y-116253846D01*
X232227375Y-116281099D01*
X232352559Y-116543920D01*
X232526612Y-116777269D01*
X232742845Y-116972178D01*
X232992948Y-117121157D01*
X233267309Y-117218481D01*
X233497200Y-117097814D01*
X233497200Y-115904000D01*
X233751200Y-115904000D01*
X233751200Y-117097814D01*
X233981091Y-117218481D01*
X234255452Y-117121157D01*
X234505555Y-116972178D01*
X234721788Y-116777269D01*
X234895841Y-116543920D01*
X235021025Y-116281099D01*
X235065676Y-116133890D01*
X234944355Y-115904000D01*
X233751200Y-115904000D01*
X233497200Y-115904000D01*
X233477200Y-115904000D01*
X233477200Y-115650000D01*
X233497200Y-115650000D01*
X233497200Y-115630000D01*
X233751200Y-115630000D01*
X233751200Y-115650000D01*
X234944355Y-115650000D01*
X235065676Y-115420110D01*
X235021025Y-115272901D01*
X234895841Y-115010080D01*
X234721788Y-114776731D01*
X234505555Y-114581822D01*
X234255452Y-114432843D01*
X234093032Y-114375228D01*
X234207297Y-114327898D01*
X234408917Y-114193180D01*
X234580380Y-114021717D01*
X234715098Y-113820097D01*
X234807893Y-113596069D01*
X234855200Y-113358243D01*
X234855200Y-113115757D01*
X234807893Y-112877931D01*
X234776787Y-112802833D01*
X236057156Y-111522464D01*
X236076539Y-111506557D01*
X236140020Y-111429204D01*
X236187192Y-111340952D01*
X236216240Y-111245194D01*
X236223591Y-111170556D01*
X236223591Y-111170553D01*
X236226048Y-111145609D01*
X236223591Y-111120665D01*
X236223591Y-109134864D01*
X236271200Y-109087255D01*
X236271201Y-118034200D01*
G04 #@! TA.AperFunction,Conductor*
D17*
G36*
X236271201Y-118034200D02*
G01*
X228447200Y-118034200D01*
X228447200Y-113858420D01*
X229931613Y-115342834D01*
X229900507Y-115417931D01*
X229853200Y-115655757D01*
X229853200Y-115898243D01*
X229900507Y-116136069D01*
X229993302Y-116360097D01*
X230128020Y-116561717D01*
X230299483Y-116733180D01*
X230501103Y-116867898D01*
X230725131Y-116960693D01*
X230962957Y-117008000D01*
X231205443Y-117008000D01*
X231443269Y-116960693D01*
X231667297Y-116867898D01*
X231868917Y-116733180D01*
X232040380Y-116561717D01*
X232175098Y-116360097D01*
X232219109Y-116253846D01*
X232227375Y-116281099D01*
X232352559Y-116543920D01*
X232526612Y-116777269D01*
X232742845Y-116972178D01*
X232992948Y-117121157D01*
X233267309Y-117218481D01*
X233497200Y-117097814D01*
X233497200Y-115904000D01*
X233751200Y-115904000D01*
X233751200Y-117097814D01*
X233981091Y-117218481D01*
X234255452Y-117121157D01*
X234505555Y-116972178D01*
X234721788Y-116777269D01*
X234895841Y-116543920D01*
X235021025Y-116281099D01*
X235065676Y-116133890D01*
X234944355Y-115904000D01*
X233751200Y-115904000D01*
X233497200Y-115904000D01*
X233477200Y-115904000D01*
X233477200Y-115650000D01*
X233497200Y-115650000D01*
X233497200Y-115630000D01*
X233751200Y-115630000D01*
X233751200Y-115650000D01*
X234944355Y-115650000D01*
X235065676Y-115420110D01*
X235021025Y-115272901D01*
X234895841Y-115010080D01*
X234721788Y-114776731D01*
X234505555Y-114581822D01*
X234255452Y-114432843D01*
X234093032Y-114375228D01*
X234207297Y-114327898D01*
X234408917Y-114193180D01*
X234580380Y-114021717D01*
X234715098Y-113820097D01*
X234807893Y-113596069D01*
X234855200Y-113358243D01*
X234855200Y-113115757D01*
X234807893Y-112877931D01*
X234776787Y-112802833D01*
X236057156Y-111522464D01*
X236076539Y-111506557D01*
X236140020Y-111429204D01*
X236187192Y-111340952D01*
X236216240Y-111245194D01*
X236223591Y-111170556D01*
X236223591Y-111170553D01*
X236226048Y-111145609D01*
X236223591Y-111120665D01*
X236223591Y-109134864D01*
X236271200Y-109087255D01*
X236271201Y-118034200D01*
G37*
G04 #@! TD.AperFunction*
D16*
X231873250Y-99114671D02*
X231889153Y-99134049D01*
X231908530Y-99149951D01*
X231966505Y-99197530D01*
X232000660Y-99215786D01*
X232054758Y-99244702D01*
X232150516Y-99273750D01*
X232225154Y-99281101D01*
X232225156Y-99281101D01*
X232250100Y-99283558D01*
X232275044Y-99281101D01*
X233576357Y-99281101D01*
X233576357Y-99548101D01*
X233583713Y-99622790D01*
X233605499Y-99694609D01*
X233640878Y-99760797D01*
X233688489Y-99818812D01*
X233746504Y-99866423D01*
X233812692Y-99901802D01*
X233884511Y-99923588D01*
X233959200Y-99930944D01*
X234101201Y-99930944D01*
X234101200Y-105575258D01*
X233959200Y-105575258D01*
X233884511Y-105582614D01*
X233812692Y-105604400D01*
X233746504Y-105639779D01*
X233688489Y-105687390D01*
X233640878Y-105745405D01*
X233605499Y-105811593D01*
X233583713Y-105883412D01*
X233576357Y-105958101D01*
X233576357Y-107508101D01*
X233583713Y-107582790D01*
X233605499Y-107654609D01*
X233640878Y-107720797D01*
X233688489Y-107778812D01*
X233746504Y-107826423D01*
X233812692Y-107861802D01*
X233884511Y-107883588D01*
X233959200Y-107890944D01*
X234746538Y-107890944D01*
X233282635Y-109354848D01*
X233263252Y-109370755D01*
X233199771Y-109448108D01*
X233162834Y-109517213D01*
X232464955Y-108819335D01*
X232449048Y-108799952D01*
X232371695Y-108736471D01*
X232283443Y-108689299D01*
X232187685Y-108660251D01*
X232113047Y-108652900D01*
X232113044Y-108652900D01*
X232088100Y-108650443D01*
X232063156Y-108652900D01*
X231164321Y-108652900D01*
X230617200Y-108105780D01*
X230617200Y-107890944D01*
X230759200Y-107890944D01*
X230833889Y-107883588D01*
X230905708Y-107861802D01*
X230971896Y-107826423D01*
X231029911Y-107778812D01*
X231077522Y-107720797D01*
X231112901Y-107654609D01*
X231134687Y-107582790D01*
X231142043Y-107508101D01*
X231142043Y-105958101D01*
X231134687Y-105883412D01*
X231112901Y-105811593D01*
X231077522Y-105745405D01*
X231029911Y-105687390D01*
X230971896Y-105639779D01*
X230905708Y-105604400D01*
X230833889Y-105582614D01*
X230781682Y-105577472D01*
X230816113Y-105525942D01*
X230874987Y-105383809D01*
X230905000Y-105232922D01*
X230905000Y-105079078D01*
X230874987Y-104928191D01*
X230816113Y-104786058D01*
X230730642Y-104658141D01*
X230621859Y-104549358D01*
X230617200Y-104546245D01*
X230617200Y-99930944D01*
X230759200Y-99930944D01*
X230833889Y-99923588D01*
X230905708Y-99901802D01*
X230971896Y-99866423D01*
X231029911Y-99818812D01*
X231077522Y-99760797D01*
X231112901Y-99694609D01*
X231134687Y-99622790D01*
X231142043Y-99548101D01*
X231142043Y-98383464D01*
X231873250Y-99114671D01*
G04 #@! TA.AperFunction,Conductor*
D17*
G36*
X231873250Y-99114671D02*
G01*
X231889153Y-99134049D01*
X231908530Y-99149951D01*
X231966505Y-99197530D01*
X232000660Y-99215786D01*
X232054758Y-99244702D01*
X232150516Y-99273750D01*
X232225154Y-99281101D01*
X232225156Y-99281101D01*
X232250100Y-99283558D01*
X232275044Y-99281101D01*
X233576357Y-99281101D01*
X233576357Y-99548101D01*
X233583713Y-99622790D01*
X233605499Y-99694609D01*
X233640878Y-99760797D01*
X233688489Y-99818812D01*
X233746504Y-99866423D01*
X233812692Y-99901802D01*
X233884511Y-99923588D01*
X233959200Y-99930944D01*
X234101201Y-99930944D01*
X234101200Y-105575258D01*
X233959200Y-105575258D01*
X233884511Y-105582614D01*
X233812692Y-105604400D01*
X233746504Y-105639779D01*
X233688489Y-105687390D01*
X233640878Y-105745405D01*
X233605499Y-105811593D01*
X233583713Y-105883412D01*
X233576357Y-105958101D01*
X233576357Y-107508101D01*
X233583713Y-107582790D01*
X233605499Y-107654609D01*
X233640878Y-107720797D01*
X233688489Y-107778812D01*
X233746504Y-107826423D01*
X233812692Y-107861802D01*
X233884511Y-107883588D01*
X233959200Y-107890944D01*
X234746538Y-107890944D01*
X233282635Y-109354848D01*
X233263252Y-109370755D01*
X233199771Y-109448108D01*
X233162834Y-109517213D01*
X232464955Y-108819335D01*
X232449048Y-108799952D01*
X232371695Y-108736471D01*
X232283443Y-108689299D01*
X232187685Y-108660251D01*
X232113047Y-108652900D01*
X232113044Y-108652900D01*
X232088100Y-108650443D01*
X232063156Y-108652900D01*
X231164321Y-108652900D01*
X230617200Y-108105780D01*
X230617200Y-107890944D01*
X230759200Y-107890944D01*
X230833889Y-107883588D01*
X230905708Y-107861802D01*
X230971896Y-107826423D01*
X231029911Y-107778812D01*
X231077522Y-107720797D01*
X231112901Y-107654609D01*
X231134687Y-107582790D01*
X231142043Y-107508101D01*
X231142043Y-105958101D01*
X231134687Y-105883412D01*
X231112901Y-105811593D01*
X231077522Y-105745405D01*
X231029911Y-105687390D01*
X230971896Y-105639779D01*
X230905708Y-105604400D01*
X230833889Y-105582614D01*
X230781682Y-105577472D01*
X230816113Y-105525942D01*
X230874987Y-105383809D01*
X230905000Y-105232922D01*
X230905000Y-105079078D01*
X230874987Y-104928191D01*
X230816113Y-104786058D01*
X230730642Y-104658141D01*
X230621859Y-104549358D01*
X230617200Y-104546245D01*
X230617200Y-99930944D01*
X230759200Y-99930944D01*
X230833889Y-99923588D01*
X230905708Y-99901802D01*
X230971896Y-99866423D01*
X231029911Y-99818812D01*
X231077522Y-99760797D01*
X231112901Y-99694609D01*
X231134687Y-99622790D01*
X231142043Y-99548101D01*
X231142043Y-98383464D01*
X231873250Y-99114671D01*
G37*
G04 #@! TD.AperFunction*
D16*
X230022959Y-66613760D02*
X230038862Y-66633138D01*
X230058239Y-66649040D01*
X230116214Y-66696619D01*
X230204465Y-66743790D01*
X230204467Y-66743791D01*
X230300225Y-66772839D01*
X230374863Y-66780190D01*
X230374865Y-66780190D01*
X230399809Y-66782647D01*
X230424753Y-66780190D01*
X231274901Y-66780190D01*
X231274900Y-74457680D01*
X230485080Y-75247500D01*
X227411377Y-75247500D01*
X227386433Y-75245043D01*
X227361489Y-75247500D01*
X227361486Y-75247500D01*
X227286848Y-75254851D01*
X227191090Y-75283899D01*
X227102838Y-75331071D01*
X227025485Y-75394552D01*
X227009578Y-75413935D01*
X224843990Y-77579523D01*
X224843990Y-76996511D01*
X224942632Y-76897869D01*
X225028103Y-76769952D01*
X225086977Y-76627819D01*
X225116990Y-76476932D01*
X225116990Y-76323088D01*
X225086977Y-76172201D01*
X225028103Y-76030068D01*
X224942632Y-75902151D01*
X224833849Y-75793368D01*
X224705932Y-75707897D01*
X224563799Y-75649023D01*
X224412912Y-75619010D01*
X224259068Y-75619010D01*
X224108181Y-75649023D01*
X223966048Y-75707897D01*
X223838131Y-75793368D01*
X223729348Y-75902151D01*
X223643877Y-76030068D01*
X223585003Y-76172201D01*
X223554990Y-76323088D01*
X223554990Y-76476932D01*
X223585003Y-76627819D01*
X223643877Y-76769952D01*
X223729348Y-76897869D01*
X223827991Y-76996512D01*
X223827990Y-84952590D01*
X223682980Y-85097600D01*
X204716827Y-85097600D01*
X204677196Y-85023456D01*
X204600049Y-84929451D01*
X204506044Y-84852304D01*
X204398795Y-84794978D01*
X204282423Y-84759677D01*
X204161400Y-84747757D01*
X203586400Y-84747757D01*
X203465377Y-84759677D01*
X203349005Y-84794978D01*
X203241756Y-84852304D01*
X203147751Y-84929451D01*
X203070604Y-85023456D01*
X203013278Y-85130705D01*
X202998900Y-85178103D01*
X202984522Y-85130705D01*
X202927196Y-85023456D01*
X202850049Y-84929451D01*
X202756044Y-84852304D01*
X202648795Y-84794978D01*
X202532423Y-84759677D01*
X202411400Y-84747757D01*
X201836400Y-84747757D01*
X201715377Y-84759677D01*
X201599005Y-84794978D01*
X201491756Y-84852304D01*
X201397751Y-84929451D01*
X201320604Y-85023456D01*
X201263278Y-85130705D01*
X201227977Y-85247077D01*
X201216057Y-85368100D01*
X201216057Y-85843100D01*
X201227977Y-85964123D01*
X201263278Y-86080495D01*
X201320604Y-86187744D01*
X201397751Y-86281749D01*
X201491756Y-86358896D01*
X201599005Y-86416222D01*
X201631301Y-86426019D01*
X201640739Y-86457131D01*
X201652300Y-86495243D01*
X201699471Y-86583495D01*
X201731413Y-86622416D01*
X201762953Y-86660848D01*
X201782330Y-86676750D01*
X202061145Y-86955565D01*
X202077052Y-86974948D01*
X202126288Y-87015354D01*
X202154404Y-87038429D01*
X202242655Y-87085600D01*
X202242657Y-87085601D01*
X202338415Y-87114649D01*
X202413053Y-87122000D01*
X202413055Y-87122000D01*
X202437999Y-87124457D01*
X202462943Y-87122000D01*
X204572056Y-87122000D01*
X204597000Y-87124457D01*
X204621944Y-87122000D01*
X204621947Y-87122000D01*
X204696585Y-87114649D01*
X204792343Y-87085601D01*
X204880595Y-87038429D01*
X204957948Y-86974948D01*
X204973855Y-86955565D01*
X205361810Y-86567610D01*
X222903811Y-86567610D01*
X222858002Y-86678202D01*
X222827989Y-86829089D01*
X222827989Y-86982933D01*
X222858002Y-87133820D01*
X222916876Y-87275953D01*
X223002347Y-87403870D01*
X223111130Y-87512653D01*
X223239047Y-87598124D01*
X223381180Y-87656998D01*
X223532067Y-87687011D01*
X223671569Y-87687011D01*
X223827991Y-87843433D01*
X223827990Y-93388580D01*
X223294970Y-93921600D01*
X206544327Y-93921600D01*
X206504696Y-93847456D01*
X206427549Y-93753451D01*
X206333544Y-93676304D01*
X206226295Y-93618978D01*
X206109923Y-93583677D01*
X205988900Y-93571757D01*
X205488900Y-93571757D01*
X205367877Y-93583677D01*
X205251505Y-93618978D01*
X205144256Y-93676304D01*
X205050251Y-93753451D01*
X204973104Y-93847456D01*
X204915778Y-93954705D01*
X204880477Y-94071077D01*
X204868557Y-94192100D01*
X204868557Y-94667100D01*
X204880477Y-94788123D01*
X204905011Y-94869000D01*
X204747789Y-94869000D01*
X204772323Y-94788123D01*
X204784243Y-94667100D01*
X204784243Y-94192100D01*
X204772323Y-94071077D01*
X204737022Y-93954705D01*
X204679696Y-93847456D01*
X204602549Y-93753451D01*
X204508544Y-93676304D01*
X204401295Y-93618978D01*
X204284923Y-93583677D01*
X204163900Y-93571757D01*
X203663900Y-93571757D01*
X203542877Y-93583677D01*
X203426505Y-93618978D01*
X203319256Y-93676304D01*
X203225251Y-93753451D01*
X203148104Y-93847456D01*
X203090778Y-93954705D01*
X203055477Y-94071077D01*
X203043557Y-94192100D01*
X203043557Y-94667100D01*
X203055477Y-94788123D01*
X203090778Y-94904495D01*
X203148104Y-95011744D01*
X203225251Y-95105749D01*
X203319256Y-95182896D01*
X203426505Y-95240222D01*
X203433871Y-95242456D01*
X203442300Y-95270243D01*
X203489471Y-95358495D01*
X203537050Y-95416470D01*
X203552953Y-95435848D01*
X203572331Y-95451751D01*
X203839141Y-95718560D01*
X203855052Y-95737948D01*
X203903921Y-95778053D01*
X203932404Y-95801429D01*
X203979576Y-95826643D01*
X204020657Y-95848601D01*
X204116415Y-95877649D01*
X204191053Y-95885000D01*
X204191056Y-95885000D01*
X204216000Y-95887457D01*
X204240944Y-95885000D01*
X206477056Y-95885000D01*
X206502000Y-95887457D01*
X206526944Y-95885000D01*
X206526947Y-95885000D01*
X206601585Y-95877649D01*
X206697343Y-95848601D01*
X206785595Y-95801429D01*
X206862948Y-95737948D01*
X206878855Y-95718565D01*
X207205810Y-95391610D01*
X218306867Y-95391610D01*
X218324013Y-95477809D01*
X218382887Y-95619942D01*
X218468358Y-95747859D01*
X218577141Y-95856642D01*
X218705058Y-95942113D01*
X218847191Y-96000987D01*
X218870881Y-96005699D01*
X218642208Y-96234372D01*
X218622820Y-96250283D01*
X218559339Y-96327636D01*
X218512167Y-96415889D01*
X218483119Y-96511647D01*
X218478019Y-96563429D01*
X218473311Y-96611230D01*
X218475768Y-96636174D01*
X218475769Y-99015659D01*
X218389124Y-99061972D01*
X218295119Y-99139119D01*
X218217972Y-99233124D01*
X218160646Y-99340373D01*
X218125345Y-99456745D01*
X218113425Y-99577768D01*
X218113425Y-99666005D01*
X214238689Y-95791269D01*
X214222782Y-95771886D01*
X214145429Y-95708405D01*
X214057177Y-95661233D01*
X213961419Y-95632185D01*
X213886781Y-95624834D01*
X213886778Y-95624834D01*
X213861834Y-95622377D01*
X213836890Y-95624834D01*
X211727777Y-95624834D01*
X211702833Y-95622377D01*
X211677889Y-95624834D01*
X211677887Y-95624834D01*
X211603249Y-95632185D01*
X211507491Y-95661233D01*
X211419239Y-95708405D01*
X211341886Y-95771886D01*
X211325979Y-95791269D01*
X211107264Y-96009984D01*
X211087887Y-96025886D01*
X211071985Y-96045263D01*
X211071984Y-96045264D01*
X211024405Y-96103239D01*
X210990133Y-96167358D01*
X210977234Y-96191491D01*
X210949973Y-96281360D01*
X210948186Y-96287250D01*
X210944896Y-96320655D01*
X210854190Y-96369138D01*
X210760185Y-96446285D01*
X210683038Y-96540290D01*
X210625712Y-96647539D01*
X210590411Y-96763911D01*
X210578491Y-96884934D01*
X210578491Y-97359934D01*
X210590411Y-97480957D01*
X210625712Y-97597329D01*
X210683038Y-97704578D01*
X210760185Y-97798583D01*
X210854190Y-97875730D01*
X210959126Y-97931820D01*
X210977233Y-97991509D01*
X211024405Y-98079761D01*
X211087886Y-98157114D01*
X211107268Y-98173020D01*
X211428141Y-98493894D01*
X211444044Y-98513272D01*
X211463421Y-98529174D01*
X211521396Y-98576753D01*
X211609647Y-98623924D01*
X211609649Y-98623925D01*
X211705407Y-98652973D01*
X211780045Y-98660324D01*
X211780047Y-98660324D01*
X211804991Y-98662781D01*
X211829935Y-98660324D01*
X214386772Y-98660324D01*
X223103617Y-107377170D01*
X223119520Y-107396548D01*
X223138897Y-107412450D01*
X223196872Y-107460029D01*
X223231637Y-107478611D01*
X223285125Y-107507201D01*
X223380883Y-107536249D01*
X223455521Y-107543600D01*
X223455523Y-107543600D01*
X223480467Y-107546057D01*
X223505411Y-107543600D01*
X227402958Y-107543600D01*
X228156736Y-108297379D01*
X228120790Y-108286475D01*
X228061141Y-108280600D01*
X228061140Y-108280600D01*
X228041200Y-108278636D01*
X228021259Y-108280600D01*
X189718845Y-108280600D01*
X206763236Y-87945219D01*
X206764874Y-87943874D01*
X206788893Y-87914608D01*
X206800366Y-87900919D01*
X206801555Y-87899179D01*
X206815610Y-87882053D01*
X206824067Y-87866231D01*
X206834180Y-87851430D01*
X206842865Y-87831063D01*
X206853310Y-87811521D01*
X206858517Y-87794355D01*
X206865549Y-87777864D01*
X206870095Y-87756188D01*
X206876525Y-87734990D01*
X206878283Y-87717146D01*
X206881964Y-87699591D01*
X206882193Y-87677442D01*
X206884364Y-87655400D01*
X206882606Y-87637547D01*
X206882791Y-87619621D01*
X206878697Y-87597861D01*
X206876525Y-87575810D01*
X206871318Y-87558646D01*
X206868003Y-87541025D01*
X206859741Y-87520479D01*
X206853310Y-87499279D01*
X206844854Y-87483459D01*
X206838165Y-87466825D01*
X206826056Y-87448290D01*
X206815610Y-87428747D01*
X206804227Y-87414876D01*
X206794424Y-87399872D01*
X206778933Y-87384056D01*
X206764874Y-87366926D01*
X206751006Y-87355544D01*
X206738462Y-87342738D01*
X206720184Y-87330249D01*
X206703053Y-87316190D01*
X206687226Y-87307731D01*
X206672429Y-87297620D01*
X206652067Y-87288938D01*
X206632521Y-87278490D01*
X206615351Y-87273282D01*
X206598863Y-87266251D01*
X206577190Y-87261706D01*
X206555990Y-87255275D01*
X206538145Y-87253517D01*
X206520591Y-87249836D01*
X206498442Y-87249607D01*
X206496341Y-87249400D01*
X206478430Y-87249400D01*
X206440620Y-87249009D01*
X206438542Y-87249400D01*
X198346445Y-87249400D01*
X215390836Y-66914019D01*
X215392474Y-66912674D01*
X215416493Y-66883408D01*
X215427966Y-66869719D01*
X215429155Y-66867979D01*
X215443210Y-66850853D01*
X215451667Y-66835031D01*
X215461780Y-66820230D01*
X215470465Y-66799863D01*
X215480910Y-66780321D01*
X215486117Y-66763155D01*
X215493149Y-66746664D01*
X215497695Y-66724988D01*
X215504125Y-66703790D01*
X215505883Y-66685946D01*
X215509564Y-66668391D01*
X215509793Y-66646242D01*
X215511964Y-66624200D01*
X215510206Y-66606347D01*
X215510391Y-66588421D01*
X215506297Y-66566661D01*
X215504125Y-66544610D01*
X215498918Y-66527446D01*
X215495603Y-66509825D01*
X215487341Y-66489279D01*
X215480910Y-66468079D01*
X215472454Y-66452259D01*
X215465765Y-66435625D01*
X215453656Y-66417090D01*
X215443210Y-66397547D01*
X215431827Y-66383676D01*
X215422024Y-66368672D01*
X215406533Y-66352856D01*
X215392474Y-66335726D01*
X215378606Y-66324344D01*
X215366062Y-66311538D01*
X215347784Y-66299049D01*
X215341632Y-66294000D01*
X229703200Y-66294000D01*
X230022959Y-66613760D01*
G04 #@! TA.AperFunction,Conductor*
D17*
G36*
X230022959Y-66613760D02*
G01*
X230038862Y-66633138D01*
X230058239Y-66649040D01*
X230116214Y-66696619D01*
X230204465Y-66743790D01*
X230204467Y-66743791D01*
X230300225Y-66772839D01*
X230374863Y-66780190D01*
X230374865Y-66780190D01*
X230399809Y-66782647D01*
X230424753Y-66780190D01*
X231274901Y-66780190D01*
X231274900Y-74457680D01*
X230485080Y-75247500D01*
X227411377Y-75247500D01*
X227386433Y-75245043D01*
X227361489Y-75247500D01*
X227361486Y-75247500D01*
X227286848Y-75254851D01*
X227191090Y-75283899D01*
X227102838Y-75331071D01*
X227025485Y-75394552D01*
X227009578Y-75413935D01*
X224843990Y-77579523D01*
X224843990Y-76996511D01*
X224942632Y-76897869D01*
X225028103Y-76769952D01*
X225086977Y-76627819D01*
X225116990Y-76476932D01*
X225116990Y-76323088D01*
X225086977Y-76172201D01*
X225028103Y-76030068D01*
X224942632Y-75902151D01*
X224833849Y-75793368D01*
X224705932Y-75707897D01*
X224563799Y-75649023D01*
X224412912Y-75619010D01*
X224259068Y-75619010D01*
X224108181Y-75649023D01*
X223966048Y-75707897D01*
X223838131Y-75793368D01*
X223729348Y-75902151D01*
X223643877Y-76030068D01*
X223585003Y-76172201D01*
X223554990Y-76323088D01*
X223554990Y-76476932D01*
X223585003Y-76627819D01*
X223643877Y-76769952D01*
X223729348Y-76897869D01*
X223827991Y-76996512D01*
X223827990Y-84952590D01*
X223682980Y-85097600D01*
X204716827Y-85097600D01*
X204677196Y-85023456D01*
X204600049Y-84929451D01*
X204506044Y-84852304D01*
X204398795Y-84794978D01*
X204282423Y-84759677D01*
X204161400Y-84747757D01*
X203586400Y-84747757D01*
X203465377Y-84759677D01*
X203349005Y-84794978D01*
X203241756Y-84852304D01*
X203147751Y-84929451D01*
X203070604Y-85023456D01*
X203013278Y-85130705D01*
X202998900Y-85178103D01*
X202984522Y-85130705D01*
X202927196Y-85023456D01*
X202850049Y-84929451D01*
X202756044Y-84852304D01*
X202648795Y-84794978D01*
X202532423Y-84759677D01*
X202411400Y-84747757D01*
X201836400Y-84747757D01*
X201715377Y-84759677D01*
X201599005Y-84794978D01*
X201491756Y-84852304D01*
X201397751Y-84929451D01*
X201320604Y-85023456D01*
X201263278Y-85130705D01*
X201227977Y-85247077D01*
X201216057Y-85368100D01*
X201216057Y-85843100D01*
X201227977Y-85964123D01*
X201263278Y-86080495D01*
X201320604Y-86187744D01*
X201397751Y-86281749D01*
X201491756Y-86358896D01*
X201599005Y-86416222D01*
X201631301Y-86426019D01*
X201640739Y-86457131D01*
X201652300Y-86495243D01*
X201699471Y-86583495D01*
X201731413Y-86622416D01*
X201762953Y-86660848D01*
X201782330Y-86676750D01*
X202061145Y-86955565D01*
X202077052Y-86974948D01*
X202126288Y-87015354D01*
X202154404Y-87038429D01*
X202242655Y-87085600D01*
X202242657Y-87085601D01*
X202338415Y-87114649D01*
X202413053Y-87122000D01*
X202413055Y-87122000D01*
X202437999Y-87124457D01*
X202462943Y-87122000D01*
X204572056Y-87122000D01*
X204597000Y-87124457D01*
X204621944Y-87122000D01*
X204621947Y-87122000D01*
X204696585Y-87114649D01*
X204792343Y-87085601D01*
X204880595Y-87038429D01*
X204957948Y-86974948D01*
X204973855Y-86955565D01*
X205361810Y-86567610D01*
X222903811Y-86567610D01*
X222858002Y-86678202D01*
X222827989Y-86829089D01*
X222827989Y-86982933D01*
X222858002Y-87133820D01*
X222916876Y-87275953D01*
X223002347Y-87403870D01*
X223111130Y-87512653D01*
X223239047Y-87598124D01*
X223381180Y-87656998D01*
X223532067Y-87687011D01*
X223671569Y-87687011D01*
X223827991Y-87843433D01*
X223827990Y-93388580D01*
X223294970Y-93921600D01*
X206544327Y-93921600D01*
X206504696Y-93847456D01*
X206427549Y-93753451D01*
X206333544Y-93676304D01*
X206226295Y-93618978D01*
X206109923Y-93583677D01*
X205988900Y-93571757D01*
X205488900Y-93571757D01*
X205367877Y-93583677D01*
X205251505Y-93618978D01*
X205144256Y-93676304D01*
X205050251Y-93753451D01*
X204973104Y-93847456D01*
X204915778Y-93954705D01*
X204880477Y-94071077D01*
X204868557Y-94192100D01*
X204868557Y-94667100D01*
X204880477Y-94788123D01*
X204905011Y-94869000D01*
X204747789Y-94869000D01*
X204772323Y-94788123D01*
X204784243Y-94667100D01*
X204784243Y-94192100D01*
X204772323Y-94071077D01*
X204737022Y-93954705D01*
X204679696Y-93847456D01*
X204602549Y-93753451D01*
X204508544Y-93676304D01*
X204401295Y-93618978D01*
X204284923Y-93583677D01*
X204163900Y-93571757D01*
X203663900Y-93571757D01*
X203542877Y-93583677D01*
X203426505Y-93618978D01*
X203319256Y-93676304D01*
X203225251Y-93753451D01*
X203148104Y-93847456D01*
X203090778Y-93954705D01*
X203055477Y-94071077D01*
X203043557Y-94192100D01*
X203043557Y-94667100D01*
X203055477Y-94788123D01*
X203090778Y-94904495D01*
X203148104Y-95011744D01*
X203225251Y-95105749D01*
X203319256Y-95182896D01*
X203426505Y-95240222D01*
X203433871Y-95242456D01*
X203442300Y-95270243D01*
X203489471Y-95358495D01*
X203537050Y-95416470D01*
X203552953Y-95435848D01*
X203572331Y-95451751D01*
X203839141Y-95718560D01*
X203855052Y-95737948D01*
X203903921Y-95778053D01*
X203932404Y-95801429D01*
X203979576Y-95826643D01*
X204020657Y-95848601D01*
X204116415Y-95877649D01*
X204191053Y-95885000D01*
X204191056Y-95885000D01*
X204216000Y-95887457D01*
X204240944Y-95885000D01*
X206477056Y-95885000D01*
X206502000Y-95887457D01*
X206526944Y-95885000D01*
X206526947Y-95885000D01*
X206601585Y-95877649D01*
X206697343Y-95848601D01*
X206785595Y-95801429D01*
X206862948Y-95737948D01*
X206878855Y-95718565D01*
X207205810Y-95391610D01*
X218306867Y-95391610D01*
X218324013Y-95477809D01*
X218382887Y-95619942D01*
X218468358Y-95747859D01*
X218577141Y-95856642D01*
X218705058Y-95942113D01*
X218847191Y-96000987D01*
X218870881Y-96005699D01*
X218642208Y-96234372D01*
X218622820Y-96250283D01*
X218559339Y-96327636D01*
X218512167Y-96415889D01*
X218483119Y-96511647D01*
X218478019Y-96563429D01*
X218473311Y-96611230D01*
X218475768Y-96636174D01*
X218475769Y-99015659D01*
X218389124Y-99061972D01*
X218295119Y-99139119D01*
X218217972Y-99233124D01*
X218160646Y-99340373D01*
X218125345Y-99456745D01*
X218113425Y-99577768D01*
X218113425Y-99666005D01*
X214238689Y-95791269D01*
X214222782Y-95771886D01*
X214145429Y-95708405D01*
X214057177Y-95661233D01*
X213961419Y-95632185D01*
X213886781Y-95624834D01*
X213886778Y-95624834D01*
X213861834Y-95622377D01*
X213836890Y-95624834D01*
X211727777Y-95624834D01*
X211702833Y-95622377D01*
X211677889Y-95624834D01*
X211677887Y-95624834D01*
X211603249Y-95632185D01*
X211507491Y-95661233D01*
X211419239Y-95708405D01*
X211341886Y-95771886D01*
X211325979Y-95791269D01*
X211107264Y-96009984D01*
X211087887Y-96025886D01*
X211071985Y-96045263D01*
X211071984Y-96045264D01*
X211024405Y-96103239D01*
X210990133Y-96167358D01*
X210977234Y-96191491D01*
X210949973Y-96281360D01*
X210948186Y-96287250D01*
X210944896Y-96320655D01*
X210854190Y-96369138D01*
X210760185Y-96446285D01*
X210683038Y-96540290D01*
X210625712Y-96647539D01*
X210590411Y-96763911D01*
X210578491Y-96884934D01*
X210578491Y-97359934D01*
X210590411Y-97480957D01*
X210625712Y-97597329D01*
X210683038Y-97704578D01*
X210760185Y-97798583D01*
X210854190Y-97875730D01*
X210959126Y-97931820D01*
X210977233Y-97991509D01*
X211024405Y-98079761D01*
X211087886Y-98157114D01*
X211107268Y-98173020D01*
X211428141Y-98493894D01*
X211444044Y-98513272D01*
X211463421Y-98529174D01*
X211521396Y-98576753D01*
X211609647Y-98623924D01*
X211609649Y-98623925D01*
X211705407Y-98652973D01*
X211780045Y-98660324D01*
X211780047Y-98660324D01*
X211804991Y-98662781D01*
X211829935Y-98660324D01*
X214386772Y-98660324D01*
X223103617Y-107377170D01*
X223119520Y-107396548D01*
X223138897Y-107412450D01*
X223196872Y-107460029D01*
X223231637Y-107478611D01*
X223285125Y-107507201D01*
X223380883Y-107536249D01*
X223455521Y-107543600D01*
X223455523Y-107543600D01*
X223480467Y-107546057D01*
X223505411Y-107543600D01*
X227402958Y-107543600D01*
X228156736Y-108297379D01*
X228120790Y-108286475D01*
X228061141Y-108280600D01*
X228061140Y-108280600D01*
X228041200Y-108278636D01*
X228021259Y-108280600D01*
X189718845Y-108280600D01*
X206763236Y-87945219D01*
X206764874Y-87943874D01*
X206788893Y-87914608D01*
X206800366Y-87900919D01*
X206801555Y-87899179D01*
X206815610Y-87882053D01*
X206824067Y-87866231D01*
X206834180Y-87851430D01*
X206842865Y-87831063D01*
X206853310Y-87811521D01*
X206858517Y-87794355D01*
X206865549Y-87777864D01*
X206870095Y-87756188D01*
X206876525Y-87734990D01*
X206878283Y-87717146D01*
X206881964Y-87699591D01*
X206882193Y-87677442D01*
X206884364Y-87655400D01*
X206882606Y-87637547D01*
X206882791Y-87619621D01*
X206878697Y-87597861D01*
X206876525Y-87575810D01*
X206871318Y-87558646D01*
X206868003Y-87541025D01*
X206859741Y-87520479D01*
X206853310Y-87499279D01*
X206844854Y-87483459D01*
X206838165Y-87466825D01*
X206826056Y-87448290D01*
X206815610Y-87428747D01*
X206804227Y-87414876D01*
X206794424Y-87399872D01*
X206778933Y-87384056D01*
X206764874Y-87366926D01*
X206751006Y-87355544D01*
X206738462Y-87342738D01*
X206720184Y-87330249D01*
X206703053Y-87316190D01*
X206687226Y-87307731D01*
X206672429Y-87297620D01*
X206652067Y-87288938D01*
X206632521Y-87278490D01*
X206615351Y-87273282D01*
X206598863Y-87266251D01*
X206577190Y-87261706D01*
X206555990Y-87255275D01*
X206538145Y-87253517D01*
X206520591Y-87249836D01*
X206498442Y-87249607D01*
X206496341Y-87249400D01*
X206478430Y-87249400D01*
X206440620Y-87249009D01*
X206438542Y-87249400D01*
X198346445Y-87249400D01*
X215390836Y-66914019D01*
X215392474Y-66912674D01*
X215416493Y-66883408D01*
X215427966Y-66869719D01*
X215429155Y-66867979D01*
X215443210Y-66850853D01*
X215451667Y-66835031D01*
X215461780Y-66820230D01*
X215470465Y-66799863D01*
X215480910Y-66780321D01*
X215486117Y-66763155D01*
X215493149Y-66746664D01*
X215497695Y-66724988D01*
X215504125Y-66703790D01*
X215505883Y-66685946D01*
X215509564Y-66668391D01*
X215509793Y-66646242D01*
X215511964Y-66624200D01*
X215510206Y-66606347D01*
X215510391Y-66588421D01*
X215506297Y-66566661D01*
X215504125Y-66544610D01*
X215498918Y-66527446D01*
X215495603Y-66509825D01*
X215487341Y-66489279D01*
X215480910Y-66468079D01*
X215472454Y-66452259D01*
X215465765Y-66435625D01*
X215453656Y-66417090D01*
X215443210Y-66397547D01*
X215431827Y-66383676D01*
X215422024Y-66368672D01*
X215406533Y-66352856D01*
X215392474Y-66335726D01*
X215378606Y-66324344D01*
X215366062Y-66311538D01*
X215347784Y-66299049D01*
X215341632Y-66294000D01*
X229703200Y-66294000D01*
X230022959Y-66613760D01*
G37*
G04 #@! TD.AperFunction*
D16*
X259973149Y-87082570D02*
X259989052Y-87101948D01*
X260008429Y-87117850D01*
X260066404Y-87165429D01*
X260079596Y-87172480D01*
X260154657Y-87212601D01*
X260250415Y-87241649D01*
X260325053Y-87249000D01*
X260325056Y-87249000D01*
X260329116Y-87249400D01*
X258279857Y-87249400D01*
X258277779Y-87249009D01*
X258239970Y-87249400D01*
X258222059Y-87249400D01*
X258219958Y-87249607D01*
X258197809Y-87249836D01*
X258180255Y-87253517D01*
X258162410Y-87255275D01*
X258141210Y-87261706D01*
X258119537Y-87266251D01*
X258103049Y-87273282D01*
X258085879Y-87278490D01*
X258066333Y-87288938D01*
X258045971Y-87297620D01*
X258031174Y-87307731D01*
X258015347Y-87316190D01*
X257998216Y-87330249D01*
X257979938Y-87342738D01*
X257967394Y-87355544D01*
X257953526Y-87366926D01*
X257939467Y-87384056D01*
X257923976Y-87399872D01*
X257914173Y-87414876D01*
X257902790Y-87428747D01*
X257892344Y-87448290D01*
X257880235Y-87466825D01*
X257873546Y-87483459D01*
X257865090Y-87499279D01*
X257858659Y-87520479D01*
X257850397Y-87541025D01*
X257847082Y-87558646D01*
X257841875Y-87575810D01*
X257839703Y-87597861D01*
X257835609Y-87619621D01*
X257835794Y-87637547D01*
X257834036Y-87655400D01*
X257836207Y-87677442D01*
X257836436Y-87699591D01*
X257840117Y-87717145D01*
X257841875Y-87734990D01*
X257848306Y-87756190D01*
X257852851Y-87777863D01*
X257859882Y-87794351D01*
X257865090Y-87811521D01*
X257875538Y-87831067D01*
X257884220Y-87851429D01*
X257894331Y-87866227D01*
X257902790Y-87882053D01*
X257916849Y-87899184D01*
X257918034Y-87900918D01*
X257929468Y-87914560D01*
X257953526Y-87943874D01*
X257955167Y-87945221D01*
X274999554Y-108280600D01*
X237077856Y-108280600D01*
X237843446Y-107515010D01*
X249417590Y-107515010D01*
X249686145Y-107783565D01*
X249702052Y-107802948D01*
X249779405Y-107866429D01*
X249867657Y-107913601D01*
X249963415Y-107942649D01*
X250038053Y-107950000D01*
X250038056Y-107950000D01*
X250063000Y-107952457D01*
X250087944Y-107950000D01*
X250228499Y-107950000D01*
X250327141Y-108048642D01*
X250455058Y-108134113D01*
X250597191Y-108192987D01*
X250748078Y-108223000D01*
X250901922Y-108223000D01*
X251052809Y-108192987D01*
X251194942Y-108134113D01*
X251322859Y-108048642D01*
X251428444Y-107943057D01*
X251432585Y-107942649D01*
X251528343Y-107913601D01*
X251616595Y-107866429D01*
X251693948Y-107802948D01*
X251709855Y-107783565D01*
X252447146Y-107046274D01*
X252466524Y-107030372D01*
X252515742Y-106970399D01*
X252530005Y-106953020D01*
X252577176Y-106864769D01*
X252584612Y-106840257D01*
X252606225Y-106769009D01*
X252613576Y-106694371D01*
X252613576Y-106694369D01*
X252616033Y-106669425D01*
X252613576Y-106644481D01*
X252613576Y-100021844D01*
X256877420Y-95758000D01*
X260325056Y-95758000D01*
X260350000Y-95760457D01*
X260374944Y-95758000D01*
X260374947Y-95758000D01*
X260449585Y-95750649D01*
X260545343Y-95721601D01*
X260633595Y-95674429D01*
X260710948Y-95610948D01*
X260726855Y-95591566D01*
X261146070Y-95172351D01*
X261165448Y-95156448D01*
X261211899Y-95099847D01*
X261228929Y-95079096D01*
X261264929Y-95011744D01*
X261276101Y-94990843D01*
X261284731Y-94962394D01*
X261291895Y-94960221D01*
X261399144Y-94902895D01*
X261493149Y-94825748D01*
X261570296Y-94731743D01*
X261627622Y-94624494D01*
X261662923Y-94508122D01*
X261674843Y-94387099D01*
X261674843Y-93912099D01*
X261662923Y-93791076D01*
X261627622Y-93674704D01*
X261570296Y-93567455D01*
X261493149Y-93473450D01*
X261399144Y-93396303D01*
X261291895Y-93338977D01*
X261175523Y-93303676D01*
X261054500Y-93291756D01*
X260554500Y-93291756D01*
X260433477Y-93303676D01*
X260317105Y-93338977D01*
X260209856Y-93396303D01*
X260115851Y-93473450D01*
X260038704Y-93567455D01*
X259981378Y-93674704D01*
X259946077Y-93791076D01*
X259934157Y-93912099D01*
X259934157Y-94387099D01*
X259946077Y-94508122D01*
X259981378Y-94624494D01*
X260038704Y-94731743D01*
X260047122Y-94742000D01*
X259736878Y-94742000D01*
X259745296Y-94731743D01*
X259802622Y-94624494D01*
X259837923Y-94508122D01*
X259849843Y-94387099D01*
X259849843Y-93912099D01*
X259837923Y-93791076D01*
X259802622Y-93674704D01*
X259745296Y-93567455D01*
X259668149Y-93473450D01*
X259574144Y-93396303D01*
X259466895Y-93338977D01*
X259350523Y-93303676D01*
X259229500Y-93291756D01*
X258729500Y-93291756D01*
X258608477Y-93303676D01*
X258492105Y-93338977D01*
X258384856Y-93396303D01*
X258290851Y-93473450D01*
X258213704Y-93567455D01*
X258174073Y-93641599D01*
X254500020Y-93641599D01*
X248031000Y-87172580D01*
X248031000Y-86858640D01*
X248322031Y-86567610D01*
X259458190Y-86567610D01*
X259973149Y-87082570D01*
G04 #@! TA.AperFunction,Conductor*
D17*
G36*
X259973149Y-87082570D02*
G01*
X259989052Y-87101948D01*
X260008429Y-87117850D01*
X260066404Y-87165429D01*
X260079596Y-87172480D01*
X260154657Y-87212601D01*
X260250415Y-87241649D01*
X260325053Y-87249000D01*
X260325056Y-87249000D01*
X260329116Y-87249400D01*
X258279857Y-87249400D01*
X258277779Y-87249009D01*
X258239970Y-87249400D01*
X258222059Y-87249400D01*
X258219958Y-87249607D01*
X258197809Y-87249836D01*
X258180255Y-87253517D01*
X258162410Y-87255275D01*
X258141210Y-87261706D01*
X258119537Y-87266251D01*
X258103049Y-87273282D01*
X258085879Y-87278490D01*
X258066333Y-87288938D01*
X258045971Y-87297620D01*
X258031174Y-87307731D01*
X258015347Y-87316190D01*
X257998216Y-87330249D01*
X257979938Y-87342738D01*
X257967394Y-87355544D01*
X257953526Y-87366926D01*
X257939467Y-87384056D01*
X257923976Y-87399872D01*
X257914173Y-87414876D01*
X257902790Y-87428747D01*
X257892344Y-87448290D01*
X257880235Y-87466825D01*
X257873546Y-87483459D01*
X257865090Y-87499279D01*
X257858659Y-87520479D01*
X257850397Y-87541025D01*
X257847082Y-87558646D01*
X257841875Y-87575810D01*
X257839703Y-87597861D01*
X257835609Y-87619621D01*
X257835794Y-87637547D01*
X257834036Y-87655400D01*
X257836207Y-87677442D01*
X257836436Y-87699591D01*
X257840117Y-87717145D01*
X257841875Y-87734990D01*
X257848306Y-87756190D01*
X257852851Y-87777863D01*
X257859882Y-87794351D01*
X257865090Y-87811521D01*
X257875538Y-87831067D01*
X257884220Y-87851429D01*
X257894331Y-87866227D01*
X257902790Y-87882053D01*
X257916849Y-87899184D01*
X257918034Y-87900918D01*
X257929468Y-87914560D01*
X257953526Y-87943874D01*
X257955167Y-87945221D01*
X274999554Y-108280600D01*
X237077856Y-108280600D01*
X237843446Y-107515010D01*
X249417590Y-107515010D01*
X249686145Y-107783565D01*
X249702052Y-107802948D01*
X249779405Y-107866429D01*
X249867657Y-107913601D01*
X249963415Y-107942649D01*
X250038053Y-107950000D01*
X250038056Y-107950000D01*
X250063000Y-107952457D01*
X250087944Y-107950000D01*
X250228499Y-107950000D01*
X250327141Y-108048642D01*
X250455058Y-108134113D01*
X250597191Y-108192987D01*
X250748078Y-108223000D01*
X250901922Y-108223000D01*
X251052809Y-108192987D01*
X251194942Y-108134113D01*
X251322859Y-108048642D01*
X251428444Y-107943057D01*
X251432585Y-107942649D01*
X251528343Y-107913601D01*
X251616595Y-107866429D01*
X251693948Y-107802948D01*
X251709855Y-107783565D01*
X252447146Y-107046274D01*
X252466524Y-107030372D01*
X252515742Y-106970399D01*
X252530005Y-106953020D01*
X252577176Y-106864769D01*
X252584612Y-106840257D01*
X252606225Y-106769009D01*
X252613576Y-106694371D01*
X252613576Y-106694369D01*
X252616033Y-106669425D01*
X252613576Y-106644481D01*
X252613576Y-100021844D01*
X256877420Y-95758000D01*
X260325056Y-95758000D01*
X260350000Y-95760457D01*
X260374944Y-95758000D01*
X260374947Y-95758000D01*
X260449585Y-95750649D01*
X260545343Y-95721601D01*
X260633595Y-95674429D01*
X260710948Y-95610948D01*
X260726855Y-95591566D01*
X261146070Y-95172351D01*
X261165448Y-95156448D01*
X261211899Y-95099847D01*
X261228929Y-95079096D01*
X261264929Y-95011744D01*
X261276101Y-94990843D01*
X261284731Y-94962394D01*
X261291895Y-94960221D01*
X261399144Y-94902895D01*
X261493149Y-94825748D01*
X261570296Y-94731743D01*
X261627622Y-94624494D01*
X261662923Y-94508122D01*
X261674843Y-94387099D01*
X261674843Y-93912099D01*
X261662923Y-93791076D01*
X261627622Y-93674704D01*
X261570296Y-93567455D01*
X261493149Y-93473450D01*
X261399144Y-93396303D01*
X261291895Y-93338977D01*
X261175523Y-93303676D01*
X261054500Y-93291756D01*
X260554500Y-93291756D01*
X260433477Y-93303676D01*
X260317105Y-93338977D01*
X260209856Y-93396303D01*
X260115851Y-93473450D01*
X260038704Y-93567455D01*
X259981378Y-93674704D01*
X259946077Y-93791076D01*
X259934157Y-93912099D01*
X259934157Y-94387099D01*
X259946077Y-94508122D01*
X259981378Y-94624494D01*
X260038704Y-94731743D01*
X260047122Y-94742000D01*
X259736878Y-94742000D01*
X259745296Y-94731743D01*
X259802622Y-94624494D01*
X259837923Y-94508122D01*
X259849843Y-94387099D01*
X259849843Y-93912099D01*
X259837923Y-93791076D01*
X259802622Y-93674704D01*
X259745296Y-93567455D01*
X259668149Y-93473450D01*
X259574144Y-93396303D01*
X259466895Y-93338977D01*
X259350523Y-93303676D01*
X259229500Y-93291756D01*
X258729500Y-93291756D01*
X258608477Y-93303676D01*
X258492105Y-93338977D01*
X258384856Y-93396303D01*
X258290851Y-93473450D01*
X258213704Y-93567455D01*
X258174073Y-93641599D01*
X254500020Y-93641599D01*
X248031000Y-87172580D01*
X248031000Y-86858640D01*
X248322031Y-86567610D01*
X259458190Y-86567610D01*
X259973149Y-87082570D01*
G37*
G04 #@! TD.AperFunction*
D16*
X235013168Y-78902643D02*
X235091664Y-78944600D01*
X235013168Y-78986557D01*
X234932423Y-79052823D01*
X234866157Y-79133568D01*
X234816917Y-79225690D01*
X234786595Y-79325647D01*
X234776357Y-79429600D01*
X234776357Y-79729600D01*
X234786595Y-79833553D01*
X234816917Y-79933510D01*
X234866157Y-80025632D01*
X234932423Y-80106377D01*
X235013168Y-80172643D01*
X235091664Y-80214600D01*
X235013168Y-80256557D01*
X234932423Y-80322823D01*
X234866157Y-80403568D01*
X234816917Y-80495690D01*
X234786595Y-80595647D01*
X234776357Y-80699600D01*
X234776357Y-80999600D01*
X234786595Y-81103553D01*
X234816917Y-81203510D01*
X234866157Y-81295632D01*
X234932423Y-81376377D01*
X235013168Y-81442643D01*
X235105290Y-81491883D01*
X235205247Y-81522205D01*
X235309200Y-81532443D01*
X236609200Y-81532443D01*
X236713153Y-81522205D01*
X236813110Y-81491883D01*
X236905232Y-81442643D01*
X236985977Y-81376377D01*
X237001387Y-81357600D01*
X238852980Y-81357600D01*
X246243045Y-88747665D01*
X246258952Y-88767048D01*
X246278335Y-88782955D01*
X246621573Y-89126193D01*
X246621579Y-89126198D01*
X250571000Y-93075618D01*
X250571001Y-95928579D01*
X250495491Y-96004089D01*
X250476108Y-96019996D01*
X250412627Y-96097349D01*
X250365455Y-96185602D01*
X250336407Y-96281360D01*
X250331796Y-96328179D01*
X250326599Y-96380944D01*
X250329056Y-96405889D01*
X250329057Y-97785546D01*
X250326599Y-97810500D01*
X250332335Y-97868729D01*
X250336408Y-97910085D01*
X250365456Y-98005843D01*
X250412627Y-98094095D01*
X250455268Y-98146053D01*
X250476109Y-98171448D01*
X250495486Y-98187350D01*
X250689556Y-98381421D01*
X250689557Y-104429134D01*
X250495486Y-104623206D01*
X250476109Y-104639108D01*
X250460207Y-104658485D01*
X250460206Y-104658486D01*
X250412627Y-104716461D01*
X250375427Y-104786058D01*
X250365456Y-104804713D01*
X250356927Y-104832831D01*
X250336408Y-104900472D01*
X250334155Y-104923344D01*
X250230414Y-105027085D01*
X250144943Y-105155002D01*
X250086069Y-105297135D01*
X250056056Y-105448022D01*
X250056056Y-105601866D01*
X250086069Y-105752753D01*
X250144943Y-105894886D01*
X250230414Y-106022803D01*
X250252611Y-106045000D01*
X237469913Y-106045000D01*
X237444969Y-106042543D01*
X237420025Y-106045000D01*
X237420022Y-106045000D01*
X237345384Y-106052351D01*
X237249626Y-106081399D01*
X237241039Y-106085989D01*
X237161373Y-106128571D01*
X237156731Y-106132381D01*
X237084021Y-106192052D01*
X237068114Y-106211435D01*
X236094201Y-107185348D01*
X236094201Y-103688819D01*
X236521920Y-103261101D01*
X237200358Y-103261101D01*
X237200358Y-103753101D01*
X237207714Y-103827790D01*
X237229500Y-103899609D01*
X237264879Y-103965797D01*
X237312490Y-104023812D01*
X237370505Y-104071423D01*
X237436693Y-104106802D01*
X237508512Y-104128588D01*
X237583201Y-104135944D01*
X239583201Y-104135944D01*
X239657890Y-104128588D01*
X239729709Y-104106802D01*
X239795897Y-104071423D01*
X239853912Y-104023812D01*
X239901523Y-103965797D01*
X239936902Y-103899609D01*
X239958688Y-103827790D01*
X239966044Y-103753101D01*
X239966044Y-101753101D01*
X239958688Y-101678412D01*
X239936902Y-101606593D01*
X239901523Y-101540405D01*
X239853912Y-101482390D01*
X239795897Y-101434779D01*
X239729709Y-101399400D01*
X239657890Y-101377614D01*
X239583201Y-101370258D01*
X237583201Y-101370258D01*
X237508512Y-101377614D01*
X237436693Y-101399400D01*
X237370505Y-101434779D01*
X237312490Y-101482390D01*
X237264879Y-101540405D01*
X237229500Y-101606593D01*
X237207714Y-101678412D01*
X237200358Y-101753101D01*
X237200358Y-102245101D01*
X236336442Y-102245101D01*
X236311498Y-102242644D01*
X236286554Y-102245101D01*
X236286552Y-102245101D01*
X236211914Y-102252452D01*
X236116156Y-102281500D01*
X236116154Y-102281501D01*
X236027903Y-102328672D01*
X235975807Y-102371426D01*
X235950551Y-102392153D01*
X235934649Y-102411531D01*
X235244636Y-103101544D01*
X235225253Y-103117451D01*
X235161772Y-103194804D01*
X235117200Y-103278193D01*
X235117200Y-99930944D01*
X235259200Y-99930944D01*
X235333889Y-99923588D01*
X235405708Y-99901802D01*
X235471896Y-99866423D01*
X235529911Y-99818812D01*
X235577522Y-99760797D01*
X235612901Y-99694609D01*
X235634687Y-99622790D01*
X235642043Y-99548101D01*
X235642043Y-99281101D01*
X236002081Y-99281101D01*
X236877813Y-100156833D01*
X236893720Y-100176216D01*
X236971073Y-100239697D01*
X237059325Y-100286869D01*
X237155083Y-100315917D01*
X237229721Y-100323268D01*
X237229724Y-100323268D01*
X237254668Y-100325725D01*
X237279612Y-100323268D01*
X243518206Y-100323268D01*
X243557837Y-100397412D01*
X243634984Y-100491417D01*
X243728989Y-100568564D01*
X243836238Y-100625890D01*
X243952610Y-100661191D01*
X244073633Y-100673111D01*
X244573633Y-100673111D01*
X244694656Y-100661191D01*
X244811028Y-100625890D01*
X244918277Y-100568564D01*
X245012282Y-100491417D01*
X245046084Y-100450229D01*
X245071631Y-100534448D01*
X245130596Y-100644762D01*
X245209948Y-100741453D01*
X245306639Y-100820805D01*
X245416953Y-100879770D01*
X245536651Y-100916080D01*
X245661133Y-100928340D01*
X245862883Y-100925268D01*
X246021633Y-100766518D01*
X246021633Y-99942268D01*
X246275633Y-99942268D01*
X246275633Y-100766518D01*
X246434383Y-100925268D01*
X246636133Y-100928340D01*
X246760615Y-100916080D01*
X246880313Y-100879770D01*
X246990627Y-100820805D01*
X247087318Y-100741453D01*
X247166670Y-100644762D01*
X247225635Y-100534448D01*
X247261945Y-100414750D01*
X247274205Y-100290268D01*
X247271133Y-100101018D01*
X247112383Y-99942268D01*
X246275633Y-99942268D01*
X246021633Y-99942268D01*
X246001633Y-99942268D01*
X246001633Y-99688268D01*
X246021633Y-99688268D01*
X246021633Y-98864018D01*
X246275633Y-98864018D01*
X246275633Y-99688268D01*
X247112383Y-99688268D01*
X247271133Y-99529518D01*
X247274205Y-99340268D01*
X247261945Y-99215786D01*
X247225635Y-99096088D01*
X247166670Y-98985774D01*
X247087318Y-98889083D01*
X246990627Y-98809731D01*
X246880313Y-98750766D01*
X246760615Y-98714456D01*
X246636133Y-98702196D01*
X246434383Y-98705268D01*
X246275633Y-98864018D01*
X246021633Y-98864018D01*
X245862883Y-98705268D01*
X245661133Y-98702196D01*
X245536651Y-98714456D01*
X245416953Y-98750766D01*
X245306639Y-98809731D01*
X245209948Y-98889083D01*
X245130596Y-98985774D01*
X245071631Y-99096088D01*
X245046084Y-99180307D01*
X245012282Y-99139119D01*
X244918277Y-99061972D01*
X244811028Y-99004646D01*
X244694656Y-98969345D01*
X244573633Y-98957425D01*
X244073633Y-98957425D01*
X243952610Y-98969345D01*
X243836238Y-99004646D01*
X243728989Y-99061972D01*
X243634984Y-99139119D01*
X243557837Y-99233124D01*
X243518206Y-99307268D01*
X237465088Y-99307268D01*
X236589356Y-98431536D01*
X236573449Y-98412153D01*
X236496096Y-98348672D01*
X236407844Y-98301500D01*
X236312086Y-98272452D01*
X236237448Y-98265101D01*
X236237445Y-98265101D01*
X236212501Y-98262644D01*
X236187557Y-98265101D01*
X235642043Y-98265101D01*
X235642043Y-97998101D01*
X235634687Y-97923412D01*
X235612901Y-97851593D01*
X235577522Y-97785405D01*
X235529911Y-97727390D01*
X235471896Y-97679779D01*
X235405708Y-97644400D01*
X235333889Y-97622614D01*
X235259200Y-97615258D01*
X233959200Y-97615258D01*
X233884511Y-97622614D01*
X233812692Y-97644400D01*
X233746504Y-97679779D01*
X233688489Y-97727390D01*
X233640878Y-97785405D01*
X233605499Y-97851593D01*
X233583713Y-97923412D01*
X233576357Y-97998101D01*
X233576357Y-98265101D01*
X232460522Y-98265101D01*
X227603020Y-93407600D01*
X227603020Y-87694400D01*
X228015321Y-87282100D01*
X228154822Y-87282100D01*
X228305709Y-87252087D01*
X228447842Y-87193213D01*
X228575759Y-87107742D01*
X228684542Y-86998959D01*
X228770013Y-86871042D01*
X228828887Y-86728909D01*
X228858900Y-86578022D01*
X228858900Y-86424178D01*
X228828887Y-86273291D01*
X228770013Y-86131158D01*
X228684542Y-86003241D01*
X228575759Y-85894458D01*
X228447842Y-85808987D01*
X228305709Y-85750113D01*
X228154822Y-85720100D01*
X228000978Y-85720100D01*
X227982633Y-85723749D01*
X232624565Y-81081817D01*
X232643948Y-81065910D01*
X232707429Y-80988557D01*
X232754601Y-80900305D01*
X232783649Y-80804547D01*
X232791000Y-80729909D01*
X232791000Y-80729906D01*
X232793457Y-80704962D01*
X232791000Y-80680018D01*
X232791000Y-78955501D01*
X232801141Y-78965642D01*
X232929058Y-79051113D01*
X233071191Y-79109987D01*
X233222078Y-79140000D01*
X233375922Y-79140000D01*
X233526809Y-79109987D01*
X233668942Y-79051113D01*
X233796859Y-78965642D01*
X233895501Y-78867000D01*
X234969737Y-78867000D01*
X235013168Y-78902643D01*
G04 #@! TA.AperFunction,Conductor*
D17*
G36*
X235013168Y-78902643D02*
G01*
X235091664Y-78944600D01*
X235013168Y-78986557D01*
X234932423Y-79052823D01*
X234866157Y-79133568D01*
X234816917Y-79225690D01*
X234786595Y-79325647D01*
X234776357Y-79429600D01*
X234776357Y-79729600D01*
X234786595Y-79833553D01*
X234816917Y-79933510D01*
X234866157Y-80025632D01*
X234932423Y-80106377D01*
X235013168Y-80172643D01*
X235091664Y-80214600D01*
X235013168Y-80256557D01*
X234932423Y-80322823D01*
X234866157Y-80403568D01*
X234816917Y-80495690D01*
X234786595Y-80595647D01*
X234776357Y-80699600D01*
X234776357Y-80999600D01*
X234786595Y-81103553D01*
X234816917Y-81203510D01*
X234866157Y-81295632D01*
X234932423Y-81376377D01*
X235013168Y-81442643D01*
X235105290Y-81491883D01*
X235205247Y-81522205D01*
X235309200Y-81532443D01*
X236609200Y-81532443D01*
X236713153Y-81522205D01*
X236813110Y-81491883D01*
X236905232Y-81442643D01*
X236985977Y-81376377D01*
X237001387Y-81357600D01*
X238852980Y-81357600D01*
X246243045Y-88747665D01*
X246258952Y-88767048D01*
X246278335Y-88782955D01*
X246621573Y-89126193D01*
X246621579Y-89126198D01*
X250571000Y-93075618D01*
X250571001Y-95928579D01*
X250495491Y-96004089D01*
X250476108Y-96019996D01*
X250412627Y-96097349D01*
X250365455Y-96185602D01*
X250336407Y-96281360D01*
X250331796Y-96328179D01*
X250326599Y-96380944D01*
X250329056Y-96405889D01*
X250329057Y-97785546D01*
X250326599Y-97810500D01*
X250332335Y-97868729D01*
X250336408Y-97910085D01*
X250365456Y-98005843D01*
X250412627Y-98094095D01*
X250455268Y-98146053D01*
X250476109Y-98171448D01*
X250495486Y-98187350D01*
X250689556Y-98381421D01*
X250689557Y-104429134D01*
X250495486Y-104623206D01*
X250476109Y-104639108D01*
X250460207Y-104658485D01*
X250460206Y-104658486D01*
X250412627Y-104716461D01*
X250375427Y-104786058D01*
X250365456Y-104804713D01*
X250356927Y-104832831D01*
X250336408Y-104900472D01*
X250334155Y-104923344D01*
X250230414Y-105027085D01*
X250144943Y-105155002D01*
X250086069Y-105297135D01*
X250056056Y-105448022D01*
X250056056Y-105601866D01*
X250086069Y-105752753D01*
X250144943Y-105894886D01*
X250230414Y-106022803D01*
X250252611Y-106045000D01*
X237469913Y-106045000D01*
X237444969Y-106042543D01*
X237420025Y-106045000D01*
X237420022Y-106045000D01*
X237345384Y-106052351D01*
X237249626Y-106081399D01*
X237241039Y-106085989D01*
X237161373Y-106128571D01*
X237156731Y-106132381D01*
X237084021Y-106192052D01*
X237068114Y-106211435D01*
X236094201Y-107185348D01*
X236094201Y-103688819D01*
X236521920Y-103261101D01*
X237200358Y-103261101D01*
X237200358Y-103753101D01*
X237207714Y-103827790D01*
X237229500Y-103899609D01*
X237264879Y-103965797D01*
X237312490Y-104023812D01*
X237370505Y-104071423D01*
X237436693Y-104106802D01*
X237508512Y-104128588D01*
X237583201Y-104135944D01*
X239583201Y-104135944D01*
X239657890Y-104128588D01*
X239729709Y-104106802D01*
X239795897Y-104071423D01*
X239853912Y-104023812D01*
X239901523Y-103965797D01*
X239936902Y-103899609D01*
X239958688Y-103827790D01*
X239966044Y-103753101D01*
X239966044Y-101753101D01*
X239958688Y-101678412D01*
X239936902Y-101606593D01*
X239901523Y-101540405D01*
X239853912Y-101482390D01*
X239795897Y-101434779D01*
X239729709Y-101399400D01*
X239657890Y-101377614D01*
X239583201Y-101370258D01*
X237583201Y-101370258D01*
X237508512Y-101377614D01*
X237436693Y-101399400D01*
X237370505Y-101434779D01*
X237312490Y-101482390D01*
X237264879Y-101540405D01*
X237229500Y-101606593D01*
X237207714Y-101678412D01*
X237200358Y-101753101D01*
X237200358Y-102245101D01*
X236336442Y-102245101D01*
X236311498Y-102242644D01*
X236286554Y-102245101D01*
X236286552Y-102245101D01*
X236211914Y-102252452D01*
X236116156Y-102281500D01*
X236116154Y-102281501D01*
X236027903Y-102328672D01*
X235975807Y-102371426D01*
X235950551Y-102392153D01*
X235934649Y-102411531D01*
X235244636Y-103101544D01*
X235225253Y-103117451D01*
X235161772Y-103194804D01*
X235117200Y-103278193D01*
X235117200Y-99930944D01*
X235259200Y-99930944D01*
X235333889Y-99923588D01*
X235405708Y-99901802D01*
X235471896Y-99866423D01*
X235529911Y-99818812D01*
X235577522Y-99760797D01*
X235612901Y-99694609D01*
X235634687Y-99622790D01*
X235642043Y-99548101D01*
X235642043Y-99281101D01*
X236002081Y-99281101D01*
X236877813Y-100156833D01*
X236893720Y-100176216D01*
X236971073Y-100239697D01*
X237059325Y-100286869D01*
X237155083Y-100315917D01*
X237229721Y-100323268D01*
X237229724Y-100323268D01*
X237254668Y-100325725D01*
X237279612Y-100323268D01*
X243518206Y-100323268D01*
X243557837Y-100397412D01*
X243634984Y-100491417D01*
X243728989Y-100568564D01*
X243836238Y-100625890D01*
X243952610Y-100661191D01*
X244073633Y-100673111D01*
X244573633Y-100673111D01*
X244694656Y-100661191D01*
X244811028Y-100625890D01*
X244918277Y-100568564D01*
X245012282Y-100491417D01*
X245046084Y-100450229D01*
X245071631Y-100534448D01*
X245130596Y-100644762D01*
X245209948Y-100741453D01*
X245306639Y-100820805D01*
X245416953Y-100879770D01*
X245536651Y-100916080D01*
X245661133Y-100928340D01*
X245862883Y-100925268D01*
X246021633Y-100766518D01*
X246021633Y-99942268D01*
X246275633Y-99942268D01*
X246275633Y-100766518D01*
X246434383Y-100925268D01*
X246636133Y-100928340D01*
X246760615Y-100916080D01*
X246880313Y-100879770D01*
X246990627Y-100820805D01*
X247087318Y-100741453D01*
X247166670Y-100644762D01*
X247225635Y-100534448D01*
X247261945Y-100414750D01*
X247274205Y-100290268D01*
X247271133Y-100101018D01*
X247112383Y-99942268D01*
X246275633Y-99942268D01*
X246021633Y-99942268D01*
X246001633Y-99942268D01*
X246001633Y-99688268D01*
X246021633Y-99688268D01*
X246021633Y-98864018D01*
X246275633Y-98864018D01*
X246275633Y-99688268D01*
X247112383Y-99688268D01*
X247271133Y-99529518D01*
X247274205Y-99340268D01*
X247261945Y-99215786D01*
X247225635Y-99096088D01*
X247166670Y-98985774D01*
X247087318Y-98889083D01*
X246990627Y-98809731D01*
X246880313Y-98750766D01*
X246760615Y-98714456D01*
X246636133Y-98702196D01*
X246434383Y-98705268D01*
X246275633Y-98864018D01*
X246021633Y-98864018D01*
X245862883Y-98705268D01*
X245661133Y-98702196D01*
X245536651Y-98714456D01*
X245416953Y-98750766D01*
X245306639Y-98809731D01*
X245209948Y-98889083D01*
X245130596Y-98985774D01*
X245071631Y-99096088D01*
X245046084Y-99180307D01*
X245012282Y-99139119D01*
X244918277Y-99061972D01*
X244811028Y-99004646D01*
X244694656Y-98969345D01*
X244573633Y-98957425D01*
X244073633Y-98957425D01*
X243952610Y-98969345D01*
X243836238Y-99004646D01*
X243728989Y-99061972D01*
X243634984Y-99139119D01*
X243557837Y-99233124D01*
X243518206Y-99307268D01*
X237465088Y-99307268D01*
X236589356Y-98431536D01*
X236573449Y-98412153D01*
X236496096Y-98348672D01*
X236407844Y-98301500D01*
X236312086Y-98272452D01*
X236237448Y-98265101D01*
X236237445Y-98265101D01*
X236212501Y-98262644D01*
X236187557Y-98265101D01*
X235642043Y-98265101D01*
X235642043Y-97998101D01*
X235634687Y-97923412D01*
X235612901Y-97851593D01*
X235577522Y-97785405D01*
X235529911Y-97727390D01*
X235471896Y-97679779D01*
X235405708Y-97644400D01*
X235333889Y-97622614D01*
X235259200Y-97615258D01*
X233959200Y-97615258D01*
X233884511Y-97622614D01*
X233812692Y-97644400D01*
X233746504Y-97679779D01*
X233688489Y-97727390D01*
X233640878Y-97785405D01*
X233605499Y-97851593D01*
X233583713Y-97923412D01*
X233576357Y-97998101D01*
X233576357Y-98265101D01*
X232460522Y-98265101D01*
X227603020Y-93407600D01*
X227603020Y-87694400D01*
X228015321Y-87282100D01*
X228154822Y-87282100D01*
X228305709Y-87252087D01*
X228447842Y-87193213D01*
X228575759Y-87107742D01*
X228684542Y-86998959D01*
X228770013Y-86871042D01*
X228828887Y-86728909D01*
X228858900Y-86578022D01*
X228858900Y-86424178D01*
X228828887Y-86273291D01*
X228770013Y-86131158D01*
X228684542Y-86003241D01*
X228575759Y-85894458D01*
X228447842Y-85808987D01*
X228305709Y-85750113D01*
X228154822Y-85720100D01*
X228000978Y-85720100D01*
X227982633Y-85723749D01*
X232624565Y-81081817D01*
X232643948Y-81065910D01*
X232707429Y-80988557D01*
X232754601Y-80900305D01*
X232783649Y-80804547D01*
X232791000Y-80729909D01*
X232791000Y-80729906D01*
X232793457Y-80704962D01*
X232791000Y-80680018D01*
X232791000Y-78955501D01*
X232801141Y-78965642D01*
X232929058Y-79051113D01*
X233071191Y-79109987D01*
X233222078Y-79140000D01*
X233375922Y-79140000D01*
X233526809Y-79109987D01*
X233668942Y-79051113D01*
X233796859Y-78965642D01*
X233895501Y-78867000D01*
X234969737Y-78867000D01*
X235013168Y-78902643D01*
G37*
G04 #@! TD.AperFunction*
D16*
X229601201Y-97484688D02*
X229601201Y-97615258D01*
X229459200Y-97615258D01*
X229384511Y-97622614D01*
X229312692Y-97644400D01*
X229246504Y-97679779D01*
X229188489Y-97727390D01*
X229140878Y-97785405D01*
X229105499Y-97851593D01*
X229083713Y-97923412D01*
X229076357Y-97998101D01*
X229076357Y-99548101D01*
X229083713Y-99622790D01*
X229105499Y-99694609D01*
X229140878Y-99760797D01*
X229188489Y-99818812D01*
X229246504Y-99866423D01*
X229312692Y-99901802D01*
X229384511Y-99923588D01*
X229459200Y-99930944D01*
X229601201Y-99930944D01*
X229601200Y-104574299D01*
X229517358Y-104658141D01*
X229431887Y-104786058D01*
X229373013Y-104928191D01*
X229343000Y-105079078D01*
X229343000Y-105232922D01*
X229373013Y-105383809D01*
X229431887Y-105525942D01*
X229464839Y-105575258D01*
X229459200Y-105575258D01*
X229384511Y-105582614D01*
X229312692Y-105604400D01*
X229246504Y-105639779D01*
X229188489Y-105687390D01*
X229140878Y-105745405D01*
X229105499Y-105811593D01*
X229083713Y-105883412D01*
X229076357Y-105958101D01*
X229076357Y-107138091D01*
X227172232Y-105233967D01*
X227156325Y-105214584D01*
X227078972Y-105151103D01*
X226990720Y-105103931D01*
X226894962Y-105074883D01*
X226820324Y-105067532D01*
X226820321Y-105067532D01*
X226795377Y-105065075D01*
X226770433Y-105067532D01*
X223514953Y-105067532D01*
X222335935Y-103888514D01*
X224927393Y-103888514D01*
X225023157Y-104152915D01*
X225312772Y-104293805D01*
X225624309Y-104375485D01*
X225945796Y-104394819D01*
X226264876Y-104351062D01*
X226569289Y-104245896D01*
X226743245Y-104152915D01*
X226839009Y-103888514D01*
X225883201Y-102932706D01*
X224927393Y-103888514D01*
X222335935Y-103888514D01*
X221316768Y-102869348D01*
X221316768Y-102815696D01*
X224241483Y-102815696D01*
X224285240Y-103134776D01*
X224390406Y-103439189D01*
X224483387Y-103613145D01*
X224747788Y-103708909D01*
X225703596Y-102753101D01*
X226062806Y-102753101D01*
X227018614Y-103708909D01*
X227283015Y-103613145D01*
X227423905Y-103323530D01*
X227505585Y-103011993D01*
X227524919Y-102690506D01*
X227481162Y-102371426D01*
X227375996Y-102067013D01*
X227283015Y-101893057D01*
X227018614Y-101797293D01*
X226062806Y-102753101D01*
X225703596Y-102753101D01*
X224747788Y-101797293D01*
X224483387Y-101893057D01*
X224342497Y-102182672D01*
X224260817Y-102494209D01*
X224241483Y-102815696D01*
X221316768Y-102815696D01*
X221316768Y-101617688D01*
X224927393Y-101617688D01*
X225883201Y-102573496D01*
X226839009Y-101617688D01*
X226743245Y-101353287D01*
X226453630Y-101212397D01*
X226142093Y-101130717D01*
X225820606Y-101111383D01*
X225501526Y-101155140D01*
X225197113Y-101260306D01*
X225023157Y-101353287D01*
X224927393Y-101617688D01*
X221316768Y-101617688D01*
X221316768Y-100614876D01*
X221403412Y-100568564D01*
X221497417Y-100491417D01*
X221574564Y-100397412D01*
X221631890Y-100290163D01*
X221646400Y-100242331D01*
X221651327Y-100239697D01*
X221728680Y-100176216D01*
X221744587Y-100156834D01*
X222188198Y-99713223D01*
X222207576Y-99697320D01*
X222226252Y-99674562D01*
X222271057Y-99619968D01*
X222318228Y-99531717D01*
X222318229Y-99531714D01*
X222347277Y-99435957D01*
X222354628Y-99361319D01*
X222354628Y-99361317D01*
X222357085Y-99336373D01*
X222354628Y-99311429D01*
X222354628Y-98867048D01*
X226528565Y-94693110D01*
X226547948Y-94677203D01*
X226611429Y-94599850D01*
X226647981Y-94531467D01*
X229601201Y-97484688D01*
G04 #@! TA.AperFunction,Conductor*
D17*
G36*
X229601201Y-97484688D02*
G01*
X229601201Y-97615258D01*
X229459200Y-97615258D01*
X229384511Y-97622614D01*
X229312692Y-97644400D01*
X229246504Y-97679779D01*
X229188489Y-97727390D01*
X229140878Y-97785405D01*
X229105499Y-97851593D01*
X229083713Y-97923412D01*
X229076357Y-97998101D01*
X229076357Y-99548101D01*
X229083713Y-99622790D01*
X229105499Y-99694609D01*
X229140878Y-99760797D01*
X229188489Y-99818812D01*
X229246504Y-99866423D01*
X229312692Y-99901802D01*
X229384511Y-99923588D01*
X229459200Y-99930944D01*
X229601201Y-99930944D01*
X229601200Y-104574299D01*
X229517358Y-104658141D01*
X229431887Y-104786058D01*
X229373013Y-104928191D01*
X229343000Y-105079078D01*
X229343000Y-105232922D01*
X229373013Y-105383809D01*
X229431887Y-105525942D01*
X229464839Y-105575258D01*
X229459200Y-105575258D01*
X229384511Y-105582614D01*
X229312692Y-105604400D01*
X229246504Y-105639779D01*
X229188489Y-105687390D01*
X229140878Y-105745405D01*
X229105499Y-105811593D01*
X229083713Y-105883412D01*
X229076357Y-105958101D01*
X229076357Y-107138091D01*
X227172232Y-105233967D01*
X227156325Y-105214584D01*
X227078972Y-105151103D01*
X226990720Y-105103931D01*
X226894962Y-105074883D01*
X226820324Y-105067532D01*
X226820321Y-105067532D01*
X226795377Y-105065075D01*
X226770433Y-105067532D01*
X223514953Y-105067532D01*
X222335935Y-103888514D01*
X224927393Y-103888514D01*
X225023157Y-104152915D01*
X225312772Y-104293805D01*
X225624309Y-104375485D01*
X225945796Y-104394819D01*
X226264876Y-104351062D01*
X226569289Y-104245896D01*
X226743245Y-104152915D01*
X226839009Y-103888514D01*
X225883201Y-102932706D01*
X224927393Y-103888514D01*
X222335935Y-103888514D01*
X221316768Y-102869348D01*
X221316768Y-102815696D01*
X224241483Y-102815696D01*
X224285240Y-103134776D01*
X224390406Y-103439189D01*
X224483387Y-103613145D01*
X224747788Y-103708909D01*
X225703596Y-102753101D01*
X226062806Y-102753101D01*
X227018614Y-103708909D01*
X227283015Y-103613145D01*
X227423905Y-103323530D01*
X227505585Y-103011993D01*
X227524919Y-102690506D01*
X227481162Y-102371426D01*
X227375996Y-102067013D01*
X227283015Y-101893057D01*
X227018614Y-101797293D01*
X226062806Y-102753101D01*
X225703596Y-102753101D01*
X224747788Y-101797293D01*
X224483387Y-101893057D01*
X224342497Y-102182672D01*
X224260817Y-102494209D01*
X224241483Y-102815696D01*
X221316768Y-102815696D01*
X221316768Y-101617688D01*
X224927393Y-101617688D01*
X225883201Y-102573496D01*
X226839009Y-101617688D01*
X226743245Y-101353287D01*
X226453630Y-101212397D01*
X226142093Y-101130717D01*
X225820606Y-101111383D01*
X225501526Y-101155140D01*
X225197113Y-101260306D01*
X225023157Y-101353287D01*
X224927393Y-101617688D01*
X221316768Y-101617688D01*
X221316768Y-100614876D01*
X221403412Y-100568564D01*
X221497417Y-100491417D01*
X221574564Y-100397412D01*
X221631890Y-100290163D01*
X221646400Y-100242331D01*
X221651327Y-100239697D01*
X221728680Y-100176216D01*
X221744587Y-100156834D01*
X222188198Y-99713223D01*
X222207576Y-99697320D01*
X222226252Y-99674562D01*
X222271057Y-99619968D01*
X222318228Y-99531717D01*
X222318229Y-99531714D01*
X222347277Y-99435957D01*
X222354628Y-99361319D01*
X222354628Y-99361317D01*
X222357085Y-99336373D01*
X222354628Y-99311429D01*
X222354628Y-98867048D01*
X226528565Y-94693110D01*
X226547948Y-94677203D01*
X226611429Y-94599850D01*
X226647981Y-94531467D01*
X229601201Y-97484688D01*
G37*
G04 #@! TD.AperFunction*
D16*
X252600116Y-93820602D02*
X252897796Y-94118283D01*
X252897802Y-94118288D01*
X252968567Y-94189053D01*
X252968566Y-96182824D01*
X252881922Y-96229137D01*
X252787917Y-96306284D01*
X252710770Y-96400289D01*
X252653444Y-96507538D01*
X252618143Y-96623910D01*
X252606223Y-96744933D01*
X252606223Y-97219933D01*
X252618143Y-97340956D01*
X252653444Y-97457328D01*
X252710770Y-97564577D01*
X252787917Y-97658582D01*
X252881922Y-97735729D01*
X252989171Y-97793055D01*
X253105543Y-97828356D01*
X253226566Y-97840276D01*
X253358304Y-97840276D01*
X252159566Y-99039014D01*
X252159566Y-97782041D01*
X252246210Y-97735729D01*
X252340215Y-97658582D01*
X252417362Y-97564577D01*
X252474688Y-97457328D01*
X252509989Y-97340956D01*
X252521909Y-97219933D01*
X252521909Y-96744933D01*
X252509989Y-96623910D01*
X252474688Y-96507538D01*
X252417362Y-96400289D01*
X252340215Y-96306284D01*
X252246210Y-96229137D01*
X252159566Y-96182825D01*
X252159566Y-93380052D01*
X252600116Y-93820602D01*
G04 #@! TA.AperFunction,Conductor*
D17*
G36*
X252600116Y-93820602D02*
G01*
X252897796Y-94118283D01*
X252897802Y-94118288D01*
X252968567Y-94189053D01*
X252968566Y-96182824D01*
X252881922Y-96229137D01*
X252787917Y-96306284D01*
X252710770Y-96400289D01*
X252653444Y-96507538D01*
X252618143Y-96623910D01*
X252606223Y-96744933D01*
X252606223Y-97219933D01*
X252618143Y-97340956D01*
X252653444Y-97457328D01*
X252710770Y-97564577D01*
X252787917Y-97658582D01*
X252881922Y-97735729D01*
X252989171Y-97793055D01*
X253105543Y-97828356D01*
X253226566Y-97840276D01*
X253358304Y-97840276D01*
X252159566Y-99039014D01*
X252159566Y-97782041D01*
X252246210Y-97735729D01*
X252340215Y-97658582D01*
X252417362Y-97564577D01*
X252474688Y-97457328D01*
X252509989Y-97340956D01*
X252521909Y-97219933D01*
X252521909Y-96744933D01*
X252509989Y-96623910D01*
X252474688Y-96507538D01*
X252417362Y-96400289D01*
X252340215Y-96306284D01*
X252246210Y-96229137D01*
X252159566Y-96182825D01*
X252159566Y-93380052D01*
X252600116Y-93820602D01*
G37*
G04 #@! TD.AperFunction*
D16*
X221505058Y-98279778D02*
X221485681Y-98295680D01*
X221469779Y-98315057D01*
X221469778Y-98315058D01*
X221422199Y-98373033D01*
X221375028Y-98461285D01*
X221345980Y-98557044D01*
X221336171Y-98656628D01*
X221338629Y-98681582D01*
X221338628Y-99027344D01*
X221296163Y-99004646D01*
X221179791Y-98969345D01*
X221058768Y-98957425D01*
X220558768Y-98957425D01*
X220437745Y-98969345D01*
X220321373Y-99004646D01*
X220306278Y-99012714D01*
X220306278Y-97498099D01*
X220371191Y-97524987D01*
X220522078Y-97555000D01*
X220675922Y-97555000D01*
X220826809Y-97524987D01*
X220968942Y-97466113D01*
X221096859Y-97380642D01*
X221195501Y-97282000D01*
X222502836Y-97282000D01*
X221505058Y-98279778D01*
G04 #@! TA.AperFunction,Conductor*
D17*
G36*
X221505058Y-98279778D02*
G01*
X221485681Y-98295680D01*
X221469779Y-98315057D01*
X221469778Y-98315058D01*
X221422199Y-98373033D01*
X221375028Y-98461285D01*
X221345980Y-98557044D01*
X221336171Y-98656628D01*
X221338629Y-98681582D01*
X221338628Y-99027344D01*
X221296163Y-99004646D01*
X221179791Y-98969345D01*
X221058768Y-98957425D01*
X220558768Y-98957425D01*
X220437745Y-98969345D01*
X220321373Y-99004646D01*
X220306278Y-99012714D01*
X220306278Y-97498099D01*
X220371191Y-97524987D01*
X220522078Y-97555000D01*
X220675922Y-97555000D01*
X220826809Y-97524987D01*
X220968942Y-97466113D01*
X221096859Y-97380642D01*
X221195501Y-97282000D01*
X222502836Y-97282000D01*
X221505058Y-98279778D01*
G37*
G04 #@! TD.AperFunction*
D16*
X254006003Y-94574028D02*
X254053175Y-94599242D01*
X254094256Y-94621200D01*
X254190014Y-94650248D01*
X254264652Y-94657599D01*
X254264654Y-94657599D01*
X254289598Y-94660056D01*
X254314542Y-94657599D01*
X258174073Y-94657599D01*
X258213704Y-94731743D01*
X258222122Y-94742000D01*
X256691944Y-94742000D01*
X256667000Y-94739543D01*
X256642056Y-94742000D01*
X256642053Y-94742000D01*
X256567415Y-94749351D01*
X256471657Y-94778399D01*
X256383405Y-94825571D01*
X256306052Y-94889052D01*
X256290145Y-94908435D01*
X254346909Y-96851671D01*
X254346909Y-96744933D01*
X254334989Y-96623910D01*
X254299688Y-96507538D01*
X254242362Y-96400289D01*
X254165215Y-96306284D01*
X254071210Y-96229137D01*
X253984566Y-96182825D01*
X253984566Y-94556435D01*
X254006003Y-94574028D01*
G04 #@! TA.AperFunction,Conductor*
D17*
G36*
X254006003Y-94574028D02*
G01*
X254053175Y-94599242D01*
X254094256Y-94621200D01*
X254190014Y-94650248D01*
X254264652Y-94657599D01*
X254264654Y-94657599D01*
X254289598Y-94660056D01*
X254314542Y-94657599D01*
X258174073Y-94657599D01*
X258213704Y-94731743D01*
X258222122Y-94742000D01*
X256691944Y-94742000D01*
X256667000Y-94739543D01*
X256642056Y-94742000D01*
X256642053Y-94742000D01*
X256567415Y-94749351D01*
X256471657Y-94778399D01*
X256383405Y-94825571D01*
X256306052Y-94889052D01*
X256290145Y-94908435D01*
X254346909Y-96851671D01*
X254346909Y-96744933D01*
X254334989Y-96623910D01*
X254299688Y-96507538D01*
X254242362Y-96400289D01*
X254165215Y-96306284D01*
X254071210Y-96229137D01*
X253984566Y-96182825D01*
X253984566Y-94556435D01*
X254006003Y-94574028D01*
G37*
G04 #@! TD.AperFunction*
D16*
X249370616Y-66299049D02*
X249352338Y-66311538D01*
X249339794Y-66324344D01*
X249325926Y-66335726D01*
X249311867Y-66352856D01*
X249296376Y-66368672D01*
X249286573Y-66383676D01*
X249275190Y-66397547D01*
X249264744Y-66417090D01*
X249252635Y-66435625D01*
X249245946Y-66452259D01*
X249237490Y-66468079D01*
X249231059Y-66489279D01*
X249222797Y-66509825D01*
X249219482Y-66527446D01*
X249214275Y-66544610D01*
X249212103Y-66566661D01*
X249208009Y-66588421D01*
X249208194Y-66606347D01*
X249206436Y-66624200D01*
X249208607Y-66646242D01*
X249208836Y-66668391D01*
X249212517Y-66685945D01*
X249214275Y-66703790D01*
X249220706Y-66724990D01*
X249225251Y-66746663D01*
X249232282Y-66763151D01*
X249237490Y-66780321D01*
X249247938Y-66799867D01*
X249256620Y-66820229D01*
X249266731Y-66835027D01*
X249275190Y-66850853D01*
X249289249Y-66867984D01*
X249290434Y-66869718D01*
X249301868Y-66883360D01*
X249325926Y-66912674D01*
X249327567Y-66914021D01*
X266371954Y-87249400D01*
X262275883Y-87249400D01*
X262279944Y-87249000D01*
X262279947Y-87249000D01*
X262354585Y-87241649D01*
X262450343Y-87212601D01*
X262538595Y-87165429D01*
X262615948Y-87101948D01*
X262631855Y-87082565D01*
X262936060Y-86778359D01*
X262955448Y-86762448D01*
X263018929Y-86685095D01*
X263066101Y-86596843D01*
X263095149Y-86501085D01*
X263102500Y-86426447D01*
X263102500Y-86426444D01*
X263103018Y-86421190D01*
X263119395Y-86416222D01*
X263226644Y-86358896D01*
X263320649Y-86281749D01*
X263397796Y-86187744D01*
X263455122Y-86080495D01*
X263490423Y-85964123D01*
X263502343Y-85843100D01*
X263502343Y-85368100D01*
X263490423Y-85247077D01*
X263455122Y-85130705D01*
X263397796Y-85023456D01*
X263320649Y-84929451D01*
X263226644Y-84852304D01*
X263119395Y-84794978D01*
X263104561Y-84790478D01*
X263100353Y-84747757D01*
X263095149Y-84694915D01*
X263066101Y-84599157D01*
X263018929Y-84510905D01*
X262955448Y-84433552D01*
X262936065Y-84417645D01*
X262504855Y-83986435D01*
X262488948Y-83967052D01*
X262411595Y-83903571D01*
X262323343Y-83856399D01*
X262227585Y-83827351D01*
X262152947Y-83820000D01*
X262152944Y-83820000D01*
X262128000Y-83817543D01*
X262103056Y-83820000D01*
X260374943Y-83820000D01*
X260349999Y-83817543D01*
X260325055Y-83820000D01*
X260325053Y-83820000D01*
X260250415Y-83827351D01*
X260154657Y-83856399D01*
X260154655Y-83856400D01*
X260066404Y-83903571D01*
X260011810Y-83948376D01*
X259989052Y-83967052D01*
X259973150Y-83986430D01*
X259315990Y-84643590D01*
X245502009Y-84643590D01*
X241344793Y-80486374D01*
X241344793Y-77208105D01*
X241347250Y-77183161D01*
X241343206Y-77142100D01*
X241337442Y-77083576D01*
X241308394Y-76987818D01*
X241261249Y-76899616D01*
X241261222Y-76899565D01*
X241213643Y-76841590D01*
X241197741Y-76822213D01*
X241178364Y-76806311D01*
X238306465Y-73934413D01*
X238290563Y-73915036D01*
X238259575Y-73889605D01*
X238213209Y-73851553D01*
X238144734Y-73814953D01*
X238124958Y-73804382D01*
X238029200Y-73775334D01*
X238011378Y-73773579D01*
X237929614Y-73765525D01*
X237904662Y-73767983D01*
X237444387Y-73767980D01*
X233852380Y-73767980D01*
X233752990Y-73668590D01*
X233752990Y-73529088D01*
X233722977Y-73378201D01*
X233664103Y-73236068D01*
X233578632Y-73108151D01*
X233479990Y-73009509D01*
X233479990Y-67320410D01*
X233859571Y-66940830D01*
X233878949Y-66924927D01*
X233899174Y-66900283D01*
X233942430Y-66847575D01*
X233989601Y-66759324D01*
X233992720Y-66749042D01*
X234018650Y-66663564D01*
X234026001Y-66588926D01*
X234026001Y-66588924D01*
X234028458Y-66563980D01*
X234026001Y-66539036D01*
X234026001Y-66294000D01*
X249376768Y-66294000D01*
X249370616Y-66299049D01*
G04 #@! TA.AperFunction,Conductor*
D17*
G36*
X249370616Y-66299049D02*
G01*
X249352338Y-66311538D01*
X249339794Y-66324344D01*
X249325926Y-66335726D01*
X249311867Y-66352856D01*
X249296376Y-66368672D01*
X249286573Y-66383676D01*
X249275190Y-66397547D01*
X249264744Y-66417090D01*
X249252635Y-66435625D01*
X249245946Y-66452259D01*
X249237490Y-66468079D01*
X249231059Y-66489279D01*
X249222797Y-66509825D01*
X249219482Y-66527446D01*
X249214275Y-66544610D01*
X249212103Y-66566661D01*
X249208009Y-66588421D01*
X249208194Y-66606347D01*
X249206436Y-66624200D01*
X249208607Y-66646242D01*
X249208836Y-66668391D01*
X249212517Y-66685945D01*
X249214275Y-66703790D01*
X249220706Y-66724990D01*
X249225251Y-66746663D01*
X249232282Y-66763151D01*
X249237490Y-66780321D01*
X249247938Y-66799867D01*
X249256620Y-66820229D01*
X249266731Y-66835027D01*
X249275190Y-66850853D01*
X249289249Y-66867984D01*
X249290434Y-66869718D01*
X249301868Y-66883360D01*
X249325926Y-66912674D01*
X249327567Y-66914021D01*
X266371954Y-87249400D01*
X262275883Y-87249400D01*
X262279944Y-87249000D01*
X262279947Y-87249000D01*
X262354585Y-87241649D01*
X262450343Y-87212601D01*
X262538595Y-87165429D01*
X262615948Y-87101948D01*
X262631855Y-87082565D01*
X262936060Y-86778359D01*
X262955448Y-86762448D01*
X263018929Y-86685095D01*
X263066101Y-86596843D01*
X263095149Y-86501085D01*
X263102500Y-86426447D01*
X263102500Y-86426444D01*
X263103018Y-86421190D01*
X263119395Y-86416222D01*
X263226644Y-86358896D01*
X263320649Y-86281749D01*
X263397796Y-86187744D01*
X263455122Y-86080495D01*
X263490423Y-85964123D01*
X263502343Y-85843100D01*
X263502343Y-85368100D01*
X263490423Y-85247077D01*
X263455122Y-85130705D01*
X263397796Y-85023456D01*
X263320649Y-84929451D01*
X263226644Y-84852304D01*
X263119395Y-84794978D01*
X263104561Y-84790478D01*
X263100353Y-84747757D01*
X263095149Y-84694915D01*
X263066101Y-84599157D01*
X263018929Y-84510905D01*
X262955448Y-84433552D01*
X262936065Y-84417645D01*
X262504855Y-83986435D01*
X262488948Y-83967052D01*
X262411595Y-83903571D01*
X262323343Y-83856399D01*
X262227585Y-83827351D01*
X262152947Y-83820000D01*
X262152944Y-83820000D01*
X262128000Y-83817543D01*
X262103056Y-83820000D01*
X260374943Y-83820000D01*
X260349999Y-83817543D01*
X260325055Y-83820000D01*
X260325053Y-83820000D01*
X260250415Y-83827351D01*
X260154657Y-83856399D01*
X260154655Y-83856400D01*
X260066404Y-83903571D01*
X260011810Y-83948376D01*
X259989052Y-83967052D01*
X259973150Y-83986430D01*
X259315990Y-84643590D01*
X245502009Y-84643590D01*
X241344793Y-80486374D01*
X241344793Y-77208105D01*
X241347250Y-77183161D01*
X241343206Y-77142100D01*
X241337442Y-77083576D01*
X241308394Y-76987818D01*
X241261249Y-76899616D01*
X241261222Y-76899565D01*
X241213643Y-76841590D01*
X241197741Y-76822213D01*
X241178364Y-76806311D01*
X238306465Y-73934413D01*
X238290563Y-73915036D01*
X238259575Y-73889605D01*
X238213209Y-73851553D01*
X238144734Y-73814953D01*
X238124958Y-73804382D01*
X238029200Y-73775334D01*
X238011378Y-73773579D01*
X237929614Y-73765525D01*
X237904662Y-73767983D01*
X237444387Y-73767980D01*
X233852380Y-73767980D01*
X233752990Y-73668590D01*
X233752990Y-73529088D01*
X233722977Y-73378201D01*
X233664103Y-73236068D01*
X233578632Y-73108151D01*
X233479990Y-73009509D01*
X233479990Y-67320410D01*
X233859571Y-66940830D01*
X233878949Y-66924927D01*
X233899174Y-66900283D01*
X233942430Y-66847575D01*
X233989601Y-66759324D01*
X233992720Y-66749042D01*
X234018650Y-66663564D01*
X234026001Y-66588926D01*
X234026001Y-66588924D01*
X234028458Y-66563980D01*
X234026001Y-66539036D01*
X234026001Y-66294000D01*
X249376768Y-66294000D01*
X249370616Y-66299049D01*
G37*
G04 #@! TD.AperFunction*
D16*
X232331335Y-74988745D02*
X231941430Y-75378650D01*
X231922053Y-75394552D01*
X231906151Y-75413929D01*
X231906150Y-75413930D01*
X231858571Y-75471905D01*
X231819529Y-75544948D01*
X231811400Y-75560157D01*
X231782448Y-75655601D01*
X231782352Y-75655916D01*
X231772543Y-75755500D01*
X231775001Y-75780454D01*
X231775000Y-79833276D01*
X231763942Y-79825887D01*
X231621809Y-79767013D01*
X231470922Y-79737000D01*
X231317078Y-79737000D01*
X231166191Y-79767013D01*
X231024058Y-79825887D01*
X230896141Y-79911358D01*
X230787358Y-80020141D01*
X230701887Y-80148058D01*
X230643013Y-80290191D01*
X230613000Y-80441078D01*
X230613000Y-80580579D01*
X230126215Y-81067365D01*
X230035450Y-80976600D01*
X228886200Y-80976600D01*
X228886200Y-81625850D01*
X229044950Y-81784600D01*
X229406818Y-81786762D01*
X226206020Y-84987560D01*
X226206020Y-81149600D01*
X227321128Y-81149600D01*
X227333388Y-81274082D01*
X227369698Y-81393780D01*
X227428663Y-81504094D01*
X227508015Y-81600785D01*
X227604706Y-81680137D01*
X227715020Y-81739102D01*
X227834718Y-81775412D01*
X227959200Y-81787672D01*
X228473450Y-81784600D01*
X228632200Y-81625850D01*
X228632200Y-80976600D01*
X227482950Y-80976600D01*
X227324200Y-81135350D01*
X227321128Y-81149600D01*
X226206020Y-81149600D01*
X226206020Y-80709400D01*
X226827820Y-80087600D01*
X227521193Y-80087600D01*
X227508015Y-80098415D01*
X227428663Y-80195106D01*
X227369698Y-80305420D01*
X227333388Y-80425118D01*
X227321128Y-80549600D01*
X227324200Y-80563850D01*
X227482950Y-80722600D01*
X228632200Y-80722600D01*
X228632200Y-80702600D01*
X228886200Y-80702600D01*
X228886200Y-80722600D01*
X230035450Y-80722600D01*
X230194200Y-80563850D01*
X230197272Y-80549600D01*
X230185012Y-80425118D01*
X230148702Y-80305420D01*
X230089737Y-80195106D01*
X230010385Y-80098415D01*
X229913694Y-80019063D01*
X229868629Y-79994975D01*
X229901483Y-79933510D01*
X229931805Y-79833553D01*
X229942043Y-79729600D01*
X229942043Y-79429600D01*
X229931805Y-79325647D01*
X229901483Y-79225690D01*
X229852243Y-79133568D01*
X229785977Y-79052823D01*
X229705232Y-78986557D01*
X229626736Y-78944600D01*
X229705232Y-78902643D01*
X229785977Y-78836377D01*
X229852243Y-78755632D01*
X229901483Y-78663510D01*
X229931805Y-78563553D01*
X229942043Y-78459600D01*
X229942043Y-78159600D01*
X229931805Y-78055647D01*
X229901483Y-77955690D01*
X229852243Y-77863568D01*
X229785977Y-77782823D01*
X229705232Y-77716557D01*
X229626736Y-77674600D01*
X229705232Y-77632643D01*
X229785977Y-77566377D01*
X229852243Y-77485632D01*
X229901483Y-77393510D01*
X229931805Y-77293553D01*
X229942043Y-77189600D01*
X229942043Y-76889600D01*
X229931805Y-76785647D01*
X229901483Y-76685690D01*
X229852243Y-76593568D01*
X229785977Y-76512823D01*
X229705232Y-76446557D01*
X229613110Y-76397317D01*
X229513153Y-76366995D01*
X229409200Y-76356757D01*
X228109200Y-76356757D01*
X228005247Y-76366995D01*
X227905290Y-76397317D01*
X227813168Y-76446557D01*
X227732423Y-76512823D01*
X227717013Y-76531600D01*
X227328753Y-76531600D01*
X227596853Y-76263500D01*
X230670556Y-76263500D01*
X230695500Y-76265957D01*
X230720444Y-76263500D01*
X230720447Y-76263500D01*
X230795085Y-76256149D01*
X230890843Y-76227101D01*
X230979095Y-76179929D01*
X231056448Y-76116448D01*
X231072355Y-76097065D01*
X232124465Y-75044955D01*
X232143848Y-75029048D01*
X232207329Y-74951695D01*
X232237618Y-74895028D01*
X232331335Y-74988745D01*
G04 #@! TA.AperFunction,Conductor*
D17*
G36*
X232331335Y-74988745D02*
G01*
X231941430Y-75378650D01*
X231922053Y-75394552D01*
X231906151Y-75413929D01*
X231906150Y-75413930D01*
X231858571Y-75471905D01*
X231819529Y-75544948D01*
X231811400Y-75560157D01*
X231782448Y-75655601D01*
X231782352Y-75655916D01*
X231772543Y-75755500D01*
X231775001Y-75780454D01*
X231775000Y-79833276D01*
X231763942Y-79825887D01*
X231621809Y-79767013D01*
X231470922Y-79737000D01*
X231317078Y-79737000D01*
X231166191Y-79767013D01*
X231024058Y-79825887D01*
X230896141Y-79911358D01*
X230787358Y-80020141D01*
X230701887Y-80148058D01*
X230643013Y-80290191D01*
X230613000Y-80441078D01*
X230613000Y-80580579D01*
X230126215Y-81067365D01*
X230035450Y-80976600D01*
X228886200Y-80976600D01*
X228886200Y-81625850D01*
X229044950Y-81784600D01*
X229406818Y-81786762D01*
X226206020Y-84987560D01*
X226206020Y-81149600D01*
X227321128Y-81149600D01*
X227333388Y-81274082D01*
X227369698Y-81393780D01*
X227428663Y-81504094D01*
X227508015Y-81600785D01*
X227604706Y-81680137D01*
X227715020Y-81739102D01*
X227834718Y-81775412D01*
X227959200Y-81787672D01*
X228473450Y-81784600D01*
X228632200Y-81625850D01*
X228632200Y-80976600D01*
X227482950Y-80976600D01*
X227324200Y-81135350D01*
X227321128Y-81149600D01*
X226206020Y-81149600D01*
X226206020Y-80709400D01*
X226827820Y-80087600D01*
X227521193Y-80087600D01*
X227508015Y-80098415D01*
X227428663Y-80195106D01*
X227369698Y-80305420D01*
X227333388Y-80425118D01*
X227321128Y-80549600D01*
X227324200Y-80563850D01*
X227482950Y-80722600D01*
X228632200Y-80722600D01*
X228632200Y-80702600D01*
X228886200Y-80702600D01*
X228886200Y-80722600D01*
X230035450Y-80722600D01*
X230194200Y-80563850D01*
X230197272Y-80549600D01*
X230185012Y-80425118D01*
X230148702Y-80305420D01*
X230089737Y-80195106D01*
X230010385Y-80098415D01*
X229913694Y-80019063D01*
X229868629Y-79994975D01*
X229901483Y-79933510D01*
X229931805Y-79833553D01*
X229942043Y-79729600D01*
X229942043Y-79429600D01*
X229931805Y-79325647D01*
X229901483Y-79225690D01*
X229852243Y-79133568D01*
X229785977Y-79052823D01*
X229705232Y-78986557D01*
X229626736Y-78944600D01*
X229705232Y-78902643D01*
X229785977Y-78836377D01*
X229852243Y-78755632D01*
X229901483Y-78663510D01*
X229931805Y-78563553D01*
X229942043Y-78459600D01*
X229942043Y-78159600D01*
X229931805Y-78055647D01*
X229901483Y-77955690D01*
X229852243Y-77863568D01*
X229785977Y-77782823D01*
X229705232Y-77716557D01*
X229626736Y-77674600D01*
X229705232Y-77632643D01*
X229785977Y-77566377D01*
X229852243Y-77485632D01*
X229901483Y-77393510D01*
X229931805Y-77293553D01*
X229942043Y-77189600D01*
X229942043Y-76889600D01*
X229931805Y-76785647D01*
X229901483Y-76685690D01*
X229852243Y-76593568D01*
X229785977Y-76512823D01*
X229705232Y-76446557D01*
X229613110Y-76397317D01*
X229513153Y-76366995D01*
X229409200Y-76356757D01*
X228109200Y-76356757D01*
X228005247Y-76366995D01*
X227905290Y-76397317D01*
X227813168Y-76446557D01*
X227732423Y-76512823D01*
X227717013Y-76531600D01*
X227328753Y-76531600D01*
X227596853Y-76263500D01*
X230670556Y-76263500D01*
X230695500Y-76265957D01*
X230720444Y-76263500D01*
X230720447Y-76263500D01*
X230795085Y-76256149D01*
X230890843Y-76227101D01*
X230979095Y-76179929D01*
X231056448Y-76116448D01*
X231072355Y-76097065D01*
X232124465Y-75044955D01*
X232143848Y-75029048D01*
X232207329Y-74951695D01*
X232237618Y-74895028D01*
X232331335Y-74988745D01*
G37*
G04 #@! TD.AperFunction*
D16*
X239874784Y-77581638D02*
X239874783Y-80300496D01*
X239086744Y-79512457D01*
X239130537Y-79459094D01*
X239189502Y-79348780D01*
X239225812Y-79229082D01*
X239238072Y-79104600D01*
X239235000Y-78852850D01*
X239076250Y-78694100D01*
X238252000Y-78694100D01*
X238252000Y-78714100D01*
X237998000Y-78714100D01*
X237998000Y-78694100D01*
X237978000Y-78694100D01*
X237978000Y-78440100D01*
X237998000Y-78440100D01*
X237998000Y-78420100D01*
X238252000Y-78420100D01*
X238252000Y-78440100D01*
X239076250Y-78440100D01*
X239235000Y-78281350D01*
X239238072Y-78029600D01*
X239225812Y-77905118D01*
X239189502Y-77785420D01*
X239130537Y-77675106D01*
X239051185Y-77578415D01*
X238954494Y-77499063D01*
X238890107Y-77464647D01*
X238935622Y-77379495D01*
X238970923Y-77263123D01*
X238982843Y-77142100D01*
X238982843Y-76689697D01*
X239874784Y-77581638D01*
G04 #@! TA.AperFunction,Conductor*
D17*
G36*
X239874784Y-77581638D02*
G01*
X239874783Y-80300496D01*
X239086744Y-79512457D01*
X239130537Y-79459094D01*
X239189502Y-79348780D01*
X239225812Y-79229082D01*
X239238072Y-79104600D01*
X239235000Y-78852850D01*
X239076250Y-78694100D01*
X238252000Y-78694100D01*
X238252000Y-78714100D01*
X237998000Y-78714100D01*
X237998000Y-78694100D01*
X237978000Y-78694100D01*
X237978000Y-78440100D01*
X237998000Y-78440100D01*
X237998000Y-78420100D01*
X238252000Y-78420100D01*
X238252000Y-78440100D01*
X239076250Y-78440100D01*
X239235000Y-78281350D01*
X239238072Y-78029600D01*
X239225812Y-77905118D01*
X239189502Y-77785420D01*
X239130537Y-77675106D01*
X239051185Y-77578415D01*
X238954494Y-77499063D01*
X238890107Y-77464647D01*
X238935622Y-77379495D01*
X238970923Y-77263123D01*
X238982843Y-77142100D01*
X238982843Y-76689697D01*
X239874784Y-77581638D01*
G37*
G04 #@! TD.AperFunction*
D16*
X237617000Y-75965921D02*
X237617000Y-75986673D01*
X237542856Y-76026304D01*
X237448851Y-76103451D01*
X237371704Y-76197456D01*
X237314378Y-76304705D01*
X237279077Y-76421077D01*
X237268191Y-76531600D01*
X237001387Y-76531600D01*
X236985977Y-76512823D01*
X236905232Y-76446557D01*
X236813110Y-76397317D01*
X236713153Y-76366995D01*
X236609200Y-76356757D01*
X235309200Y-76356757D01*
X235205247Y-76366995D01*
X235105290Y-76397317D01*
X235013168Y-76446557D01*
X234932423Y-76512823D01*
X234866157Y-76593568D01*
X234816917Y-76685690D01*
X234786595Y-76785647D01*
X234776357Y-76889600D01*
X234776357Y-77189600D01*
X234786595Y-77293553D01*
X234816917Y-77393510D01*
X234866157Y-77485632D01*
X234932423Y-77566377D01*
X235013168Y-77632643D01*
X235091664Y-77674600D01*
X235013168Y-77716557D01*
X234932423Y-77782823D01*
X234876471Y-77851000D01*
X233895501Y-77851000D01*
X233796859Y-77752358D01*
X233668942Y-77666887D01*
X233526809Y-77608013D01*
X233375922Y-77578000D01*
X233222078Y-77578000D01*
X233071191Y-77608013D01*
X232929058Y-77666887D01*
X232801141Y-77752358D01*
X232791000Y-77762499D01*
X232791000Y-75965920D01*
X233064921Y-75692000D01*
X237343080Y-75692000D01*
X237617000Y-75965921D01*
G04 #@! TA.AperFunction,Conductor*
D17*
G36*
X237617000Y-75965921D02*
G01*
X237617000Y-75986673D01*
X237542856Y-76026304D01*
X237448851Y-76103451D01*
X237371704Y-76197456D01*
X237314378Y-76304705D01*
X237279077Y-76421077D01*
X237268191Y-76531600D01*
X237001387Y-76531600D01*
X236985977Y-76512823D01*
X236905232Y-76446557D01*
X236813110Y-76397317D01*
X236713153Y-76366995D01*
X236609200Y-76356757D01*
X235309200Y-76356757D01*
X235205247Y-76366995D01*
X235105290Y-76397317D01*
X235013168Y-76446557D01*
X234932423Y-76512823D01*
X234866157Y-76593568D01*
X234816917Y-76685690D01*
X234786595Y-76785647D01*
X234776357Y-76889600D01*
X234776357Y-77189600D01*
X234786595Y-77293553D01*
X234816917Y-77393510D01*
X234866157Y-77485632D01*
X234932423Y-77566377D01*
X235013168Y-77632643D01*
X235091664Y-77674600D01*
X235013168Y-77716557D01*
X234932423Y-77782823D01*
X234876471Y-77851000D01*
X233895501Y-77851000D01*
X233796859Y-77752358D01*
X233668942Y-77666887D01*
X233526809Y-77608013D01*
X233375922Y-77578000D01*
X233222078Y-77578000D01*
X233071191Y-77608013D01*
X232929058Y-77666887D01*
X232801141Y-77752358D01*
X232791000Y-77762499D01*
X232791000Y-75965920D01*
X233064921Y-75692000D01*
X237343080Y-75692000D01*
X237617000Y-75965921D01*
G37*
G04 #@! TD.AperFunction*
D16*
X230516013Y-45873191D02*
X230486000Y-46024078D01*
X230486000Y-46177922D01*
X230516013Y-46328809D01*
X230574887Y-46470942D01*
X230660358Y-46598859D01*
X230759000Y-46697501D01*
X230759000Y-47028555D01*
X230756543Y-47053500D01*
X230759000Y-47078444D01*
X230759000Y-47078446D01*
X230766351Y-47153084D01*
X230795399Y-47248842D01*
X230842571Y-47337095D01*
X230906052Y-47414448D01*
X230925434Y-47430354D01*
X231130491Y-47635412D01*
X231130490Y-62518069D01*
X230714329Y-62934231D01*
X230694952Y-62950133D01*
X230679050Y-62969510D01*
X230679049Y-62969511D01*
X230631470Y-63027486D01*
X230598066Y-63089982D01*
X230584299Y-63115738D01*
X230561904Y-63189566D01*
X230555251Y-63211497D01*
X230545442Y-63311081D01*
X230547900Y-63336035D01*
X230547899Y-64765600D01*
X230449257Y-64864242D01*
X230363786Y-64992159D01*
X230304912Y-65134292D01*
X230274899Y-65285179D01*
X230274899Y-65425455D01*
X230274568Y-65425052D01*
X230197215Y-65361571D01*
X230108963Y-65314399D01*
X230013205Y-65285351D01*
X229938567Y-65278000D01*
X229938564Y-65278000D01*
X229913620Y-65275543D01*
X229888676Y-65278000D01*
X214020850Y-65278000D01*
X214055342Y-65263713D01*
X214183259Y-65178242D01*
X214292042Y-65069459D01*
X214377513Y-64941542D01*
X214436387Y-64799409D01*
X214466400Y-64648522D01*
X214466400Y-64494678D01*
X214436387Y-64343791D01*
X214377513Y-64201658D01*
X214292042Y-64073741D01*
X214183259Y-63964958D01*
X214055342Y-63879487D01*
X213913209Y-63820613D01*
X213762322Y-63790600D01*
X213608478Y-63790600D01*
X213457591Y-63820613D01*
X213315458Y-63879487D01*
X213250285Y-63923034D01*
X213227649Y-63895451D01*
X213133644Y-63818304D01*
X213026395Y-63760978D01*
X212910023Y-63725677D01*
X212789000Y-63713757D01*
X212214000Y-63713757D01*
X212092977Y-63725677D01*
X211976605Y-63760978D01*
X211869356Y-63818304D01*
X211775351Y-63895451D01*
X211698204Y-63989456D01*
X211640878Y-64096705D01*
X211626500Y-64144103D01*
X211612122Y-64096705D01*
X211554796Y-63989456D01*
X211477649Y-63895451D01*
X211383644Y-63818304D01*
X211276395Y-63760978D01*
X211160023Y-63725677D01*
X211039000Y-63713757D01*
X210464000Y-63713757D01*
X210342977Y-63725677D01*
X210226605Y-63760978D01*
X210119356Y-63818304D01*
X210025351Y-63895451D01*
X209948204Y-63989456D01*
X209890878Y-64096705D01*
X209855577Y-64213077D01*
X209843657Y-64334100D01*
X209843657Y-64809100D01*
X209855577Y-64930123D01*
X209890878Y-65046495D01*
X209948204Y-65153744D01*
X210025351Y-65247749D01*
X210119356Y-65324896D01*
X210226605Y-65382222D01*
X210243501Y-65387347D01*
X210243501Y-65438546D01*
X210241043Y-65463500D01*
X210249974Y-65554174D01*
X210250852Y-65563085D01*
X210259216Y-65590656D01*
X210279900Y-65658843D01*
X210327071Y-65747095D01*
X210371516Y-65801251D01*
X210390553Y-65824448D01*
X210409931Y-65840351D01*
X210697141Y-66127560D01*
X210713052Y-66146948D01*
X210790405Y-66210429D01*
X210804943Y-66218200D01*
X206974045Y-66218200D01*
X224018436Y-45882819D01*
X224020074Y-45881474D01*
X224044093Y-45852208D01*
X224055566Y-45838519D01*
X224056755Y-45836779D01*
X224070810Y-45819653D01*
X224079267Y-45803831D01*
X224089380Y-45789030D01*
X224098065Y-45768663D01*
X224108510Y-45749121D01*
X224108550Y-45748990D01*
X230567459Y-45748990D01*
X230516013Y-45873191D01*
G04 #@! TA.AperFunction,Conductor*
D17*
G36*
X230516013Y-45873191D02*
G01*
X230486000Y-46024078D01*
X230486000Y-46177922D01*
X230516013Y-46328809D01*
X230574887Y-46470942D01*
X230660358Y-46598859D01*
X230759000Y-46697501D01*
X230759000Y-47028555D01*
X230756543Y-47053500D01*
X230759000Y-47078444D01*
X230759000Y-47078446D01*
X230766351Y-47153084D01*
X230795399Y-47248842D01*
X230842571Y-47337095D01*
X230906052Y-47414448D01*
X230925434Y-47430354D01*
X231130491Y-47635412D01*
X231130490Y-62518069D01*
X230714329Y-62934231D01*
X230694952Y-62950133D01*
X230679050Y-62969510D01*
X230679049Y-62969511D01*
X230631470Y-63027486D01*
X230598066Y-63089982D01*
X230584299Y-63115738D01*
X230561904Y-63189566D01*
X230555251Y-63211497D01*
X230545442Y-63311081D01*
X230547900Y-63336035D01*
X230547899Y-64765600D01*
X230449257Y-64864242D01*
X230363786Y-64992159D01*
X230304912Y-65134292D01*
X230274899Y-65285179D01*
X230274899Y-65425455D01*
X230274568Y-65425052D01*
X230197215Y-65361571D01*
X230108963Y-65314399D01*
X230013205Y-65285351D01*
X229938567Y-65278000D01*
X229938564Y-65278000D01*
X229913620Y-65275543D01*
X229888676Y-65278000D01*
X214020850Y-65278000D01*
X214055342Y-65263713D01*
X214183259Y-65178242D01*
X214292042Y-65069459D01*
X214377513Y-64941542D01*
X214436387Y-64799409D01*
X214466400Y-64648522D01*
X214466400Y-64494678D01*
X214436387Y-64343791D01*
X214377513Y-64201658D01*
X214292042Y-64073741D01*
X214183259Y-63964958D01*
X214055342Y-63879487D01*
X213913209Y-63820613D01*
X213762322Y-63790600D01*
X213608478Y-63790600D01*
X213457591Y-63820613D01*
X213315458Y-63879487D01*
X213250285Y-63923034D01*
X213227649Y-63895451D01*
X213133644Y-63818304D01*
X213026395Y-63760978D01*
X212910023Y-63725677D01*
X212789000Y-63713757D01*
X212214000Y-63713757D01*
X212092977Y-63725677D01*
X211976605Y-63760978D01*
X211869356Y-63818304D01*
X211775351Y-63895451D01*
X211698204Y-63989456D01*
X211640878Y-64096705D01*
X211626500Y-64144103D01*
X211612122Y-64096705D01*
X211554796Y-63989456D01*
X211477649Y-63895451D01*
X211383644Y-63818304D01*
X211276395Y-63760978D01*
X211160023Y-63725677D01*
X211039000Y-63713757D01*
X210464000Y-63713757D01*
X210342977Y-63725677D01*
X210226605Y-63760978D01*
X210119356Y-63818304D01*
X210025351Y-63895451D01*
X209948204Y-63989456D01*
X209890878Y-64096705D01*
X209855577Y-64213077D01*
X209843657Y-64334100D01*
X209843657Y-64809100D01*
X209855577Y-64930123D01*
X209890878Y-65046495D01*
X209948204Y-65153744D01*
X210025351Y-65247749D01*
X210119356Y-65324896D01*
X210226605Y-65382222D01*
X210243501Y-65387347D01*
X210243501Y-65438546D01*
X210241043Y-65463500D01*
X210249974Y-65554174D01*
X210250852Y-65563085D01*
X210259216Y-65590656D01*
X210279900Y-65658843D01*
X210327071Y-65747095D01*
X210371516Y-65801251D01*
X210390553Y-65824448D01*
X210409931Y-65840351D01*
X210697141Y-66127560D01*
X210713052Y-66146948D01*
X210790405Y-66210429D01*
X210804943Y-66218200D01*
X206974045Y-66218200D01*
X224018436Y-45882819D01*
X224020074Y-45881474D01*
X224044093Y-45852208D01*
X224055566Y-45838519D01*
X224056755Y-45836779D01*
X224070810Y-45819653D01*
X224079267Y-45803831D01*
X224089380Y-45789030D01*
X224098065Y-45768663D01*
X224108510Y-45749121D01*
X224108550Y-45748990D01*
X230567459Y-45748990D01*
X230516013Y-45873191D01*
G37*
G04 #@! TD.AperFunction*
D16*
X240609890Y-45749121D02*
X240620338Y-45768667D01*
X240629020Y-45789029D01*
X240639131Y-45803827D01*
X240647590Y-45819653D01*
X240661649Y-45836784D01*
X240662834Y-45838518D01*
X240674268Y-45852160D01*
X240698326Y-45881474D01*
X240699967Y-45882821D01*
X257744354Y-66218200D01*
X253948857Y-66218200D01*
X253963395Y-66210429D01*
X254040748Y-66146948D01*
X254056655Y-66127565D01*
X254308460Y-65875759D01*
X254327848Y-65859848D01*
X254391329Y-65782495D01*
X254438501Y-65694243D01*
X254467549Y-65598485D01*
X254474900Y-65523847D01*
X254474900Y-65523844D01*
X254477357Y-65498900D01*
X254474900Y-65473956D01*
X254474900Y-65387347D01*
X254491795Y-65382222D01*
X254599044Y-65324896D01*
X254693049Y-65247749D01*
X254770196Y-65153744D01*
X254827522Y-65046495D01*
X254862823Y-64930123D01*
X254874743Y-64809100D01*
X254874743Y-64334100D01*
X254862823Y-64213077D01*
X254827522Y-64096705D01*
X254770196Y-63989456D01*
X254693049Y-63895451D01*
X254599044Y-63818304D01*
X254491795Y-63760978D01*
X254375423Y-63725677D01*
X254254400Y-63713757D01*
X253679400Y-63713757D01*
X253558377Y-63725677D01*
X253442005Y-63760978D01*
X253334756Y-63818304D01*
X253240751Y-63895451D01*
X253163604Y-63989456D01*
X253106278Y-64096705D01*
X253091900Y-64144103D01*
X253077522Y-64096705D01*
X253020196Y-63989456D01*
X252943049Y-63895451D01*
X252849044Y-63818304D01*
X252741795Y-63760978D01*
X252625423Y-63725677D01*
X252504400Y-63713757D01*
X251929400Y-63713757D01*
X251808377Y-63725677D01*
X251692005Y-63760978D01*
X251584756Y-63818304D01*
X251490751Y-63895451D01*
X251464715Y-63927177D01*
X251393342Y-63879487D01*
X251251209Y-63820613D01*
X251100322Y-63790600D01*
X250946478Y-63790600D01*
X250795591Y-63820613D01*
X250653458Y-63879487D01*
X250525541Y-63964958D01*
X250416758Y-64073741D01*
X250331287Y-64201658D01*
X250272413Y-64343791D01*
X250242400Y-64494678D01*
X250242400Y-64648522D01*
X250272413Y-64799409D01*
X250331287Y-64941542D01*
X250416758Y-65069459D01*
X250525541Y-65178242D01*
X250653458Y-65263713D01*
X250687950Y-65278000D01*
X234026001Y-65278000D01*
X234026001Y-63299445D01*
X234028458Y-63274501D01*
X234023939Y-63228621D01*
X234018650Y-63174916D01*
X233989602Y-63079158D01*
X233942430Y-62990906D01*
X233878949Y-62913553D01*
X233859566Y-62897646D01*
X233739355Y-62777435D01*
X233739350Y-62777429D01*
X233508520Y-62546600D01*
X233508520Y-45969380D01*
X233728911Y-45748990D01*
X240609850Y-45748990D01*
X240609890Y-45749121D01*
G04 #@! TA.AperFunction,Conductor*
D17*
G36*
X240609890Y-45749121D02*
G01*
X240620338Y-45768667D01*
X240629020Y-45789029D01*
X240639131Y-45803827D01*
X240647590Y-45819653D01*
X240661649Y-45836784D01*
X240662834Y-45838518D01*
X240674268Y-45852160D01*
X240698326Y-45881474D01*
X240699967Y-45882821D01*
X257744354Y-66218200D01*
X253948857Y-66218200D01*
X253963395Y-66210429D01*
X254040748Y-66146948D01*
X254056655Y-66127565D01*
X254308460Y-65875759D01*
X254327848Y-65859848D01*
X254391329Y-65782495D01*
X254438501Y-65694243D01*
X254467549Y-65598485D01*
X254474900Y-65523847D01*
X254474900Y-65523844D01*
X254477357Y-65498900D01*
X254474900Y-65473956D01*
X254474900Y-65387347D01*
X254491795Y-65382222D01*
X254599044Y-65324896D01*
X254693049Y-65247749D01*
X254770196Y-65153744D01*
X254827522Y-65046495D01*
X254862823Y-64930123D01*
X254874743Y-64809100D01*
X254874743Y-64334100D01*
X254862823Y-64213077D01*
X254827522Y-64096705D01*
X254770196Y-63989456D01*
X254693049Y-63895451D01*
X254599044Y-63818304D01*
X254491795Y-63760978D01*
X254375423Y-63725677D01*
X254254400Y-63713757D01*
X253679400Y-63713757D01*
X253558377Y-63725677D01*
X253442005Y-63760978D01*
X253334756Y-63818304D01*
X253240751Y-63895451D01*
X253163604Y-63989456D01*
X253106278Y-64096705D01*
X253091900Y-64144103D01*
X253077522Y-64096705D01*
X253020196Y-63989456D01*
X252943049Y-63895451D01*
X252849044Y-63818304D01*
X252741795Y-63760978D01*
X252625423Y-63725677D01*
X252504400Y-63713757D01*
X251929400Y-63713757D01*
X251808377Y-63725677D01*
X251692005Y-63760978D01*
X251584756Y-63818304D01*
X251490751Y-63895451D01*
X251464715Y-63927177D01*
X251393342Y-63879487D01*
X251251209Y-63820613D01*
X251100322Y-63790600D01*
X250946478Y-63790600D01*
X250795591Y-63820613D01*
X250653458Y-63879487D01*
X250525541Y-63964958D01*
X250416758Y-64073741D01*
X250331287Y-64201658D01*
X250272413Y-64343791D01*
X250242400Y-64494678D01*
X250242400Y-64648522D01*
X250272413Y-64799409D01*
X250331287Y-64941542D01*
X250416758Y-65069459D01*
X250525541Y-65178242D01*
X250653458Y-65263713D01*
X250687950Y-65278000D01*
X234026001Y-65278000D01*
X234026001Y-63299445D01*
X234028458Y-63274501D01*
X234023939Y-63228621D01*
X234018650Y-63174916D01*
X233989602Y-63079158D01*
X233942430Y-62990906D01*
X233878949Y-62913553D01*
X233859566Y-62897646D01*
X233739355Y-62777435D01*
X233739350Y-62777429D01*
X233508520Y-62546600D01*
X233508520Y-45969380D01*
X233728911Y-45748990D01*
X240609850Y-45748990D01*
X240609890Y-45749121D01*
G37*
G04 #@! TD.AperFunction*
D16*
X249116754Y-45187000D02*
X246488420Y-45187000D01*
X246532875Y-45142545D01*
X246552258Y-45126638D01*
X246615739Y-45049285D01*
X246662911Y-44961033D01*
X246691959Y-44865275D01*
X246699310Y-44790637D01*
X246699310Y-44790634D01*
X246701767Y-44765690D01*
X246699310Y-44740746D01*
X246699310Y-42889254D01*
X246701767Y-42864310D01*
X246699310Y-42839363D01*
X246691959Y-42764725D01*
X246662911Y-42668967D01*
X246615739Y-42580715D01*
X246552258Y-42503362D01*
X246532875Y-42487455D01*
X246121855Y-42076435D01*
X246105948Y-42057052D01*
X246028595Y-41993571D01*
X245940343Y-41946399D01*
X245844585Y-41917351D01*
X245769947Y-41910000D01*
X245769944Y-41910000D01*
X245745000Y-41907543D01*
X245720056Y-41910000D01*
X243864943Y-41910000D01*
X243839999Y-41907543D01*
X243815055Y-41910000D01*
X243815053Y-41910000D01*
X243740415Y-41917351D01*
X243644657Y-41946399D01*
X243556405Y-41993571D01*
X243479052Y-42057052D01*
X243463145Y-42076435D01*
X243247735Y-42291845D01*
X243228352Y-42307752D01*
X243164871Y-42385105D01*
X243117699Y-42473358D01*
X243088651Y-42569116D01*
X243084295Y-42613345D01*
X243078843Y-42668700D01*
X243081300Y-42693645D01*
X243081300Y-42727853D01*
X243064405Y-42732978D01*
X242957156Y-42790304D01*
X242863151Y-42867451D01*
X242786004Y-42961456D01*
X242728678Y-43068705D01*
X242693377Y-43185077D01*
X242681457Y-43306100D01*
X242681457Y-43781100D01*
X242693377Y-43902123D01*
X242728678Y-44018495D01*
X242786004Y-44125744D01*
X242863151Y-44219749D01*
X242935325Y-44278980D01*
X233355378Y-44278980D01*
X233330434Y-44276523D01*
X233305490Y-44278980D01*
X233305487Y-44278980D01*
X233230849Y-44286331D01*
X233135091Y-44315379D01*
X233046839Y-44362551D01*
X232969486Y-44426032D01*
X232953579Y-44445415D01*
X232537001Y-44861993D01*
X232120422Y-44445415D01*
X232104515Y-44426032D01*
X232027162Y-44362551D01*
X231938910Y-44315379D01*
X231843152Y-44286331D01*
X231768514Y-44278980D01*
X231768511Y-44278980D01*
X231743567Y-44276523D01*
X231718623Y-44278980D01*
X221783075Y-44278980D01*
X221855249Y-44219749D01*
X221932396Y-44125744D01*
X221989722Y-44018495D01*
X222025023Y-43902123D01*
X222036943Y-43781100D01*
X222036943Y-43306100D01*
X222025023Y-43185077D01*
X222015559Y-43153878D01*
X231578200Y-43153878D01*
X231578200Y-43307722D01*
X231608213Y-43458609D01*
X231667087Y-43600742D01*
X231752558Y-43728659D01*
X231861341Y-43837442D01*
X231989258Y-43922913D01*
X232131391Y-43981787D01*
X232282278Y-44011800D01*
X232436122Y-44011800D01*
X232587009Y-43981787D01*
X232729142Y-43922913D01*
X232857059Y-43837442D01*
X232965842Y-43728659D01*
X233051313Y-43600742D01*
X233110187Y-43458609D01*
X233140200Y-43307722D01*
X233140200Y-43153878D01*
X233110187Y-43002991D01*
X233051313Y-42860858D01*
X232965842Y-42732941D01*
X232867200Y-42634299D01*
X232867200Y-33586020D01*
X233598265Y-32854955D01*
X233617648Y-32839048D01*
X233681129Y-32761695D01*
X233728301Y-32673443D01*
X233757349Y-32577685D01*
X233763065Y-32519643D01*
X233781595Y-32514022D01*
X233888844Y-32456696D01*
X233982849Y-32379549D01*
X234059996Y-32285544D01*
X234117322Y-32178295D01*
X234152623Y-32061923D01*
X234164543Y-31940900D01*
X234164543Y-31465900D01*
X234152623Y-31344877D01*
X234117322Y-31228505D01*
X234059996Y-31121256D01*
X233982849Y-31027251D01*
X233888844Y-30950104D01*
X233781595Y-30892778D01*
X233665223Y-30857477D01*
X233544200Y-30845557D01*
X232969200Y-30845557D01*
X232848177Y-30857477D01*
X232731805Y-30892778D01*
X232624556Y-30950104D01*
X232609549Y-30962420D01*
X232562237Y-30873906D01*
X232482885Y-30777215D01*
X232386194Y-30697863D01*
X232275880Y-30638898D01*
X232156182Y-30602588D01*
X232031700Y-30590328D01*
X231792450Y-30593400D01*
X231633700Y-30752150D01*
X231633700Y-31576400D01*
X231653700Y-31576400D01*
X231653700Y-31830400D01*
X231633700Y-31830400D01*
X231633700Y-32654650D01*
X231792450Y-32813400D01*
X232031700Y-32816472D01*
X232156182Y-32804212D01*
X232236546Y-32779834D01*
X232017635Y-32998745D01*
X231998252Y-33014652D01*
X231934771Y-33092005D01*
X231887599Y-33180258D01*
X231858551Y-33276016D01*
X231851200Y-33350653D01*
X231848743Y-33375600D01*
X231851200Y-33400544D01*
X231851201Y-42634298D01*
X231752558Y-42732941D01*
X231667087Y-42860858D01*
X231608213Y-43002991D01*
X231578200Y-43153878D01*
X222015559Y-43153878D01*
X221989722Y-43068705D01*
X221932396Y-42961456D01*
X221855249Y-42867451D01*
X221761244Y-42790304D01*
X221653995Y-42732978D01*
X221637100Y-42727853D01*
X221637100Y-42719043D01*
X221639557Y-42694099D01*
X221637082Y-42668967D01*
X221629749Y-42594515D01*
X221600701Y-42498757D01*
X221553529Y-42410505D01*
X221490048Y-42333152D01*
X221470665Y-42317245D01*
X221229855Y-42076435D01*
X221213948Y-42057052D01*
X221136595Y-41993571D01*
X221048343Y-41946399D01*
X220952585Y-41917351D01*
X220877947Y-41910000D01*
X220877944Y-41910000D01*
X220853000Y-41907543D01*
X220828056Y-41910000D01*
X219206304Y-41910000D01*
X219181360Y-41907543D01*
X219156416Y-41910000D01*
X219156413Y-41910000D01*
X219081775Y-41917351D01*
X218986017Y-41946399D01*
X218897765Y-41993571D01*
X218820412Y-42057052D01*
X218804505Y-42076435D01*
X218185520Y-42695420D01*
X218166143Y-42711322D01*
X218150241Y-42730699D01*
X218150240Y-42730700D01*
X218102661Y-42788675D01*
X218064079Y-42860858D01*
X218055490Y-42876927D01*
X218029849Y-42961456D01*
X218026442Y-42972686D01*
X218016633Y-43072270D01*
X218019091Y-43097224D01*
X218019090Y-44512145D01*
X218016633Y-44537090D01*
X218019090Y-44562034D01*
X218019090Y-44562036D01*
X218026441Y-44636674D01*
X218055489Y-44732432D01*
X218102661Y-44820685D01*
X218166142Y-44898038D01*
X218185525Y-44913945D01*
X218458580Y-45187000D01*
X215601645Y-45187000D01*
X226504988Y-32178400D01*
X230343628Y-32178400D01*
X230355888Y-32302882D01*
X230392198Y-32422580D01*
X230451163Y-32532894D01*
X230530515Y-32629585D01*
X230627206Y-32708937D01*
X230737520Y-32767902D01*
X230857218Y-32804212D01*
X230981700Y-32816472D01*
X231220950Y-32813400D01*
X231379700Y-32654650D01*
X231379700Y-31830400D01*
X230505450Y-31830400D01*
X230346700Y-31989150D01*
X230343628Y-32178400D01*
X226504988Y-32178400D01*
X227301244Y-31228400D01*
X230343628Y-31228400D01*
X230346700Y-31417650D01*
X230505450Y-31576400D01*
X231379700Y-31576400D01*
X231379700Y-30752150D01*
X231220950Y-30593400D01*
X230981700Y-30590328D01*
X230857218Y-30602588D01*
X230737520Y-30638898D01*
X230627206Y-30697863D01*
X230530515Y-30777215D01*
X230451163Y-30873906D01*
X230392198Y-30984220D01*
X230355888Y-31103918D01*
X230343628Y-31228400D01*
X227301244Y-31228400D01*
X229823901Y-28218659D01*
X230928200Y-28218659D01*
X230928200Y-28500541D01*
X230983193Y-28777007D01*
X231091064Y-29037433D01*
X231247670Y-29271809D01*
X231446991Y-29471130D01*
X231681367Y-29627736D01*
X231941793Y-29735607D01*
X232218259Y-29790600D01*
X232500141Y-29790600D01*
X232776607Y-29735607D01*
X233037033Y-29627736D01*
X233271409Y-29471130D01*
X233470730Y-29271809D01*
X233627336Y-29037433D01*
X233735207Y-28777007D01*
X233790200Y-28500541D01*
X233790200Y-28218659D01*
X233735207Y-27942193D01*
X233627336Y-27681767D01*
X233470730Y-27447391D01*
X233271409Y-27248070D01*
X233037033Y-27091464D01*
X232776607Y-26983593D01*
X232500141Y-26928600D01*
X232218259Y-26928600D01*
X231941793Y-26983593D01*
X231681367Y-27091464D01*
X231446991Y-27248070D01*
X231247670Y-27447391D01*
X231091064Y-27681767D01*
X230983193Y-27942193D01*
X230928200Y-28218659D01*
X229823901Y-28218659D01*
X232359200Y-25193837D01*
X249116754Y-45187000D01*
G04 #@! TA.AperFunction,Conductor*
D17*
G36*
X249116754Y-45187000D02*
G01*
X246488420Y-45187000D01*
X246532875Y-45142545D01*
X246552258Y-45126638D01*
X246615739Y-45049285D01*
X246662911Y-44961033D01*
X246691959Y-44865275D01*
X246699310Y-44790637D01*
X246699310Y-44790634D01*
X246701767Y-44765690D01*
X246699310Y-44740746D01*
X246699310Y-42889254D01*
X246701767Y-42864310D01*
X246699310Y-42839363D01*
X246691959Y-42764725D01*
X246662911Y-42668967D01*
X246615739Y-42580715D01*
X246552258Y-42503362D01*
X246532875Y-42487455D01*
X246121855Y-42076435D01*
X246105948Y-42057052D01*
X246028595Y-41993571D01*
X245940343Y-41946399D01*
X245844585Y-41917351D01*
X245769947Y-41910000D01*
X245769944Y-41910000D01*
X245745000Y-41907543D01*
X245720056Y-41910000D01*
X243864943Y-41910000D01*
X243839999Y-41907543D01*
X243815055Y-41910000D01*
X243815053Y-41910000D01*
X243740415Y-41917351D01*
X243644657Y-41946399D01*
X243556405Y-41993571D01*
X243479052Y-42057052D01*
X243463145Y-42076435D01*
X243247735Y-42291845D01*
X243228352Y-42307752D01*
X243164871Y-42385105D01*
X243117699Y-42473358D01*
X243088651Y-42569116D01*
X243084295Y-42613345D01*
X243078843Y-42668700D01*
X243081300Y-42693645D01*
X243081300Y-42727853D01*
X243064405Y-42732978D01*
X242957156Y-42790304D01*
X242863151Y-42867451D01*
X242786004Y-42961456D01*
X242728678Y-43068705D01*
X242693377Y-43185077D01*
X242681457Y-43306100D01*
X242681457Y-43781100D01*
X242693377Y-43902123D01*
X242728678Y-44018495D01*
X242786004Y-44125744D01*
X242863151Y-44219749D01*
X242935325Y-44278980D01*
X233355378Y-44278980D01*
X233330434Y-44276523D01*
X233305490Y-44278980D01*
X233305487Y-44278980D01*
X233230849Y-44286331D01*
X233135091Y-44315379D01*
X233046839Y-44362551D01*
X232969486Y-44426032D01*
X232953579Y-44445415D01*
X232537001Y-44861993D01*
X232120422Y-44445415D01*
X232104515Y-44426032D01*
X232027162Y-44362551D01*
X231938910Y-44315379D01*
X231843152Y-44286331D01*
X231768514Y-44278980D01*
X231768511Y-44278980D01*
X231743567Y-44276523D01*
X231718623Y-44278980D01*
X221783075Y-44278980D01*
X221855249Y-44219749D01*
X221932396Y-44125744D01*
X221989722Y-44018495D01*
X222025023Y-43902123D01*
X222036943Y-43781100D01*
X222036943Y-43306100D01*
X222025023Y-43185077D01*
X222015559Y-43153878D01*
X231578200Y-43153878D01*
X231578200Y-43307722D01*
X231608213Y-43458609D01*
X231667087Y-43600742D01*
X231752558Y-43728659D01*
X231861341Y-43837442D01*
X231989258Y-43922913D01*
X232131391Y-43981787D01*
X232282278Y-44011800D01*
X232436122Y-44011800D01*
X232587009Y-43981787D01*
X232729142Y-43922913D01*
X232857059Y-43837442D01*
X232965842Y-43728659D01*
X233051313Y-43600742D01*
X233110187Y-43458609D01*
X233140200Y-43307722D01*
X233140200Y-43153878D01*
X233110187Y-43002991D01*
X233051313Y-42860858D01*
X232965842Y-42732941D01*
X232867200Y-42634299D01*
X232867200Y-33586020D01*
X233598265Y-32854955D01*
X233617648Y-32839048D01*
X233681129Y-32761695D01*
X233728301Y-32673443D01*
X233757349Y-32577685D01*
X233763065Y-32519643D01*
X233781595Y-32514022D01*
X233888844Y-32456696D01*
X233982849Y-32379549D01*
X234059996Y-32285544D01*
X234117322Y-32178295D01*
X234152623Y-32061923D01*
X234164543Y-31940900D01*
X234164543Y-31465900D01*
X234152623Y-31344877D01*
X234117322Y-31228505D01*
X234059996Y-31121256D01*
X233982849Y-31027251D01*
X233888844Y-30950104D01*
X233781595Y-30892778D01*
X233665223Y-30857477D01*
X233544200Y-30845557D01*
X232969200Y-30845557D01*
X232848177Y-30857477D01*
X232731805Y-30892778D01*
X232624556Y-30950104D01*
X232609549Y-30962420D01*
X232562237Y-30873906D01*
X232482885Y-30777215D01*
X232386194Y-30697863D01*
X232275880Y-30638898D01*
X232156182Y-30602588D01*
X232031700Y-30590328D01*
X231792450Y-30593400D01*
X231633700Y-30752150D01*
X231633700Y-31576400D01*
X231653700Y-31576400D01*
X231653700Y-31830400D01*
X231633700Y-31830400D01*
X231633700Y-32654650D01*
X231792450Y-32813400D01*
X232031700Y-32816472D01*
X232156182Y-32804212D01*
X232236546Y-32779834D01*
X232017635Y-32998745D01*
X231998252Y-33014652D01*
X231934771Y-33092005D01*
X231887599Y-33180258D01*
X231858551Y-33276016D01*
X231851200Y-33350653D01*
X231848743Y-33375600D01*
X231851200Y-33400544D01*
X231851201Y-42634298D01*
X231752558Y-42732941D01*
X231667087Y-42860858D01*
X231608213Y-43002991D01*
X231578200Y-43153878D01*
X222015559Y-43153878D01*
X221989722Y-43068705D01*
X221932396Y-42961456D01*
X221855249Y-42867451D01*
X221761244Y-42790304D01*
X221653995Y-42732978D01*
X221637100Y-42727853D01*
X221637100Y-42719043D01*
X221639557Y-42694099D01*
X221637082Y-42668967D01*
X221629749Y-42594515D01*
X221600701Y-42498757D01*
X221553529Y-42410505D01*
X221490048Y-42333152D01*
X221470665Y-42317245D01*
X221229855Y-42076435D01*
X221213948Y-42057052D01*
X221136595Y-41993571D01*
X221048343Y-41946399D01*
X220952585Y-41917351D01*
X220877947Y-41910000D01*
X220877944Y-41910000D01*
X220853000Y-41907543D01*
X220828056Y-41910000D01*
X219206304Y-41910000D01*
X219181360Y-41907543D01*
X219156416Y-41910000D01*
X219156413Y-41910000D01*
X219081775Y-41917351D01*
X218986017Y-41946399D01*
X218897765Y-41993571D01*
X218820412Y-42057052D01*
X218804505Y-42076435D01*
X218185520Y-42695420D01*
X218166143Y-42711322D01*
X218150241Y-42730699D01*
X218150240Y-42730700D01*
X218102661Y-42788675D01*
X218064079Y-42860858D01*
X218055490Y-42876927D01*
X218029849Y-42961456D01*
X218026442Y-42972686D01*
X218016633Y-43072270D01*
X218019091Y-43097224D01*
X218019090Y-44512145D01*
X218016633Y-44537090D01*
X218019090Y-44562034D01*
X218019090Y-44562036D01*
X218026441Y-44636674D01*
X218055489Y-44732432D01*
X218102661Y-44820685D01*
X218166142Y-44898038D01*
X218185525Y-44913945D01*
X218458580Y-45187000D01*
X215601645Y-45187000D01*
X226504988Y-32178400D01*
X230343628Y-32178400D01*
X230355888Y-32302882D01*
X230392198Y-32422580D01*
X230451163Y-32532894D01*
X230530515Y-32629585D01*
X230627206Y-32708937D01*
X230737520Y-32767902D01*
X230857218Y-32804212D01*
X230981700Y-32816472D01*
X231220950Y-32813400D01*
X231379700Y-32654650D01*
X231379700Y-31830400D01*
X230505450Y-31830400D01*
X230346700Y-31989150D01*
X230343628Y-32178400D01*
X226504988Y-32178400D01*
X227301244Y-31228400D01*
X230343628Y-31228400D01*
X230346700Y-31417650D01*
X230505450Y-31576400D01*
X231379700Y-31576400D01*
X231379700Y-30752150D01*
X231220950Y-30593400D01*
X230981700Y-30590328D01*
X230857218Y-30602588D01*
X230737520Y-30638898D01*
X230627206Y-30697863D01*
X230530515Y-30777215D01*
X230451163Y-30873906D01*
X230392198Y-30984220D01*
X230355888Y-31103918D01*
X230343628Y-31228400D01*
X227301244Y-31228400D01*
X229823901Y-28218659D01*
X230928200Y-28218659D01*
X230928200Y-28500541D01*
X230983193Y-28777007D01*
X231091064Y-29037433D01*
X231247670Y-29271809D01*
X231446991Y-29471130D01*
X231681367Y-29627736D01*
X231941793Y-29735607D01*
X232218259Y-29790600D01*
X232500141Y-29790600D01*
X232776607Y-29735607D01*
X233037033Y-29627736D01*
X233271409Y-29471130D01*
X233470730Y-29271809D01*
X233627336Y-29037433D01*
X233735207Y-28777007D01*
X233790200Y-28500541D01*
X233790200Y-28218659D01*
X233735207Y-27942193D01*
X233627336Y-27681767D01*
X233470730Y-27447391D01*
X233271409Y-27248070D01*
X233037033Y-27091464D01*
X232776607Y-26983593D01*
X232500141Y-26928600D01*
X232218259Y-26928600D01*
X231941793Y-26983593D01*
X231681367Y-27091464D01*
X231446991Y-27248070D01*
X231247670Y-27447391D01*
X231091064Y-27681767D01*
X230983193Y-27942193D01*
X230928200Y-28218659D01*
X229823901Y-28218659D01*
X232359200Y-25193837D01*
X249116754Y-45187000D01*
G37*
G04 #@! TD.AperFunction*
M02*
