G04 #@! TF.GenerationSoftware,KiCad,Pcbnew,(5.1.10-1-10_14)*
G04 #@! TF.CreationDate,2021-11-27T23:13:30-07:00*
G04 #@! TF.ProjectId,ChristmasTreePCB,43687269-7374-46d6-9173-547265655043,rev?*
G04 #@! TF.SameCoordinates,Original*
G04 #@! TF.FileFunction,Copper,L2,Bot*
G04 #@! TF.FilePolarity,Positive*
%FSLAX46Y46*%
G04 Gerber Fmt 4.6, Leading zero omitted, Abs format (unit mm)*
G04 Created by KiCad (PCBNEW (5.1.10-1-10_14)) date 2021-11-27 23:13:30*
%MOMM*%
%LPD*%
G01*
G04 APERTURE LIST*
G04 #@! TA.AperFunction,ComponentPad*
%ADD10R,1.700000X1.700000*%
G04 #@! TD*
G04 #@! TA.AperFunction,ComponentPad*
%ADD11O,1.700000X1.700000*%
G04 #@! TD*
G04 #@! TA.AperFunction,ComponentPad*
%ADD12R,2.000000X2.000000*%
G04 #@! TD*
G04 #@! TA.AperFunction,ComponentPad*
%ADD13C,2.000000*%
G04 #@! TD*
G04 #@! TA.AperFunction,ViaPad*
%ADD14C,0.800000*%
G04 #@! TD*
G04 #@! TA.AperFunction,Conductor*
%ADD15C,0.254000*%
G04 #@! TD*
G04 #@! TA.AperFunction,Conductor*
%ADD16C,0.100000*%
G04 #@! TD*
G04 APERTURE END LIST*
D10*
X231084200Y-110697000D03*
D11*
X233624200Y-110697000D03*
X231084200Y-113237000D03*
X233624200Y-113237000D03*
X231084200Y-115777000D03*
X233624200Y-115777000D03*
D12*
X238583201Y-102753101D03*
D13*
X225883201Y-102753101D03*
D14*
X225548467Y-106302533D03*
X230124000Y-105156000D03*
X232283000Y-102743000D03*
X233680000Y-76708000D03*
X239522000Y-79375000D03*
X264414000Y-86360000D03*
X272669000Y-107315000D03*
X255905000Y-65405000D03*
X247713500Y-44577000D03*
X217233500Y-44450000D03*
X208788000Y-65405000D03*
X200279000Y-86360000D03*
X191643000Y-107442000D03*
X252603000Y-95123000D03*
X233807000Y-80264000D03*
X235712000Y-101092000D03*
X254889000Y-95250000D03*
X230759000Y-78359000D03*
X221107000Y-97917000D03*
X232359200Y-43230800D03*
X231267000Y-46101000D03*
X231055899Y-65362101D03*
X223608989Y-86906011D03*
X213685400Y-64571600D03*
X232791000Y-63817500D03*
X232971990Y-73606010D03*
X224335990Y-76400010D03*
X251023400Y-64571600D03*
X231782900Y-64571600D03*
X231394000Y-80518000D03*
X233299000Y-78359000D03*
X250837056Y-105524944D03*
X250825000Y-107442000D03*
X219075000Y-95250000D03*
X220599000Y-96774000D03*
X228077900Y-86501100D03*
X226998400Y-78817600D03*
D15*
X225548467Y-106302533D02*
X226945467Y-106302533D01*
X226945467Y-106302533D02*
X228092000Y-105156000D01*
X228092000Y-105156000D02*
X230124000Y-105156000D01*
X232359200Y-43230800D02*
X231267000Y-44323000D01*
X231267000Y-44323000D02*
X231267000Y-46101000D01*
X231055899Y-65362101D02*
X231055899Y-65425601D01*
X231055899Y-72347101D02*
X231055899Y-65362101D01*
X230280981Y-73122019D02*
X231055899Y-72347101D01*
X226538019Y-73122019D02*
X230280981Y-73122019D01*
X223608989Y-76051049D02*
X226538019Y-73122019D01*
X223608989Y-86906011D02*
X223608989Y-76051049D01*
X229560400Y-64571600D02*
X213685400Y-64571600D01*
X230314500Y-63817500D02*
X229560400Y-64571600D01*
X232791000Y-63817500D02*
X230314500Y-63817500D01*
X224335990Y-76400010D02*
X224335990Y-76253990D01*
X226983970Y-73606010D02*
X232971990Y-73606010D01*
X224335990Y-76253990D02*
X226983970Y-73606010D01*
X231782900Y-64571600D02*
X251023400Y-64571600D01*
X231902000Y-78359000D02*
X233299000Y-78359000D01*
X231394000Y-78867000D02*
X231902000Y-78359000D01*
X231394000Y-80518000D02*
X231394000Y-78867000D01*
X250837056Y-107429944D02*
X250825000Y-107442000D01*
X250837056Y-105524944D02*
X250837056Y-107429944D01*
X219075000Y-95250000D02*
X220599000Y-96774000D01*
X228077900Y-85485100D02*
X228077900Y-86501100D01*
X226998400Y-84405600D02*
X228077900Y-85485100D01*
X226998400Y-78817600D02*
X226998400Y-84405600D01*
X249116754Y-45187000D02*
X241024657Y-45187000D01*
X241022579Y-45186609D01*
X240984770Y-45187000D01*
X240966859Y-45187000D01*
X240964758Y-45187207D01*
X240942609Y-45187436D01*
X240925055Y-45191117D01*
X240907210Y-45192875D01*
X240886010Y-45199306D01*
X240864337Y-45203851D01*
X240847849Y-45210882D01*
X240830679Y-45216090D01*
X240811133Y-45226538D01*
X240790771Y-45235220D01*
X240775974Y-45245331D01*
X240760147Y-45253790D01*
X240743016Y-45267849D01*
X240724738Y-45280338D01*
X240712194Y-45293144D01*
X240698326Y-45304526D01*
X240684267Y-45321656D01*
X240668776Y-45337472D01*
X240658973Y-45352476D01*
X240647590Y-45366347D01*
X240637144Y-45385890D01*
X240625035Y-45404425D01*
X240618346Y-45421059D01*
X240609890Y-45436879D01*
X240603459Y-45458079D01*
X240595197Y-45478625D01*
X240591882Y-45496246D01*
X240586675Y-45513410D01*
X240584503Y-45535461D01*
X240580409Y-45557221D01*
X240580594Y-45575147D01*
X240578836Y-45593000D01*
X240581007Y-45615042D01*
X240581236Y-45637191D01*
X240584917Y-45654745D01*
X240586675Y-45672590D01*
X240593106Y-45693790D01*
X240597651Y-45715463D01*
X240604682Y-45731951D01*
X240609890Y-45749121D01*
X240620338Y-45768667D01*
X240629020Y-45789029D01*
X240639131Y-45803827D01*
X240647590Y-45819653D01*
X240661649Y-45836784D01*
X240662834Y-45838518D01*
X240674268Y-45852160D01*
X240698326Y-45881474D01*
X240699967Y-45882821D01*
X257744354Y-66218200D01*
X249652257Y-66218200D01*
X249650179Y-66217809D01*
X249612370Y-66218200D01*
X249594459Y-66218200D01*
X249592358Y-66218407D01*
X249570209Y-66218636D01*
X249552655Y-66222317D01*
X249534810Y-66224075D01*
X249513610Y-66230506D01*
X249491937Y-66235051D01*
X249475449Y-66242082D01*
X249458279Y-66247290D01*
X249438733Y-66257738D01*
X249418371Y-66266420D01*
X249403574Y-66276531D01*
X249387747Y-66284990D01*
X249370616Y-66299049D01*
X249352338Y-66311538D01*
X249339794Y-66324344D01*
X249325926Y-66335726D01*
X249311867Y-66352856D01*
X249296376Y-66368672D01*
X249286573Y-66383676D01*
X249275190Y-66397547D01*
X249264744Y-66417090D01*
X249252635Y-66435625D01*
X249245946Y-66452259D01*
X249237490Y-66468079D01*
X249231059Y-66489279D01*
X249222797Y-66509825D01*
X249219482Y-66527446D01*
X249214275Y-66544610D01*
X249212103Y-66566661D01*
X249208009Y-66588421D01*
X249208194Y-66606347D01*
X249206436Y-66624200D01*
X249208607Y-66646242D01*
X249208836Y-66668391D01*
X249212517Y-66685945D01*
X249214275Y-66703790D01*
X249220706Y-66724990D01*
X249225251Y-66746663D01*
X249232282Y-66763151D01*
X249237490Y-66780321D01*
X249247938Y-66799867D01*
X249256620Y-66820229D01*
X249266731Y-66835027D01*
X249275190Y-66850853D01*
X249289249Y-66867984D01*
X249290434Y-66869718D01*
X249301868Y-66883360D01*
X249325926Y-66912674D01*
X249327567Y-66914021D01*
X266371954Y-87249400D01*
X258279857Y-87249400D01*
X258277779Y-87249009D01*
X258239970Y-87249400D01*
X258222059Y-87249400D01*
X258219958Y-87249607D01*
X258197809Y-87249836D01*
X258180255Y-87253517D01*
X258162410Y-87255275D01*
X258141210Y-87261706D01*
X258119537Y-87266251D01*
X258103049Y-87273282D01*
X258085879Y-87278490D01*
X258066333Y-87288938D01*
X258045971Y-87297620D01*
X258031174Y-87307731D01*
X258015347Y-87316190D01*
X257998216Y-87330249D01*
X257979938Y-87342738D01*
X257967394Y-87355544D01*
X257953526Y-87366926D01*
X257939467Y-87384056D01*
X257923976Y-87399872D01*
X257914173Y-87414876D01*
X257902790Y-87428747D01*
X257892344Y-87448290D01*
X257880235Y-87466825D01*
X257873546Y-87483459D01*
X257865090Y-87499279D01*
X257858659Y-87520479D01*
X257850397Y-87541025D01*
X257847082Y-87558646D01*
X257841875Y-87575810D01*
X257839703Y-87597861D01*
X257835609Y-87619621D01*
X257835794Y-87637547D01*
X257834036Y-87655400D01*
X257836207Y-87677442D01*
X257836436Y-87699591D01*
X257840117Y-87717145D01*
X257841875Y-87734990D01*
X257848306Y-87756190D01*
X257852851Y-87777863D01*
X257859882Y-87794351D01*
X257865090Y-87811521D01*
X257875538Y-87831067D01*
X257884220Y-87851429D01*
X257894331Y-87866227D01*
X257902790Y-87882053D01*
X257916849Y-87899184D01*
X257918034Y-87900918D01*
X257929468Y-87914560D01*
X257953526Y-87943874D01*
X257955167Y-87945221D01*
X274999554Y-108280600D01*
X236697140Y-108280600D01*
X236677200Y-108278636D01*
X236657259Y-108280600D01*
X236597610Y-108286475D01*
X236521079Y-108309690D01*
X236450547Y-108347390D01*
X236388726Y-108398126D01*
X236337990Y-108459947D01*
X236300290Y-108530479D01*
X236277075Y-108607010D01*
X236269236Y-108686600D01*
X236271200Y-108706541D01*
X236271201Y-118034200D01*
X228447200Y-118034200D01*
X228447200Y-115655757D01*
X229853200Y-115655757D01*
X229853200Y-115898243D01*
X229900507Y-116136069D01*
X229993302Y-116360097D01*
X230128020Y-116561717D01*
X230299483Y-116733180D01*
X230501103Y-116867898D01*
X230725131Y-116960693D01*
X230962957Y-117008000D01*
X231205443Y-117008000D01*
X231443269Y-116960693D01*
X231667297Y-116867898D01*
X231868917Y-116733180D01*
X232040380Y-116561717D01*
X232175098Y-116360097D01*
X232219109Y-116253846D01*
X232227375Y-116281099D01*
X232352559Y-116543920D01*
X232526612Y-116777269D01*
X232742845Y-116972178D01*
X232992948Y-117121157D01*
X233267309Y-117218481D01*
X233497200Y-117097814D01*
X233497200Y-115904000D01*
X233751200Y-115904000D01*
X233751200Y-117097814D01*
X233981091Y-117218481D01*
X234255452Y-117121157D01*
X234505555Y-116972178D01*
X234721788Y-116777269D01*
X234895841Y-116543920D01*
X235021025Y-116281099D01*
X235065676Y-116133890D01*
X234944355Y-115904000D01*
X233751200Y-115904000D01*
X233497200Y-115904000D01*
X233477200Y-115904000D01*
X233477200Y-115650000D01*
X233497200Y-115650000D01*
X233497200Y-115630000D01*
X233751200Y-115630000D01*
X233751200Y-115650000D01*
X234944355Y-115650000D01*
X235065676Y-115420110D01*
X235021025Y-115272901D01*
X234895841Y-115010080D01*
X234721788Y-114776731D01*
X234505555Y-114581822D01*
X234255452Y-114432843D01*
X234093032Y-114375228D01*
X234207297Y-114327898D01*
X234408917Y-114193180D01*
X234580380Y-114021717D01*
X234715098Y-113820097D01*
X234807893Y-113596069D01*
X234855200Y-113358243D01*
X234855200Y-113115757D01*
X234807893Y-112877931D01*
X234715098Y-112653903D01*
X234580380Y-112452283D01*
X234408917Y-112280820D01*
X234207297Y-112146102D01*
X233983269Y-112053307D01*
X233745443Y-112006000D01*
X233502957Y-112006000D01*
X233265131Y-112053307D01*
X233041103Y-112146102D01*
X232839483Y-112280820D01*
X232668020Y-112452283D01*
X232533302Y-112653903D01*
X232440507Y-112877931D01*
X232393200Y-113115757D01*
X232393200Y-113358243D01*
X232440507Y-113596069D01*
X232533302Y-113820097D01*
X232668020Y-114021717D01*
X232839483Y-114193180D01*
X233041103Y-114327898D01*
X233155368Y-114375228D01*
X232992948Y-114432843D01*
X232742845Y-114581822D01*
X232526612Y-114776731D01*
X232352559Y-115010080D01*
X232227375Y-115272901D01*
X232219109Y-115300154D01*
X232175098Y-115193903D01*
X232040380Y-114992283D01*
X231868917Y-114820820D01*
X231667297Y-114686102D01*
X231443269Y-114593307D01*
X231205443Y-114546000D01*
X230962957Y-114546000D01*
X230725131Y-114593307D01*
X230501103Y-114686102D01*
X230299483Y-114820820D01*
X230128020Y-114992283D01*
X229993302Y-115193903D01*
X229900507Y-115417931D01*
X229853200Y-115655757D01*
X228447200Y-115655757D01*
X228447200Y-113115757D01*
X229853200Y-113115757D01*
X229853200Y-113358243D01*
X229900507Y-113596069D01*
X229993302Y-113820097D01*
X230128020Y-114021717D01*
X230299483Y-114193180D01*
X230501103Y-114327898D01*
X230725131Y-114420693D01*
X230962957Y-114468000D01*
X231205443Y-114468000D01*
X231443269Y-114420693D01*
X231667297Y-114327898D01*
X231868917Y-114193180D01*
X232040380Y-114021717D01*
X232175098Y-113820097D01*
X232267893Y-113596069D01*
X232315200Y-113358243D01*
X232315200Y-113115757D01*
X232267893Y-112877931D01*
X232175098Y-112653903D01*
X232040380Y-112452283D01*
X231868917Y-112280820D01*
X231667297Y-112146102D01*
X231443269Y-112053307D01*
X231205443Y-112006000D01*
X230962957Y-112006000D01*
X230725131Y-112053307D01*
X230501103Y-112146102D01*
X230299483Y-112280820D01*
X230128020Y-112452283D01*
X229993302Y-112653903D01*
X229900507Y-112877931D01*
X229853200Y-113115757D01*
X228447200Y-113115757D01*
X228447200Y-109847000D01*
X229851357Y-109847000D01*
X229851357Y-111547000D01*
X229858713Y-111621689D01*
X229880499Y-111693508D01*
X229915878Y-111759696D01*
X229963489Y-111817711D01*
X230021504Y-111865322D01*
X230087692Y-111900701D01*
X230159511Y-111922487D01*
X230234200Y-111929843D01*
X231934200Y-111929843D01*
X232008889Y-111922487D01*
X232080708Y-111900701D01*
X232146896Y-111865322D01*
X232204911Y-111817711D01*
X232252522Y-111759696D01*
X232287901Y-111693508D01*
X232309687Y-111621689D01*
X232317043Y-111547000D01*
X232317043Y-110575757D01*
X232393200Y-110575757D01*
X232393200Y-110818243D01*
X232440507Y-111056069D01*
X232533302Y-111280097D01*
X232668020Y-111481717D01*
X232839483Y-111653180D01*
X233041103Y-111787898D01*
X233265131Y-111880693D01*
X233502957Y-111928000D01*
X233745443Y-111928000D01*
X233983269Y-111880693D01*
X234207297Y-111787898D01*
X234408917Y-111653180D01*
X234580380Y-111481717D01*
X234715098Y-111280097D01*
X234807893Y-111056069D01*
X234855200Y-110818243D01*
X234855200Y-110575757D01*
X234807893Y-110337931D01*
X234715098Y-110113903D01*
X234580380Y-109912283D01*
X234408917Y-109740820D01*
X234207297Y-109606102D01*
X233983269Y-109513307D01*
X233745443Y-109466000D01*
X233502957Y-109466000D01*
X233265131Y-109513307D01*
X233041103Y-109606102D01*
X232839483Y-109740820D01*
X232668020Y-109912283D01*
X232533302Y-110113903D01*
X232440507Y-110337931D01*
X232393200Y-110575757D01*
X232317043Y-110575757D01*
X232317043Y-109847000D01*
X232309687Y-109772311D01*
X232287901Y-109700492D01*
X232252522Y-109634304D01*
X232204911Y-109576289D01*
X232146896Y-109528678D01*
X232080708Y-109493299D01*
X232008889Y-109471513D01*
X231934200Y-109464157D01*
X230234200Y-109464157D01*
X230159511Y-109471513D01*
X230087692Y-109493299D01*
X230021504Y-109528678D01*
X229963489Y-109576289D01*
X229915878Y-109634304D01*
X229880499Y-109700492D01*
X229858713Y-109772311D01*
X229851357Y-109847000D01*
X228447200Y-109847000D01*
X228447200Y-108706541D01*
X228449164Y-108686600D01*
X228441325Y-108607010D01*
X228418110Y-108530479D01*
X228380410Y-108459947D01*
X228329674Y-108398126D01*
X228267853Y-108347390D01*
X228197321Y-108309690D01*
X228120790Y-108286475D01*
X228061141Y-108280600D01*
X228061140Y-108280600D01*
X228041200Y-108278636D01*
X228021259Y-108280600D01*
X189718845Y-108280600D01*
X190486202Y-107365078D01*
X250044000Y-107365078D01*
X250044000Y-107518922D01*
X250074013Y-107669809D01*
X250132887Y-107811942D01*
X250218358Y-107939859D01*
X250327141Y-108048642D01*
X250455058Y-108134113D01*
X250597191Y-108192987D01*
X250748078Y-108223000D01*
X250901922Y-108223000D01*
X251052809Y-108192987D01*
X251194942Y-108134113D01*
X251322859Y-108048642D01*
X251431642Y-107939859D01*
X251517113Y-107811942D01*
X251575987Y-107669809D01*
X251606000Y-107518922D01*
X251606000Y-107365078D01*
X251575987Y-107214191D01*
X251517113Y-107072058D01*
X251431642Y-106944141D01*
X251345056Y-106857555D01*
X251345056Y-106121445D01*
X251443698Y-106022803D01*
X251529169Y-105894886D01*
X251588043Y-105752753D01*
X251618056Y-105601866D01*
X251618056Y-105448022D01*
X251588043Y-105297135D01*
X251529169Y-105155002D01*
X251443698Y-105027085D01*
X251334915Y-104918302D01*
X251206998Y-104832831D01*
X251064865Y-104773957D01*
X250913978Y-104743944D01*
X250760134Y-104743944D01*
X250609247Y-104773957D01*
X250467114Y-104832831D01*
X250339197Y-104918302D01*
X250230414Y-105027085D01*
X250144943Y-105155002D01*
X250086069Y-105297135D01*
X250056056Y-105448022D01*
X250056056Y-105601866D01*
X250086069Y-105752753D01*
X250144943Y-105894886D01*
X250230414Y-106022803D01*
X250329056Y-106121445D01*
X250329057Y-106834078D01*
X250327141Y-106835358D01*
X250218358Y-106944141D01*
X250132887Y-107072058D01*
X250074013Y-107214191D01*
X250044000Y-107365078D01*
X190486202Y-107365078D01*
X191441263Y-106225611D01*
X224767467Y-106225611D01*
X224767467Y-106379455D01*
X224797480Y-106530342D01*
X224856354Y-106672475D01*
X224941825Y-106800392D01*
X225050608Y-106909175D01*
X225178525Y-106994646D01*
X225320658Y-107053520D01*
X225471545Y-107083533D01*
X225625389Y-107083533D01*
X225776276Y-107053520D01*
X225918409Y-106994646D01*
X226046326Y-106909175D01*
X226144968Y-106810533D01*
X226920523Y-106810533D01*
X226945467Y-106812990D01*
X226970411Y-106810533D01*
X226970414Y-106810533D01*
X227045052Y-106803182D01*
X227140810Y-106774134D01*
X227229062Y-106726962D01*
X227306415Y-106663481D01*
X227322322Y-106644098D01*
X228302420Y-105664000D01*
X229527499Y-105664000D01*
X229626141Y-105762642D01*
X229754058Y-105848113D01*
X229896191Y-105906987D01*
X230047078Y-105937000D01*
X230200922Y-105937000D01*
X230351809Y-105906987D01*
X230493942Y-105848113D01*
X230621859Y-105762642D01*
X230730642Y-105653859D01*
X230816113Y-105525942D01*
X230874987Y-105383809D01*
X230905000Y-105232922D01*
X230905000Y-105079078D01*
X230874987Y-104928191D01*
X230816113Y-104786058D01*
X230730642Y-104658141D01*
X230621859Y-104549358D01*
X230493942Y-104463887D01*
X230351809Y-104405013D01*
X230200922Y-104375000D01*
X230047078Y-104375000D01*
X229896191Y-104405013D01*
X229754058Y-104463887D01*
X229626141Y-104549358D01*
X229527499Y-104648000D01*
X228116944Y-104648000D01*
X228092000Y-104645543D01*
X228067056Y-104648000D01*
X228067053Y-104648000D01*
X227992415Y-104655351D01*
X227896657Y-104684399D01*
X227808405Y-104731571D01*
X227731052Y-104795052D01*
X227715145Y-104814435D01*
X226735047Y-105794533D01*
X226144968Y-105794533D01*
X226046326Y-105695891D01*
X225918409Y-105610420D01*
X225776276Y-105551546D01*
X225625389Y-105521533D01*
X225471545Y-105521533D01*
X225320658Y-105551546D01*
X225178525Y-105610420D01*
X225050608Y-105695891D01*
X224941825Y-105804674D01*
X224856354Y-105932591D01*
X224797480Y-106074724D01*
X224767467Y-106225611D01*
X191441263Y-106225611D01*
X193400134Y-103888514D01*
X224927393Y-103888514D01*
X225023157Y-104152915D01*
X225312772Y-104293805D01*
X225624309Y-104375485D01*
X225945796Y-104394819D01*
X226264876Y-104351062D01*
X226569289Y-104245896D01*
X226743245Y-104152915D01*
X226839009Y-103888514D01*
X225883201Y-102932706D01*
X224927393Y-103888514D01*
X193400134Y-103888514D01*
X194299332Y-102815696D01*
X224241483Y-102815696D01*
X224285240Y-103134776D01*
X224390406Y-103439189D01*
X224483387Y-103613145D01*
X224747788Y-103708909D01*
X225703596Y-102753101D01*
X226062806Y-102753101D01*
X227018614Y-103708909D01*
X227283015Y-103613145D01*
X227423905Y-103323530D01*
X227505585Y-103011993D01*
X227524919Y-102690506D01*
X227481162Y-102371426D01*
X227375996Y-102067013D01*
X227283015Y-101893057D01*
X227018614Y-101797293D01*
X226062806Y-102753101D01*
X225703596Y-102753101D01*
X224747788Y-101797293D01*
X224483387Y-101893057D01*
X224342497Y-102182672D01*
X224260817Y-102494209D01*
X224241483Y-102815696D01*
X194299332Y-102815696D01*
X195303459Y-101617688D01*
X224927393Y-101617688D01*
X225883201Y-102573496D01*
X226703596Y-101753101D01*
X237200358Y-101753101D01*
X237200358Y-103753101D01*
X237207714Y-103827790D01*
X237229500Y-103899609D01*
X237264879Y-103965797D01*
X237312490Y-104023812D01*
X237370505Y-104071423D01*
X237436693Y-104106802D01*
X237508512Y-104128588D01*
X237583201Y-104135944D01*
X239583201Y-104135944D01*
X239657890Y-104128588D01*
X239729709Y-104106802D01*
X239795897Y-104071423D01*
X239853912Y-104023812D01*
X239901523Y-103965797D01*
X239936902Y-103899609D01*
X239958688Y-103827790D01*
X239966044Y-103753101D01*
X239966044Y-101753101D01*
X239958688Y-101678412D01*
X239936902Y-101606593D01*
X239901523Y-101540405D01*
X239853912Y-101482390D01*
X239795897Y-101434779D01*
X239729709Y-101399400D01*
X239657890Y-101377614D01*
X239583201Y-101370258D01*
X237583201Y-101370258D01*
X237508512Y-101377614D01*
X237436693Y-101399400D01*
X237370505Y-101434779D01*
X237312490Y-101482390D01*
X237264879Y-101540405D01*
X237229500Y-101606593D01*
X237207714Y-101678412D01*
X237200358Y-101753101D01*
X226703596Y-101753101D01*
X226839009Y-101617688D01*
X226743245Y-101353287D01*
X226453630Y-101212397D01*
X226142093Y-101130717D01*
X225820606Y-101111383D01*
X225501526Y-101155140D01*
X225197113Y-101260306D01*
X225023157Y-101353287D01*
X224927393Y-101617688D01*
X195303459Y-101617688D01*
X200705102Y-95173078D01*
X218294000Y-95173078D01*
X218294000Y-95326922D01*
X218324013Y-95477809D01*
X218382887Y-95619942D01*
X218468358Y-95747859D01*
X218577141Y-95856642D01*
X218705058Y-95942113D01*
X218847191Y-96000987D01*
X218998078Y-96031000D01*
X219137580Y-96031000D01*
X219818000Y-96711421D01*
X219818000Y-96850922D01*
X219848013Y-97001809D01*
X219906887Y-97143942D01*
X219992358Y-97271859D01*
X220101141Y-97380642D01*
X220229058Y-97466113D01*
X220371191Y-97524987D01*
X220522078Y-97555000D01*
X220675922Y-97555000D01*
X220826809Y-97524987D01*
X220968942Y-97466113D01*
X221096859Y-97380642D01*
X221205642Y-97271859D01*
X221291113Y-97143942D01*
X221349987Y-97001809D01*
X221380000Y-96850922D01*
X221380000Y-96697078D01*
X221349987Y-96546191D01*
X221291113Y-96404058D01*
X221205642Y-96276141D01*
X221096859Y-96167358D01*
X220968942Y-96081887D01*
X220826809Y-96023013D01*
X220675922Y-95993000D01*
X220536421Y-95993000D01*
X219856000Y-95312580D01*
X219856000Y-95173078D01*
X219825987Y-95022191D01*
X219767113Y-94880058D01*
X219681642Y-94752141D01*
X219572859Y-94643358D01*
X219444942Y-94557887D01*
X219302809Y-94499013D01*
X219151922Y-94469000D01*
X218998078Y-94469000D01*
X218847191Y-94499013D01*
X218705058Y-94557887D01*
X218577141Y-94643358D01*
X218468358Y-94752141D01*
X218382887Y-94880058D01*
X218324013Y-95022191D01*
X218294000Y-95173078D01*
X200705102Y-95173078D01*
X206763236Y-87945219D01*
X206764874Y-87943874D01*
X206788893Y-87914608D01*
X206800366Y-87900919D01*
X206801555Y-87899179D01*
X206815610Y-87882053D01*
X206824067Y-87866231D01*
X206834180Y-87851430D01*
X206842865Y-87831063D01*
X206853310Y-87811521D01*
X206858517Y-87794355D01*
X206865549Y-87777864D01*
X206870095Y-87756188D01*
X206876525Y-87734990D01*
X206878283Y-87717146D01*
X206881964Y-87699591D01*
X206882193Y-87677442D01*
X206884364Y-87655400D01*
X206882606Y-87637547D01*
X206882791Y-87619621D01*
X206878697Y-87597861D01*
X206876525Y-87575810D01*
X206871318Y-87558646D01*
X206868003Y-87541025D01*
X206859741Y-87520479D01*
X206853310Y-87499279D01*
X206844854Y-87483459D01*
X206838165Y-87466825D01*
X206826056Y-87448290D01*
X206815610Y-87428747D01*
X206804227Y-87414876D01*
X206794424Y-87399872D01*
X206778933Y-87384056D01*
X206764874Y-87366926D01*
X206751006Y-87355544D01*
X206738462Y-87342738D01*
X206720184Y-87330249D01*
X206703053Y-87316190D01*
X206687226Y-87307731D01*
X206672429Y-87297620D01*
X206652067Y-87288938D01*
X206632521Y-87278490D01*
X206615351Y-87273282D01*
X206598863Y-87266251D01*
X206577190Y-87261706D01*
X206555990Y-87255275D01*
X206538145Y-87253517D01*
X206520591Y-87249836D01*
X206498442Y-87249607D01*
X206496341Y-87249400D01*
X206478430Y-87249400D01*
X206440620Y-87249009D01*
X206438542Y-87249400D01*
X198346445Y-87249400D01*
X215390836Y-66914019D01*
X215392474Y-66912674D01*
X215416493Y-66883408D01*
X215427966Y-66869719D01*
X215429155Y-66867979D01*
X215443210Y-66850853D01*
X215451667Y-66835031D01*
X215461780Y-66820230D01*
X215470465Y-66799863D01*
X215480910Y-66780321D01*
X215486117Y-66763155D01*
X215493149Y-66746664D01*
X215497695Y-66724988D01*
X215504125Y-66703790D01*
X215505883Y-66685946D01*
X215509564Y-66668391D01*
X215509793Y-66646242D01*
X215511964Y-66624200D01*
X215510206Y-66606347D01*
X215510391Y-66588421D01*
X215506297Y-66566661D01*
X215504125Y-66544610D01*
X215498918Y-66527446D01*
X215495603Y-66509825D01*
X215487341Y-66489279D01*
X215480910Y-66468079D01*
X215472454Y-66452259D01*
X215465765Y-66435625D01*
X215453656Y-66417090D01*
X215443210Y-66397547D01*
X215431827Y-66383676D01*
X215422024Y-66368672D01*
X215406533Y-66352856D01*
X215392474Y-66335726D01*
X215378606Y-66324344D01*
X215366062Y-66311538D01*
X215347784Y-66299049D01*
X215330653Y-66284990D01*
X215314826Y-66276531D01*
X215300029Y-66266420D01*
X215279667Y-66257738D01*
X215260121Y-66247290D01*
X215242951Y-66242082D01*
X215226463Y-66235051D01*
X215204790Y-66230506D01*
X215183590Y-66224075D01*
X215165745Y-66222317D01*
X215148191Y-66218636D01*
X215126042Y-66218407D01*
X215123941Y-66218200D01*
X215106030Y-66218200D01*
X215068220Y-66217809D01*
X215066142Y-66218200D01*
X206974045Y-66218200D01*
X208418639Y-64494678D01*
X212904400Y-64494678D01*
X212904400Y-64648522D01*
X212934413Y-64799409D01*
X212993287Y-64941542D01*
X213078758Y-65069459D01*
X213187541Y-65178242D01*
X213315458Y-65263713D01*
X213457591Y-65322587D01*
X213608478Y-65352600D01*
X213762322Y-65352600D01*
X213913209Y-65322587D01*
X214055342Y-65263713D01*
X214183259Y-65178242D01*
X214281901Y-65079600D01*
X229535456Y-65079600D01*
X229560400Y-65082057D01*
X229585344Y-65079600D01*
X229585347Y-65079600D01*
X229659985Y-65072249D01*
X229755743Y-65043201D01*
X229843995Y-64996029D01*
X229921348Y-64932548D01*
X229937255Y-64913165D01*
X230524921Y-64325500D01*
X231039489Y-64325500D01*
X231031913Y-64343791D01*
X231001900Y-64494678D01*
X231001900Y-64581101D01*
X230978977Y-64581101D01*
X230828090Y-64611114D01*
X230685957Y-64669988D01*
X230558040Y-64755459D01*
X230449257Y-64864242D01*
X230363786Y-64992159D01*
X230304912Y-65134292D01*
X230274899Y-65285179D01*
X230274899Y-65439023D01*
X230304912Y-65589910D01*
X230363786Y-65732043D01*
X230449257Y-65859960D01*
X230547900Y-65958603D01*
X230547899Y-72136681D01*
X230070561Y-72614019D01*
X226562963Y-72614019D01*
X226538019Y-72611562D01*
X226513075Y-72614019D01*
X226513072Y-72614019D01*
X226438434Y-72621370D01*
X226342676Y-72650418D01*
X226301595Y-72672376D01*
X226254423Y-72697590D01*
X226241679Y-72708049D01*
X226177071Y-72761071D01*
X226161169Y-72780448D01*
X223267419Y-75674199D01*
X223248042Y-75690101D01*
X223232140Y-75709478D01*
X223232139Y-75709479D01*
X223184560Y-75767454D01*
X223137389Y-75855706D01*
X223108341Y-75951465D01*
X223098532Y-76051049D01*
X223100990Y-76076003D01*
X223100989Y-86309510D01*
X223002347Y-86408152D01*
X222916876Y-86536069D01*
X222858002Y-86678202D01*
X222827989Y-86829089D01*
X222827989Y-86982933D01*
X222858002Y-87133820D01*
X222916876Y-87275953D01*
X223002347Y-87403870D01*
X223111130Y-87512653D01*
X223239047Y-87598124D01*
X223381180Y-87656998D01*
X223532067Y-87687011D01*
X223685911Y-87687011D01*
X223836798Y-87656998D01*
X223978931Y-87598124D01*
X224106848Y-87512653D01*
X224215631Y-87403870D01*
X224301102Y-87275953D01*
X224359976Y-87133820D01*
X224389989Y-86982933D01*
X224389989Y-86829089D01*
X224359976Y-86678202D01*
X224301102Y-86536069D01*
X224215631Y-86408152D01*
X224116989Y-86309510D01*
X224116989Y-78740678D01*
X226217400Y-78740678D01*
X226217400Y-78894522D01*
X226247413Y-79045409D01*
X226306287Y-79187542D01*
X226391758Y-79315459D01*
X226490400Y-79414101D01*
X226490401Y-84380646D01*
X226487943Y-84405600D01*
X226497752Y-84505184D01*
X226526800Y-84600943D01*
X226573971Y-84689195D01*
X226621550Y-84747170D01*
X226637453Y-84766548D01*
X226656830Y-84782450D01*
X227569900Y-85695520D01*
X227569900Y-85904599D01*
X227471258Y-86003241D01*
X227385787Y-86131158D01*
X227326913Y-86273291D01*
X227296900Y-86424178D01*
X227296900Y-86578022D01*
X227326913Y-86728909D01*
X227385787Y-86871042D01*
X227471258Y-86998959D01*
X227580041Y-87107742D01*
X227707958Y-87193213D01*
X227850091Y-87252087D01*
X228000978Y-87282100D01*
X228154822Y-87282100D01*
X228305709Y-87252087D01*
X228447842Y-87193213D01*
X228575759Y-87107742D01*
X228684542Y-86998959D01*
X228770013Y-86871042D01*
X228828887Y-86728909D01*
X228858900Y-86578022D01*
X228858900Y-86424178D01*
X228828887Y-86273291D01*
X228770013Y-86131158D01*
X228684542Y-86003241D01*
X228585900Y-85904599D01*
X228585900Y-85510044D01*
X228588357Y-85485100D01*
X228585900Y-85460153D01*
X228578549Y-85385515D01*
X228549501Y-85289757D01*
X228502329Y-85201505D01*
X228438848Y-85124152D01*
X228419465Y-85108245D01*
X227506400Y-84195180D01*
X227506400Y-80441078D01*
X230613000Y-80441078D01*
X230613000Y-80594922D01*
X230643013Y-80745809D01*
X230701887Y-80887942D01*
X230787358Y-81015859D01*
X230896141Y-81124642D01*
X231024058Y-81210113D01*
X231166191Y-81268987D01*
X231317078Y-81299000D01*
X231470922Y-81299000D01*
X231621809Y-81268987D01*
X231763942Y-81210113D01*
X231891859Y-81124642D01*
X232000642Y-81015859D01*
X232086113Y-80887942D01*
X232144987Y-80745809D01*
X232175000Y-80594922D01*
X232175000Y-80441078D01*
X232144987Y-80290191D01*
X232086113Y-80148058D01*
X232000642Y-80020141D01*
X231902000Y-79921499D01*
X231902000Y-79077420D01*
X232112421Y-78867000D01*
X232702499Y-78867000D01*
X232801141Y-78965642D01*
X232929058Y-79051113D01*
X233071191Y-79109987D01*
X233222078Y-79140000D01*
X233375922Y-79140000D01*
X233526809Y-79109987D01*
X233668942Y-79051113D01*
X233796859Y-78965642D01*
X233905642Y-78856859D01*
X233991113Y-78728942D01*
X234049987Y-78586809D01*
X234080000Y-78435922D01*
X234080000Y-78282078D01*
X234049987Y-78131191D01*
X233991113Y-77989058D01*
X233905642Y-77861141D01*
X233796859Y-77752358D01*
X233668942Y-77666887D01*
X233526809Y-77608013D01*
X233375922Y-77578000D01*
X233222078Y-77578000D01*
X233071191Y-77608013D01*
X232929058Y-77666887D01*
X232801141Y-77752358D01*
X232702499Y-77851000D01*
X231926943Y-77851000D01*
X231901999Y-77848543D01*
X231877055Y-77851000D01*
X231877053Y-77851000D01*
X231802415Y-77858351D01*
X231706657Y-77887399D01*
X231706655Y-77887400D01*
X231618404Y-77934571D01*
X231563810Y-77979376D01*
X231541052Y-77998052D01*
X231525149Y-78017430D01*
X231052430Y-78490150D01*
X231033053Y-78506052D01*
X231017151Y-78525429D01*
X231017150Y-78525430D01*
X230969571Y-78583405D01*
X230922400Y-78671657D01*
X230908338Y-78718015D01*
X230893352Y-78767416D01*
X230883543Y-78867000D01*
X230886001Y-78891954D01*
X230886000Y-79921499D01*
X230787358Y-80020141D01*
X230701887Y-80148058D01*
X230643013Y-80290191D01*
X230613000Y-80441078D01*
X227506400Y-80441078D01*
X227506400Y-79414101D01*
X227605042Y-79315459D01*
X227690513Y-79187542D01*
X227749387Y-79045409D01*
X227779400Y-78894522D01*
X227779400Y-78740678D01*
X227749387Y-78589791D01*
X227690513Y-78447658D01*
X227605042Y-78319741D01*
X227496259Y-78210958D01*
X227368342Y-78125487D01*
X227226209Y-78066613D01*
X227075322Y-78036600D01*
X226921478Y-78036600D01*
X226770591Y-78066613D01*
X226628458Y-78125487D01*
X226500541Y-78210958D01*
X226391758Y-78319741D01*
X226306287Y-78447658D01*
X226247413Y-78589791D01*
X226217400Y-78740678D01*
X224116989Y-78740678D01*
X224116989Y-77152749D01*
X224259068Y-77181010D01*
X224412912Y-77181010D01*
X224563799Y-77150997D01*
X224705932Y-77092123D01*
X224833849Y-77006652D01*
X224942632Y-76897869D01*
X225028103Y-76769952D01*
X225086977Y-76627819D01*
X225116990Y-76476932D01*
X225116990Y-76323088D01*
X225095143Y-76213257D01*
X227194391Y-74114010D01*
X232375489Y-74114010D01*
X232474131Y-74212652D01*
X232602048Y-74298123D01*
X232744181Y-74356997D01*
X232895068Y-74387010D01*
X233048912Y-74387010D01*
X233199799Y-74356997D01*
X233341932Y-74298123D01*
X233469849Y-74212652D01*
X233578632Y-74103869D01*
X233664103Y-73975952D01*
X233722977Y-73833819D01*
X233752990Y-73682932D01*
X233752990Y-73529088D01*
X233722977Y-73378201D01*
X233664103Y-73236068D01*
X233578632Y-73108151D01*
X233469849Y-72999368D01*
X233341932Y-72913897D01*
X233199799Y-72855023D01*
X233048912Y-72825010D01*
X232895068Y-72825010D01*
X232744181Y-72855023D01*
X232602048Y-72913897D01*
X232474131Y-72999368D01*
X232375489Y-73098010D01*
X231023410Y-73098010D01*
X231397464Y-72723956D01*
X231416847Y-72708049D01*
X231480328Y-72630696D01*
X231527500Y-72542444D01*
X231556548Y-72446686D01*
X231563899Y-72372048D01*
X231563899Y-72372045D01*
X231566356Y-72347101D01*
X231563899Y-72322157D01*
X231563899Y-65958602D01*
X231662541Y-65859960D01*
X231748012Y-65732043D01*
X231806886Y-65589910D01*
X231836899Y-65439023D01*
X231836899Y-65352600D01*
X231859822Y-65352600D01*
X232010709Y-65322587D01*
X232152842Y-65263713D01*
X232280759Y-65178242D01*
X232379401Y-65079600D01*
X250426899Y-65079600D01*
X250525541Y-65178242D01*
X250653458Y-65263713D01*
X250795591Y-65322587D01*
X250946478Y-65352600D01*
X251100322Y-65352600D01*
X251251209Y-65322587D01*
X251393342Y-65263713D01*
X251521259Y-65178242D01*
X251630042Y-65069459D01*
X251715513Y-64941542D01*
X251774387Y-64799409D01*
X251804400Y-64648522D01*
X251804400Y-64494678D01*
X251774387Y-64343791D01*
X251715513Y-64201658D01*
X251630042Y-64073741D01*
X251521259Y-63964958D01*
X251393342Y-63879487D01*
X251251209Y-63820613D01*
X251100322Y-63790600D01*
X250946478Y-63790600D01*
X250795591Y-63820613D01*
X250653458Y-63879487D01*
X250525541Y-63964958D01*
X250426899Y-64063600D01*
X233534411Y-64063600D01*
X233541987Y-64045309D01*
X233572000Y-63894422D01*
X233572000Y-63740578D01*
X233541987Y-63589691D01*
X233483113Y-63447558D01*
X233397642Y-63319641D01*
X233288859Y-63210858D01*
X233160942Y-63125387D01*
X233018809Y-63066513D01*
X232867922Y-63036500D01*
X232714078Y-63036500D01*
X232563191Y-63066513D01*
X232421058Y-63125387D01*
X232293141Y-63210858D01*
X232194499Y-63309500D01*
X230339443Y-63309500D01*
X230314499Y-63307043D01*
X230289555Y-63309500D01*
X230289553Y-63309500D01*
X230214915Y-63316851D01*
X230119157Y-63345899D01*
X230119155Y-63345900D01*
X230030904Y-63393071D01*
X229976310Y-63437876D01*
X229953552Y-63456552D01*
X229937650Y-63475930D01*
X229349980Y-64063600D01*
X214281901Y-64063600D01*
X214183259Y-63964958D01*
X214055342Y-63879487D01*
X213913209Y-63820613D01*
X213762322Y-63790600D01*
X213608478Y-63790600D01*
X213457591Y-63820613D01*
X213315458Y-63879487D01*
X213187541Y-63964958D01*
X213078758Y-64073741D01*
X212993287Y-64201658D01*
X212934413Y-64343791D01*
X212904400Y-64494678D01*
X208418639Y-64494678D01*
X223900037Y-46024078D01*
X230486000Y-46024078D01*
X230486000Y-46177922D01*
X230516013Y-46328809D01*
X230574887Y-46470942D01*
X230660358Y-46598859D01*
X230769141Y-46707642D01*
X230897058Y-46793113D01*
X231039191Y-46851987D01*
X231190078Y-46882000D01*
X231343922Y-46882000D01*
X231494809Y-46851987D01*
X231636942Y-46793113D01*
X231764859Y-46707642D01*
X231873642Y-46598859D01*
X231959113Y-46470942D01*
X232017987Y-46328809D01*
X232048000Y-46177922D01*
X232048000Y-46024078D01*
X232017987Y-45873191D01*
X231959113Y-45731058D01*
X231873642Y-45603141D01*
X231775000Y-45504499D01*
X231775000Y-44533420D01*
X232296621Y-44011800D01*
X232436122Y-44011800D01*
X232587009Y-43981787D01*
X232729142Y-43922913D01*
X232857059Y-43837442D01*
X232965842Y-43728659D01*
X233051313Y-43600742D01*
X233110187Y-43458609D01*
X233140200Y-43307722D01*
X233140200Y-43153878D01*
X233110187Y-43002991D01*
X233051313Y-42860858D01*
X232965842Y-42732941D01*
X232857059Y-42624158D01*
X232729142Y-42538687D01*
X232587009Y-42479813D01*
X232436122Y-42449800D01*
X232282278Y-42449800D01*
X232131391Y-42479813D01*
X231989258Y-42538687D01*
X231861341Y-42624158D01*
X231752558Y-42732941D01*
X231667087Y-42860858D01*
X231608213Y-43002991D01*
X231578200Y-43153878D01*
X231578200Y-43293379D01*
X230925435Y-43946145D01*
X230906052Y-43962052D01*
X230842571Y-44039405D01*
X230795399Y-44127658D01*
X230766351Y-44223416D01*
X230759000Y-44298053D01*
X230756543Y-44323000D01*
X230759000Y-44347945D01*
X230759001Y-45504498D01*
X230660358Y-45603141D01*
X230574887Y-45731058D01*
X230516013Y-45873191D01*
X230486000Y-46024078D01*
X223900037Y-46024078D01*
X224018436Y-45882819D01*
X224020074Y-45881474D01*
X224044093Y-45852208D01*
X224055566Y-45838519D01*
X224056755Y-45836779D01*
X224070810Y-45819653D01*
X224079267Y-45803831D01*
X224089380Y-45789030D01*
X224098065Y-45768663D01*
X224108510Y-45749121D01*
X224113717Y-45731955D01*
X224120749Y-45715464D01*
X224125295Y-45693788D01*
X224131725Y-45672590D01*
X224133483Y-45654746D01*
X224137164Y-45637191D01*
X224137393Y-45615042D01*
X224139564Y-45593000D01*
X224137806Y-45575147D01*
X224137991Y-45557221D01*
X224133897Y-45535461D01*
X224131725Y-45513410D01*
X224126518Y-45496246D01*
X224123203Y-45478625D01*
X224114941Y-45458079D01*
X224108510Y-45436879D01*
X224100054Y-45421059D01*
X224093365Y-45404425D01*
X224081256Y-45385890D01*
X224070810Y-45366347D01*
X224059427Y-45352476D01*
X224049624Y-45337472D01*
X224034133Y-45321656D01*
X224020074Y-45304526D01*
X224006206Y-45293144D01*
X223993662Y-45280338D01*
X223975384Y-45267849D01*
X223958253Y-45253790D01*
X223942426Y-45245331D01*
X223927629Y-45235220D01*
X223907267Y-45226538D01*
X223887721Y-45216090D01*
X223870551Y-45210882D01*
X223854063Y-45203851D01*
X223832390Y-45199306D01*
X223811190Y-45192875D01*
X223793345Y-45191117D01*
X223775791Y-45187436D01*
X223753642Y-45187207D01*
X223751541Y-45187000D01*
X223733630Y-45187000D01*
X223695820Y-45186609D01*
X223693742Y-45187000D01*
X215601645Y-45187000D01*
X229823902Y-28218659D01*
X230928200Y-28218659D01*
X230928200Y-28500541D01*
X230983193Y-28777007D01*
X231091064Y-29037433D01*
X231247670Y-29271809D01*
X231446991Y-29471130D01*
X231681367Y-29627736D01*
X231941793Y-29735607D01*
X232218259Y-29790600D01*
X232500141Y-29790600D01*
X232776607Y-29735607D01*
X233037033Y-29627736D01*
X233271409Y-29471130D01*
X233470730Y-29271809D01*
X233627336Y-29037433D01*
X233735207Y-28777007D01*
X233790200Y-28500541D01*
X233790200Y-28218659D01*
X233735207Y-27942193D01*
X233627336Y-27681767D01*
X233470730Y-27447391D01*
X233271409Y-27248070D01*
X233037033Y-27091464D01*
X232776607Y-26983593D01*
X232500141Y-26928600D01*
X232218259Y-26928600D01*
X231941793Y-26983593D01*
X231681367Y-27091464D01*
X231446991Y-27248070D01*
X231247670Y-27447391D01*
X231091064Y-27681767D01*
X230983193Y-27942193D01*
X230928200Y-28218659D01*
X229823902Y-28218659D01*
X232359200Y-25193837D01*
X249116754Y-45187000D01*
G04 #@! TA.AperFunction,Conductor*
D16*
G36*
X249116754Y-45187000D02*
G01*
X241024657Y-45187000D01*
X241022579Y-45186609D01*
X240984770Y-45187000D01*
X240966859Y-45187000D01*
X240964758Y-45187207D01*
X240942609Y-45187436D01*
X240925055Y-45191117D01*
X240907210Y-45192875D01*
X240886010Y-45199306D01*
X240864337Y-45203851D01*
X240847849Y-45210882D01*
X240830679Y-45216090D01*
X240811133Y-45226538D01*
X240790771Y-45235220D01*
X240775974Y-45245331D01*
X240760147Y-45253790D01*
X240743016Y-45267849D01*
X240724738Y-45280338D01*
X240712194Y-45293144D01*
X240698326Y-45304526D01*
X240684267Y-45321656D01*
X240668776Y-45337472D01*
X240658973Y-45352476D01*
X240647590Y-45366347D01*
X240637144Y-45385890D01*
X240625035Y-45404425D01*
X240618346Y-45421059D01*
X240609890Y-45436879D01*
X240603459Y-45458079D01*
X240595197Y-45478625D01*
X240591882Y-45496246D01*
X240586675Y-45513410D01*
X240584503Y-45535461D01*
X240580409Y-45557221D01*
X240580594Y-45575147D01*
X240578836Y-45593000D01*
X240581007Y-45615042D01*
X240581236Y-45637191D01*
X240584917Y-45654745D01*
X240586675Y-45672590D01*
X240593106Y-45693790D01*
X240597651Y-45715463D01*
X240604682Y-45731951D01*
X240609890Y-45749121D01*
X240620338Y-45768667D01*
X240629020Y-45789029D01*
X240639131Y-45803827D01*
X240647590Y-45819653D01*
X240661649Y-45836784D01*
X240662834Y-45838518D01*
X240674268Y-45852160D01*
X240698326Y-45881474D01*
X240699967Y-45882821D01*
X257744354Y-66218200D01*
X249652257Y-66218200D01*
X249650179Y-66217809D01*
X249612370Y-66218200D01*
X249594459Y-66218200D01*
X249592358Y-66218407D01*
X249570209Y-66218636D01*
X249552655Y-66222317D01*
X249534810Y-66224075D01*
X249513610Y-66230506D01*
X249491937Y-66235051D01*
X249475449Y-66242082D01*
X249458279Y-66247290D01*
X249438733Y-66257738D01*
X249418371Y-66266420D01*
X249403574Y-66276531D01*
X249387747Y-66284990D01*
X249370616Y-66299049D01*
X249352338Y-66311538D01*
X249339794Y-66324344D01*
X249325926Y-66335726D01*
X249311867Y-66352856D01*
X249296376Y-66368672D01*
X249286573Y-66383676D01*
X249275190Y-66397547D01*
X249264744Y-66417090D01*
X249252635Y-66435625D01*
X249245946Y-66452259D01*
X249237490Y-66468079D01*
X249231059Y-66489279D01*
X249222797Y-66509825D01*
X249219482Y-66527446D01*
X249214275Y-66544610D01*
X249212103Y-66566661D01*
X249208009Y-66588421D01*
X249208194Y-66606347D01*
X249206436Y-66624200D01*
X249208607Y-66646242D01*
X249208836Y-66668391D01*
X249212517Y-66685945D01*
X249214275Y-66703790D01*
X249220706Y-66724990D01*
X249225251Y-66746663D01*
X249232282Y-66763151D01*
X249237490Y-66780321D01*
X249247938Y-66799867D01*
X249256620Y-66820229D01*
X249266731Y-66835027D01*
X249275190Y-66850853D01*
X249289249Y-66867984D01*
X249290434Y-66869718D01*
X249301868Y-66883360D01*
X249325926Y-66912674D01*
X249327567Y-66914021D01*
X266371954Y-87249400D01*
X258279857Y-87249400D01*
X258277779Y-87249009D01*
X258239970Y-87249400D01*
X258222059Y-87249400D01*
X258219958Y-87249607D01*
X258197809Y-87249836D01*
X258180255Y-87253517D01*
X258162410Y-87255275D01*
X258141210Y-87261706D01*
X258119537Y-87266251D01*
X258103049Y-87273282D01*
X258085879Y-87278490D01*
X258066333Y-87288938D01*
X258045971Y-87297620D01*
X258031174Y-87307731D01*
X258015347Y-87316190D01*
X257998216Y-87330249D01*
X257979938Y-87342738D01*
X257967394Y-87355544D01*
X257953526Y-87366926D01*
X257939467Y-87384056D01*
X257923976Y-87399872D01*
X257914173Y-87414876D01*
X257902790Y-87428747D01*
X257892344Y-87448290D01*
X257880235Y-87466825D01*
X257873546Y-87483459D01*
X257865090Y-87499279D01*
X257858659Y-87520479D01*
X257850397Y-87541025D01*
X257847082Y-87558646D01*
X257841875Y-87575810D01*
X257839703Y-87597861D01*
X257835609Y-87619621D01*
X257835794Y-87637547D01*
X257834036Y-87655400D01*
X257836207Y-87677442D01*
X257836436Y-87699591D01*
X257840117Y-87717145D01*
X257841875Y-87734990D01*
X257848306Y-87756190D01*
X257852851Y-87777863D01*
X257859882Y-87794351D01*
X257865090Y-87811521D01*
X257875538Y-87831067D01*
X257884220Y-87851429D01*
X257894331Y-87866227D01*
X257902790Y-87882053D01*
X257916849Y-87899184D01*
X257918034Y-87900918D01*
X257929468Y-87914560D01*
X257953526Y-87943874D01*
X257955167Y-87945221D01*
X274999554Y-108280600D01*
X236697140Y-108280600D01*
X236677200Y-108278636D01*
X236657259Y-108280600D01*
X236597610Y-108286475D01*
X236521079Y-108309690D01*
X236450547Y-108347390D01*
X236388726Y-108398126D01*
X236337990Y-108459947D01*
X236300290Y-108530479D01*
X236277075Y-108607010D01*
X236269236Y-108686600D01*
X236271200Y-108706541D01*
X236271201Y-118034200D01*
X228447200Y-118034200D01*
X228447200Y-115655757D01*
X229853200Y-115655757D01*
X229853200Y-115898243D01*
X229900507Y-116136069D01*
X229993302Y-116360097D01*
X230128020Y-116561717D01*
X230299483Y-116733180D01*
X230501103Y-116867898D01*
X230725131Y-116960693D01*
X230962957Y-117008000D01*
X231205443Y-117008000D01*
X231443269Y-116960693D01*
X231667297Y-116867898D01*
X231868917Y-116733180D01*
X232040380Y-116561717D01*
X232175098Y-116360097D01*
X232219109Y-116253846D01*
X232227375Y-116281099D01*
X232352559Y-116543920D01*
X232526612Y-116777269D01*
X232742845Y-116972178D01*
X232992948Y-117121157D01*
X233267309Y-117218481D01*
X233497200Y-117097814D01*
X233497200Y-115904000D01*
X233751200Y-115904000D01*
X233751200Y-117097814D01*
X233981091Y-117218481D01*
X234255452Y-117121157D01*
X234505555Y-116972178D01*
X234721788Y-116777269D01*
X234895841Y-116543920D01*
X235021025Y-116281099D01*
X235065676Y-116133890D01*
X234944355Y-115904000D01*
X233751200Y-115904000D01*
X233497200Y-115904000D01*
X233477200Y-115904000D01*
X233477200Y-115650000D01*
X233497200Y-115650000D01*
X233497200Y-115630000D01*
X233751200Y-115630000D01*
X233751200Y-115650000D01*
X234944355Y-115650000D01*
X235065676Y-115420110D01*
X235021025Y-115272901D01*
X234895841Y-115010080D01*
X234721788Y-114776731D01*
X234505555Y-114581822D01*
X234255452Y-114432843D01*
X234093032Y-114375228D01*
X234207297Y-114327898D01*
X234408917Y-114193180D01*
X234580380Y-114021717D01*
X234715098Y-113820097D01*
X234807893Y-113596069D01*
X234855200Y-113358243D01*
X234855200Y-113115757D01*
X234807893Y-112877931D01*
X234715098Y-112653903D01*
X234580380Y-112452283D01*
X234408917Y-112280820D01*
X234207297Y-112146102D01*
X233983269Y-112053307D01*
X233745443Y-112006000D01*
X233502957Y-112006000D01*
X233265131Y-112053307D01*
X233041103Y-112146102D01*
X232839483Y-112280820D01*
X232668020Y-112452283D01*
X232533302Y-112653903D01*
X232440507Y-112877931D01*
X232393200Y-113115757D01*
X232393200Y-113358243D01*
X232440507Y-113596069D01*
X232533302Y-113820097D01*
X232668020Y-114021717D01*
X232839483Y-114193180D01*
X233041103Y-114327898D01*
X233155368Y-114375228D01*
X232992948Y-114432843D01*
X232742845Y-114581822D01*
X232526612Y-114776731D01*
X232352559Y-115010080D01*
X232227375Y-115272901D01*
X232219109Y-115300154D01*
X232175098Y-115193903D01*
X232040380Y-114992283D01*
X231868917Y-114820820D01*
X231667297Y-114686102D01*
X231443269Y-114593307D01*
X231205443Y-114546000D01*
X230962957Y-114546000D01*
X230725131Y-114593307D01*
X230501103Y-114686102D01*
X230299483Y-114820820D01*
X230128020Y-114992283D01*
X229993302Y-115193903D01*
X229900507Y-115417931D01*
X229853200Y-115655757D01*
X228447200Y-115655757D01*
X228447200Y-113115757D01*
X229853200Y-113115757D01*
X229853200Y-113358243D01*
X229900507Y-113596069D01*
X229993302Y-113820097D01*
X230128020Y-114021717D01*
X230299483Y-114193180D01*
X230501103Y-114327898D01*
X230725131Y-114420693D01*
X230962957Y-114468000D01*
X231205443Y-114468000D01*
X231443269Y-114420693D01*
X231667297Y-114327898D01*
X231868917Y-114193180D01*
X232040380Y-114021717D01*
X232175098Y-113820097D01*
X232267893Y-113596069D01*
X232315200Y-113358243D01*
X232315200Y-113115757D01*
X232267893Y-112877931D01*
X232175098Y-112653903D01*
X232040380Y-112452283D01*
X231868917Y-112280820D01*
X231667297Y-112146102D01*
X231443269Y-112053307D01*
X231205443Y-112006000D01*
X230962957Y-112006000D01*
X230725131Y-112053307D01*
X230501103Y-112146102D01*
X230299483Y-112280820D01*
X230128020Y-112452283D01*
X229993302Y-112653903D01*
X229900507Y-112877931D01*
X229853200Y-113115757D01*
X228447200Y-113115757D01*
X228447200Y-109847000D01*
X229851357Y-109847000D01*
X229851357Y-111547000D01*
X229858713Y-111621689D01*
X229880499Y-111693508D01*
X229915878Y-111759696D01*
X229963489Y-111817711D01*
X230021504Y-111865322D01*
X230087692Y-111900701D01*
X230159511Y-111922487D01*
X230234200Y-111929843D01*
X231934200Y-111929843D01*
X232008889Y-111922487D01*
X232080708Y-111900701D01*
X232146896Y-111865322D01*
X232204911Y-111817711D01*
X232252522Y-111759696D01*
X232287901Y-111693508D01*
X232309687Y-111621689D01*
X232317043Y-111547000D01*
X232317043Y-110575757D01*
X232393200Y-110575757D01*
X232393200Y-110818243D01*
X232440507Y-111056069D01*
X232533302Y-111280097D01*
X232668020Y-111481717D01*
X232839483Y-111653180D01*
X233041103Y-111787898D01*
X233265131Y-111880693D01*
X233502957Y-111928000D01*
X233745443Y-111928000D01*
X233983269Y-111880693D01*
X234207297Y-111787898D01*
X234408917Y-111653180D01*
X234580380Y-111481717D01*
X234715098Y-111280097D01*
X234807893Y-111056069D01*
X234855200Y-110818243D01*
X234855200Y-110575757D01*
X234807893Y-110337931D01*
X234715098Y-110113903D01*
X234580380Y-109912283D01*
X234408917Y-109740820D01*
X234207297Y-109606102D01*
X233983269Y-109513307D01*
X233745443Y-109466000D01*
X233502957Y-109466000D01*
X233265131Y-109513307D01*
X233041103Y-109606102D01*
X232839483Y-109740820D01*
X232668020Y-109912283D01*
X232533302Y-110113903D01*
X232440507Y-110337931D01*
X232393200Y-110575757D01*
X232317043Y-110575757D01*
X232317043Y-109847000D01*
X232309687Y-109772311D01*
X232287901Y-109700492D01*
X232252522Y-109634304D01*
X232204911Y-109576289D01*
X232146896Y-109528678D01*
X232080708Y-109493299D01*
X232008889Y-109471513D01*
X231934200Y-109464157D01*
X230234200Y-109464157D01*
X230159511Y-109471513D01*
X230087692Y-109493299D01*
X230021504Y-109528678D01*
X229963489Y-109576289D01*
X229915878Y-109634304D01*
X229880499Y-109700492D01*
X229858713Y-109772311D01*
X229851357Y-109847000D01*
X228447200Y-109847000D01*
X228447200Y-108706541D01*
X228449164Y-108686600D01*
X228441325Y-108607010D01*
X228418110Y-108530479D01*
X228380410Y-108459947D01*
X228329674Y-108398126D01*
X228267853Y-108347390D01*
X228197321Y-108309690D01*
X228120790Y-108286475D01*
X228061141Y-108280600D01*
X228061140Y-108280600D01*
X228041200Y-108278636D01*
X228021259Y-108280600D01*
X189718845Y-108280600D01*
X190486202Y-107365078D01*
X250044000Y-107365078D01*
X250044000Y-107518922D01*
X250074013Y-107669809D01*
X250132887Y-107811942D01*
X250218358Y-107939859D01*
X250327141Y-108048642D01*
X250455058Y-108134113D01*
X250597191Y-108192987D01*
X250748078Y-108223000D01*
X250901922Y-108223000D01*
X251052809Y-108192987D01*
X251194942Y-108134113D01*
X251322859Y-108048642D01*
X251431642Y-107939859D01*
X251517113Y-107811942D01*
X251575987Y-107669809D01*
X251606000Y-107518922D01*
X251606000Y-107365078D01*
X251575987Y-107214191D01*
X251517113Y-107072058D01*
X251431642Y-106944141D01*
X251345056Y-106857555D01*
X251345056Y-106121445D01*
X251443698Y-106022803D01*
X251529169Y-105894886D01*
X251588043Y-105752753D01*
X251618056Y-105601866D01*
X251618056Y-105448022D01*
X251588043Y-105297135D01*
X251529169Y-105155002D01*
X251443698Y-105027085D01*
X251334915Y-104918302D01*
X251206998Y-104832831D01*
X251064865Y-104773957D01*
X250913978Y-104743944D01*
X250760134Y-104743944D01*
X250609247Y-104773957D01*
X250467114Y-104832831D01*
X250339197Y-104918302D01*
X250230414Y-105027085D01*
X250144943Y-105155002D01*
X250086069Y-105297135D01*
X250056056Y-105448022D01*
X250056056Y-105601866D01*
X250086069Y-105752753D01*
X250144943Y-105894886D01*
X250230414Y-106022803D01*
X250329056Y-106121445D01*
X250329057Y-106834078D01*
X250327141Y-106835358D01*
X250218358Y-106944141D01*
X250132887Y-107072058D01*
X250074013Y-107214191D01*
X250044000Y-107365078D01*
X190486202Y-107365078D01*
X191441263Y-106225611D01*
X224767467Y-106225611D01*
X224767467Y-106379455D01*
X224797480Y-106530342D01*
X224856354Y-106672475D01*
X224941825Y-106800392D01*
X225050608Y-106909175D01*
X225178525Y-106994646D01*
X225320658Y-107053520D01*
X225471545Y-107083533D01*
X225625389Y-107083533D01*
X225776276Y-107053520D01*
X225918409Y-106994646D01*
X226046326Y-106909175D01*
X226144968Y-106810533D01*
X226920523Y-106810533D01*
X226945467Y-106812990D01*
X226970411Y-106810533D01*
X226970414Y-106810533D01*
X227045052Y-106803182D01*
X227140810Y-106774134D01*
X227229062Y-106726962D01*
X227306415Y-106663481D01*
X227322322Y-106644098D01*
X228302420Y-105664000D01*
X229527499Y-105664000D01*
X229626141Y-105762642D01*
X229754058Y-105848113D01*
X229896191Y-105906987D01*
X230047078Y-105937000D01*
X230200922Y-105937000D01*
X230351809Y-105906987D01*
X230493942Y-105848113D01*
X230621859Y-105762642D01*
X230730642Y-105653859D01*
X230816113Y-105525942D01*
X230874987Y-105383809D01*
X230905000Y-105232922D01*
X230905000Y-105079078D01*
X230874987Y-104928191D01*
X230816113Y-104786058D01*
X230730642Y-104658141D01*
X230621859Y-104549358D01*
X230493942Y-104463887D01*
X230351809Y-104405013D01*
X230200922Y-104375000D01*
X230047078Y-104375000D01*
X229896191Y-104405013D01*
X229754058Y-104463887D01*
X229626141Y-104549358D01*
X229527499Y-104648000D01*
X228116944Y-104648000D01*
X228092000Y-104645543D01*
X228067056Y-104648000D01*
X228067053Y-104648000D01*
X227992415Y-104655351D01*
X227896657Y-104684399D01*
X227808405Y-104731571D01*
X227731052Y-104795052D01*
X227715145Y-104814435D01*
X226735047Y-105794533D01*
X226144968Y-105794533D01*
X226046326Y-105695891D01*
X225918409Y-105610420D01*
X225776276Y-105551546D01*
X225625389Y-105521533D01*
X225471545Y-105521533D01*
X225320658Y-105551546D01*
X225178525Y-105610420D01*
X225050608Y-105695891D01*
X224941825Y-105804674D01*
X224856354Y-105932591D01*
X224797480Y-106074724D01*
X224767467Y-106225611D01*
X191441263Y-106225611D01*
X193400134Y-103888514D01*
X224927393Y-103888514D01*
X225023157Y-104152915D01*
X225312772Y-104293805D01*
X225624309Y-104375485D01*
X225945796Y-104394819D01*
X226264876Y-104351062D01*
X226569289Y-104245896D01*
X226743245Y-104152915D01*
X226839009Y-103888514D01*
X225883201Y-102932706D01*
X224927393Y-103888514D01*
X193400134Y-103888514D01*
X194299332Y-102815696D01*
X224241483Y-102815696D01*
X224285240Y-103134776D01*
X224390406Y-103439189D01*
X224483387Y-103613145D01*
X224747788Y-103708909D01*
X225703596Y-102753101D01*
X226062806Y-102753101D01*
X227018614Y-103708909D01*
X227283015Y-103613145D01*
X227423905Y-103323530D01*
X227505585Y-103011993D01*
X227524919Y-102690506D01*
X227481162Y-102371426D01*
X227375996Y-102067013D01*
X227283015Y-101893057D01*
X227018614Y-101797293D01*
X226062806Y-102753101D01*
X225703596Y-102753101D01*
X224747788Y-101797293D01*
X224483387Y-101893057D01*
X224342497Y-102182672D01*
X224260817Y-102494209D01*
X224241483Y-102815696D01*
X194299332Y-102815696D01*
X195303459Y-101617688D01*
X224927393Y-101617688D01*
X225883201Y-102573496D01*
X226703596Y-101753101D01*
X237200358Y-101753101D01*
X237200358Y-103753101D01*
X237207714Y-103827790D01*
X237229500Y-103899609D01*
X237264879Y-103965797D01*
X237312490Y-104023812D01*
X237370505Y-104071423D01*
X237436693Y-104106802D01*
X237508512Y-104128588D01*
X237583201Y-104135944D01*
X239583201Y-104135944D01*
X239657890Y-104128588D01*
X239729709Y-104106802D01*
X239795897Y-104071423D01*
X239853912Y-104023812D01*
X239901523Y-103965797D01*
X239936902Y-103899609D01*
X239958688Y-103827790D01*
X239966044Y-103753101D01*
X239966044Y-101753101D01*
X239958688Y-101678412D01*
X239936902Y-101606593D01*
X239901523Y-101540405D01*
X239853912Y-101482390D01*
X239795897Y-101434779D01*
X239729709Y-101399400D01*
X239657890Y-101377614D01*
X239583201Y-101370258D01*
X237583201Y-101370258D01*
X237508512Y-101377614D01*
X237436693Y-101399400D01*
X237370505Y-101434779D01*
X237312490Y-101482390D01*
X237264879Y-101540405D01*
X237229500Y-101606593D01*
X237207714Y-101678412D01*
X237200358Y-101753101D01*
X226703596Y-101753101D01*
X226839009Y-101617688D01*
X226743245Y-101353287D01*
X226453630Y-101212397D01*
X226142093Y-101130717D01*
X225820606Y-101111383D01*
X225501526Y-101155140D01*
X225197113Y-101260306D01*
X225023157Y-101353287D01*
X224927393Y-101617688D01*
X195303459Y-101617688D01*
X200705102Y-95173078D01*
X218294000Y-95173078D01*
X218294000Y-95326922D01*
X218324013Y-95477809D01*
X218382887Y-95619942D01*
X218468358Y-95747859D01*
X218577141Y-95856642D01*
X218705058Y-95942113D01*
X218847191Y-96000987D01*
X218998078Y-96031000D01*
X219137580Y-96031000D01*
X219818000Y-96711421D01*
X219818000Y-96850922D01*
X219848013Y-97001809D01*
X219906887Y-97143942D01*
X219992358Y-97271859D01*
X220101141Y-97380642D01*
X220229058Y-97466113D01*
X220371191Y-97524987D01*
X220522078Y-97555000D01*
X220675922Y-97555000D01*
X220826809Y-97524987D01*
X220968942Y-97466113D01*
X221096859Y-97380642D01*
X221205642Y-97271859D01*
X221291113Y-97143942D01*
X221349987Y-97001809D01*
X221380000Y-96850922D01*
X221380000Y-96697078D01*
X221349987Y-96546191D01*
X221291113Y-96404058D01*
X221205642Y-96276141D01*
X221096859Y-96167358D01*
X220968942Y-96081887D01*
X220826809Y-96023013D01*
X220675922Y-95993000D01*
X220536421Y-95993000D01*
X219856000Y-95312580D01*
X219856000Y-95173078D01*
X219825987Y-95022191D01*
X219767113Y-94880058D01*
X219681642Y-94752141D01*
X219572859Y-94643358D01*
X219444942Y-94557887D01*
X219302809Y-94499013D01*
X219151922Y-94469000D01*
X218998078Y-94469000D01*
X218847191Y-94499013D01*
X218705058Y-94557887D01*
X218577141Y-94643358D01*
X218468358Y-94752141D01*
X218382887Y-94880058D01*
X218324013Y-95022191D01*
X218294000Y-95173078D01*
X200705102Y-95173078D01*
X206763236Y-87945219D01*
X206764874Y-87943874D01*
X206788893Y-87914608D01*
X206800366Y-87900919D01*
X206801555Y-87899179D01*
X206815610Y-87882053D01*
X206824067Y-87866231D01*
X206834180Y-87851430D01*
X206842865Y-87831063D01*
X206853310Y-87811521D01*
X206858517Y-87794355D01*
X206865549Y-87777864D01*
X206870095Y-87756188D01*
X206876525Y-87734990D01*
X206878283Y-87717146D01*
X206881964Y-87699591D01*
X206882193Y-87677442D01*
X206884364Y-87655400D01*
X206882606Y-87637547D01*
X206882791Y-87619621D01*
X206878697Y-87597861D01*
X206876525Y-87575810D01*
X206871318Y-87558646D01*
X206868003Y-87541025D01*
X206859741Y-87520479D01*
X206853310Y-87499279D01*
X206844854Y-87483459D01*
X206838165Y-87466825D01*
X206826056Y-87448290D01*
X206815610Y-87428747D01*
X206804227Y-87414876D01*
X206794424Y-87399872D01*
X206778933Y-87384056D01*
X206764874Y-87366926D01*
X206751006Y-87355544D01*
X206738462Y-87342738D01*
X206720184Y-87330249D01*
X206703053Y-87316190D01*
X206687226Y-87307731D01*
X206672429Y-87297620D01*
X206652067Y-87288938D01*
X206632521Y-87278490D01*
X206615351Y-87273282D01*
X206598863Y-87266251D01*
X206577190Y-87261706D01*
X206555990Y-87255275D01*
X206538145Y-87253517D01*
X206520591Y-87249836D01*
X206498442Y-87249607D01*
X206496341Y-87249400D01*
X206478430Y-87249400D01*
X206440620Y-87249009D01*
X206438542Y-87249400D01*
X198346445Y-87249400D01*
X215390836Y-66914019D01*
X215392474Y-66912674D01*
X215416493Y-66883408D01*
X215427966Y-66869719D01*
X215429155Y-66867979D01*
X215443210Y-66850853D01*
X215451667Y-66835031D01*
X215461780Y-66820230D01*
X215470465Y-66799863D01*
X215480910Y-66780321D01*
X215486117Y-66763155D01*
X215493149Y-66746664D01*
X215497695Y-66724988D01*
X215504125Y-66703790D01*
X215505883Y-66685946D01*
X215509564Y-66668391D01*
X215509793Y-66646242D01*
X215511964Y-66624200D01*
X215510206Y-66606347D01*
X215510391Y-66588421D01*
X215506297Y-66566661D01*
X215504125Y-66544610D01*
X215498918Y-66527446D01*
X215495603Y-66509825D01*
X215487341Y-66489279D01*
X215480910Y-66468079D01*
X215472454Y-66452259D01*
X215465765Y-66435625D01*
X215453656Y-66417090D01*
X215443210Y-66397547D01*
X215431827Y-66383676D01*
X215422024Y-66368672D01*
X215406533Y-66352856D01*
X215392474Y-66335726D01*
X215378606Y-66324344D01*
X215366062Y-66311538D01*
X215347784Y-66299049D01*
X215330653Y-66284990D01*
X215314826Y-66276531D01*
X215300029Y-66266420D01*
X215279667Y-66257738D01*
X215260121Y-66247290D01*
X215242951Y-66242082D01*
X215226463Y-66235051D01*
X215204790Y-66230506D01*
X215183590Y-66224075D01*
X215165745Y-66222317D01*
X215148191Y-66218636D01*
X215126042Y-66218407D01*
X215123941Y-66218200D01*
X215106030Y-66218200D01*
X215068220Y-66217809D01*
X215066142Y-66218200D01*
X206974045Y-66218200D01*
X208418639Y-64494678D01*
X212904400Y-64494678D01*
X212904400Y-64648522D01*
X212934413Y-64799409D01*
X212993287Y-64941542D01*
X213078758Y-65069459D01*
X213187541Y-65178242D01*
X213315458Y-65263713D01*
X213457591Y-65322587D01*
X213608478Y-65352600D01*
X213762322Y-65352600D01*
X213913209Y-65322587D01*
X214055342Y-65263713D01*
X214183259Y-65178242D01*
X214281901Y-65079600D01*
X229535456Y-65079600D01*
X229560400Y-65082057D01*
X229585344Y-65079600D01*
X229585347Y-65079600D01*
X229659985Y-65072249D01*
X229755743Y-65043201D01*
X229843995Y-64996029D01*
X229921348Y-64932548D01*
X229937255Y-64913165D01*
X230524921Y-64325500D01*
X231039489Y-64325500D01*
X231031913Y-64343791D01*
X231001900Y-64494678D01*
X231001900Y-64581101D01*
X230978977Y-64581101D01*
X230828090Y-64611114D01*
X230685957Y-64669988D01*
X230558040Y-64755459D01*
X230449257Y-64864242D01*
X230363786Y-64992159D01*
X230304912Y-65134292D01*
X230274899Y-65285179D01*
X230274899Y-65439023D01*
X230304912Y-65589910D01*
X230363786Y-65732043D01*
X230449257Y-65859960D01*
X230547900Y-65958603D01*
X230547899Y-72136681D01*
X230070561Y-72614019D01*
X226562963Y-72614019D01*
X226538019Y-72611562D01*
X226513075Y-72614019D01*
X226513072Y-72614019D01*
X226438434Y-72621370D01*
X226342676Y-72650418D01*
X226301595Y-72672376D01*
X226254423Y-72697590D01*
X226241679Y-72708049D01*
X226177071Y-72761071D01*
X226161169Y-72780448D01*
X223267419Y-75674199D01*
X223248042Y-75690101D01*
X223232140Y-75709478D01*
X223232139Y-75709479D01*
X223184560Y-75767454D01*
X223137389Y-75855706D01*
X223108341Y-75951465D01*
X223098532Y-76051049D01*
X223100990Y-76076003D01*
X223100989Y-86309510D01*
X223002347Y-86408152D01*
X222916876Y-86536069D01*
X222858002Y-86678202D01*
X222827989Y-86829089D01*
X222827989Y-86982933D01*
X222858002Y-87133820D01*
X222916876Y-87275953D01*
X223002347Y-87403870D01*
X223111130Y-87512653D01*
X223239047Y-87598124D01*
X223381180Y-87656998D01*
X223532067Y-87687011D01*
X223685911Y-87687011D01*
X223836798Y-87656998D01*
X223978931Y-87598124D01*
X224106848Y-87512653D01*
X224215631Y-87403870D01*
X224301102Y-87275953D01*
X224359976Y-87133820D01*
X224389989Y-86982933D01*
X224389989Y-86829089D01*
X224359976Y-86678202D01*
X224301102Y-86536069D01*
X224215631Y-86408152D01*
X224116989Y-86309510D01*
X224116989Y-78740678D01*
X226217400Y-78740678D01*
X226217400Y-78894522D01*
X226247413Y-79045409D01*
X226306287Y-79187542D01*
X226391758Y-79315459D01*
X226490400Y-79414101D01*
X226490401Y-84380646D01*
X226487943Y-84405600D01*
X226497752Y-84505184D01*
X226526800Y-84600943D01*
X226573971Y-84689195D01*
X226621550Y-84747170D01*
X226637453Y-84766548D01*
X226656830Y-84782450D01*
X227569900Y-85695520D01*
X227569900Y-85904599D01*
X227471258Y-86003241D01*
X227385787Y-86131158D01*
X227326913Y-86273291D01*
X227296900Y-86424178D01*
X227296900Y-86578022D01*
X227326913Y-86728909D01*
X227385787Y-86871042D01*
X227471258Y-86998959D01*
X227580041Y-87107742D01*
X227707958Y-87193213D01*
X227850091Y-87252087D01*
X228000978Y-87282100D01*
X228154822Y-87282100D01*
X228305709Y-87252087D01*
X228447842Y-87193213D01*
X228575759Y-87107742D01*
X228684542Y-86998959D01*
X228770013Y-86871042D01*
X228828887Y-86728909D01*
X228858900Y-86578022D01*
X228858900Y-86424178D01*
X228828887Y-86273291D01*
X228770013Y-86131158D01*
X228684542Y-86003241D01*
X228585900Y-85904599D01*
X228585900Y-85510044D01*
X228588357Y-85485100D01*
X228585900Y-85460153D01*
X228578549Y-85385515D01*
X228549501Y-85289757D01*
X228502329Y-85201505D01*
X228438848Y-85124152D01*
X228419465Y-85108245D01*
X227506400Y-84195180D01*
X227506400Y-80441078D01*
X230613000Y-80441078D01*
X230613000Y-80594922D01*
X230643013Y-80745809D01*
X230701887Y-80887942D01*
X230787358Y-81015859D01*
X230896141Y-81124642D01*
X231024058Y-81210113D01*
X231166191Y-81268987D01*
X231317078Y-81299000D01*
X231470922Y-81299000D01*
X231621809Y-81268987D01*
X231763942Y-81210113D01*
X231891859Y-81124642D01*
X232000642Y-81015859D01*
X232086113Y-80887942D01*
X232144987Y-80745809D01*
X232175000Y-80594922D01*
X232175000Y-80441078D01*
X232144987Y-80290191D01*
X232086113Y-80148058D01*
X232000642Y-80020141D01*
X231902000Y-79921499D01*
X231902000Y-79077420D01*
X232112421Y-78867000D01*
X232702499Y-78867000D01*
X232801141Y-78965642D01*
X232929058Y-79051113D01*
X233071191Y-79109987D01*
X233222078Y-79140000D01*
X233375922Y-79140000D01*
X233526809Y-79109987D01*
X233668942Y-79051113D01*
X233796859Y-78965642D01*
X233905642Y-78856859D01*
X233991113Y-78728942D01*
X234049987Y-78586809D01*
X234080000Y-78435922D01*
X234080000Y-78282078D01*
X234049987Y-78131191D01*
X233991113Y-77989058D01*
X233905642Y-77861141D01*
X233796859Y-77752358D01*
X233668942Y-77666887D01*
X233526809Y-77608013D01*
X233375922Y-77578000D01*
X233222078Y-77578000D01*
X233071191Y-77608013D01*
X232929058Y-77666887D01*
X232801141Y-77752358D01*
X232702499Y-77851000D01*
X231926943Y-77851000D01*
X231901999Y-77848543D01*
X231877055Y-77851000D01*
X231877053Y-77851000D01*
X231802415Y-77858351D01*
X231706657Y-77887399D01*
X231706655Y-77887400D01*
X231618404Y-77934571D01*
X231563810Y-77979376D01*
X231541052Y-77998052D01*
X231525149Y-78017430D01*
X231052430Y-78490150D01*
X231033053Y-78506052D01*
X231017151Y-78525429D01*
X231017150Y-78525430D01*
X230969571Y-78583405D01*
X230922400Y-78671657D01*
X230908338Y-78718015D01*
X230893352Y-78767416D01*
X230883543Y-78867000D01*
X230886001Y-78891954D01*
X230886000Y-79921499D01*
X230787358Y-80020141D01*
X230701887Y-80148058D01*
X230643013Y-80290191D01*
X230613000Y-80441078D01*
X227506400Y-80441078D01*
X227506400Y-79414101D01*
X227605042Y-79315459D01*
X227690513Y-79187542D01*
X227749387Y-79045409D01*
X227779400Y-78894522D01*
X227779400Y-78740678D01*
X227749387Y-78589791D01*
X227690513Y-78447658D01*
X227605042Y-78319741D01*
X227496259Y-78210958D01*
X227368342Y-78125487D01*
X227226209Y-78066613D01*
X227075322Y-78036600D01*
X226921478Y-78036600D01*
X226770591Y-78066613D01*
X226628458Y-78125487D01*
X226500541Y-78210958D01*
X226391758Y-78319741D01*
X226306287Y-78447658D01*
X226247413Y-78589791D01*
X226217400Y-78740678D01*
X224116989Y-78740678D01*
X224116989Y-77152749D01*
X224259068Y-77181010D01*
X224412912Y-77181010D01*
X224563799Y-77150997D01*
X224705932Y-77092123D01*
X224833849Y-77006652D01*
X224942632Y-76897869D01*
X225028103Y-76769952D01*
X225086977Y-76627819D01*
X225116990Y-76476932D01*
X225116990Y-76323088D01*
X225095143Y-76213257D01*
X227194391Y-74114010D01*
X232375489Y-74114010D01*
X232474131Y-74212652D01*
X232602048Y-74298123D01*
X232744181Y-74356997D01*
X232895068Y-74387010D01*
X233048912Y-74387010D01*
X233199799Y-74356997D01*
X233341932Y-74298123D01*
X233469849Y-74212652D01*
X233578632Y-74103869D01*
X233664103Y-73975952D01*
X233722977Y-73833819D01*
X233752990Y-73682932D01*
X233752990Y-73529088D01*
X233722977Y-73378201D01*
X233664103Y-73236068D01*
X233578632Y-73108151D01*
X233469849Y-72999368D01*
X233341932Y-72913897D01*
X233199799Y-72855023D01*
X233048912Y-72825010D01*
X232895068Y-72825010D01*
X232744181Y-72855023D01*
X232602048Y-72913897D01*
X232474131Y-72999368D01*
X232375489Y-73098010D01*
X231023410Y-73098010D01*
X231397464Y-72723956D01*
X231416847Y-72708049D01*
X231480328Y-72630696D01*
X231527500Y-72542444D01*
X231556548Y-72446686D01*
X231563899Y-72372048D01*
X231563899Y-72372045D01*
X231566356Y-72347101D01*
X231563899Y-72322157D01*
X231563899Y-65958602D01*
X231662541Y-65859960D01*
X231748012Y-65732043D01*
X231806886Y-65589910D01*
X231836899Y-65439023D01*
X231836899Y-65352600D01*
X231859822Y-65352600D01*
X232010709Y-65322587D01*
X232152842Y-65263713D01*
X232280759Y-65178242D01*
X232379401Y-65079600D01*
X250426899Y-65079600D01*
X250525541Y-65178242D01*
X250653458Y-65263713D01*
X250795591Y-65322587D01*
X250946478Y-65352600D01*
X251100322Y-65352600D01*
X251251209Y-65322587D01*
X251393342Y-65263713D01*
X251521259Y-65178242D01*
X251630042Y-65069459D01*
X251715513Y-64941542D01*
X251774387Y-64799409D01*
X251804400Y-64648522D01*
X251804400Y-64494678D01*
X251774387Y-64343791D01*
X251715513Y-64201658D01*
X251630042Y-64073741D01*
X251521259Y-63964958D01*
X251393342Y-63879487D01*
X251251209Y-63820613D01*
X251100322Y-63790600D01*
X250946478Y-63790600D01*
X250795591Y-63820613D01*
X250653458Y-63879487D01*
X250525541Y-63964958D01*
X250426899Y-64063600D01*
X233534411Y-64063600D01*
X233541987Y-64045309D01*
X233572000Y-63894422D01*
X233572000Y-63740578D01*
X233541987Y-63589691D01*
X233483113Y-63447558D01*
X233397642Y-63319641D01*
X233288859Y-63210858D01*
X233160942Y-63125387D01*
X233018809Y-63066513D01*
X232867922Y-63036500D01*
X232714078Y-63036500D01*
X232563191Y-63066513D01*
X232421058Y-63125387D01*
X232293141Y-63210858D01*
X232194499Y-63309500D01*
X230339443Y-63309500D01*
X230314499Y-63307043D01*
X230289555Y-63309500D01*
X230289553Y-63309500D01*
X230214915Y-63316851D01*
X230119157Y-63345899D01*
X230119155Y-63345900D01*
X230030904Y-63393071D01*
X229976310Y-63437876D01*
X229953552Y-63456552D01*
X229937650Y-63475930D01*
X229349980Y-64063600D01*
X214281901Y-64063600D01*
X214183259Y-63964958D01*
X214055342Y-63879487D01*
X213913209Y-63820613D01*
X213762322Y-63790600D01*
X213608478Y-63790600D01*
X213457591Y-63820613D01*
X213315458Y-63879487D01*
X213187541Y-63964958D01*
X213078758Y-64073741D01*
X212993287Y-64201658D01*
X212934413Y-64343791D01*
X212904400Y-64494678D01*
X208418639Y-64494678D01*
X223900037Y-46024078D01*
X230486000Y-46024078D01*
X230486000Y-46177922D01*
X230516013Y-46328809D01*
X230574887Y-46470942D01*
X230660358Y-46598859D01*
X230769141Y-46707642D01*
X230897058Y-46793113D01*
X231039191Y-46851987D01*
X231190078Y-46882000D01*
X231343922Y-46882000D01*
X231494809Y-46851987D01*
X231636942Y-46793113D01*
X231764859Y-46707642D01*
X231873642Y-46598859D01*
X231959113Y-46470942D01*
X232017987Y-46328809D01*
X232048000Y-46177922D01*
X232048000Y-46024078D01*
X232017987Y-45873191D01*
X231959113Y-45731058D01*
X231873642Y-45603141D01*
X231775000Y-45504499D01*
X231775000Y-44533420D01*
X232296621Y-44011800D01*
X232436122Y-44011800D01*
X232587009Y-43981787D01*
X232729142Y-43922913D01*
X232857059Y-43837442D01*
X232965842Y-43728659D01*
X233051313Y-43600742D01*
X233110187Y-43458609D01*
X233140200Y-43307722D01*
X233140200Y-43153878D01*
X233110187Y-43002991D01*
X233051313Y-42860858D01*
X232965842Y-42732941D01*
X232857059Y-42624158D01*
X232729142Y-42538687D01*
X232587009Y-42479813D01*
X232436122Y-42449800D01*
X232282278Y-42449800D01*
X232131391Y-42479813D01*
X231989258Y-42538687D01*
X231861341Y-42624158D01*
X231752558Y-42732941D01*
X231667087Y-42860858D01*
X231608213Y-43002991D01*
X231578200Y-43153878D01*
X231578200Y-43293379D01*
X230925435Y-43946145D01*
X230906052Y-43962052D01*
X230842571Y-44039405D01*
X230795399Y-44127658D01*
X230766351Y-44223416D01*
X230759000Y-44298053D01*
X230756543Y-44323000D01*
X230759000Y-44347945D01*
X230759001Y-45504498D01*
X230660358Y-45603141D01*
X230574887Y-45731058D01*
X230516013Y-45873191D01*
X230486000Y-46024078D01*
X223900037Y-46024078D01*
X224018436Y-45882819D01*
X224020074Y-45881474D01*
X224044093Y-45852208D01*
X224055566Y-45838519D01*
X224056755Y-45836779D01*
X224070810Y-45819653D01*
X224079267Y-45803831D01*
X224089380Y-45789030D01*
X224098065Y-45768663D01*
X224108510Y-45749121D01*
X224113717Y-45731955D01*
X224120749Y-45715464D01*
X224125295Y-45693788D01*
X224131725Y-45672590D01*
X224133483Y-45654746D01*
X224137164Y-45637191D01*
X224137393Y-45615042D01*
X224139564Y-45593000D01*
X224137806Y-45575147D01*
X224137991Y-45557221D01*
X224133897Y-45535461D01*
X224131725Y-45513410D01*
X224126518Y-45496246D01*
X224123203Y-45478625D01*
X224114941Y-45458079D01*
X224108510Y-45436879D01*
X224100054Y-45421059D01*
X224093365Y-45404425D01*
X224081256Y-45385890D01*
X224070810Y-45366347D01*
X224059427Y-45352476D01*
X224049624Y-45337472D01*
X224034133Y-45321656D01*
X224020074Y-45304526D01*
X224006206Y-45293144D01*
X223993662Y-45280338D01*
X223975384Y-45267849D01*
X223958253Y-45253790D01*
X223942426Y-45245331D01*
X223927629Y-45235220D01*
X223907267Y-45226538D01*
X223887721Y-45216090D01*
X223870551Y-45210882D01*
X223854063Y-45203851D01*
X223832390Y-45199306D01*
X223811190Y-45192875D01*
X223793345Y-45191117D01*
X223775791Y-45187436D01*
X223753642Y-45187207D01*
X223751541Y-45187000D01*
X223733630Y-45187000D01*
X223695820Y-45186609D01*
X223693742Y-45187000D01*
X215601645Y-45187000D01*
X229823902Y-28218659D01*
X230928200Y-28218659D01*
X230928200Y-28500541D01*
X230983193Y-28777007D01*
X231091064Y-29037433D01*
X231247670Y-29271809D01*
X231446991Y-29471130D01*
X231681367Y-29627736D01*
X231941793Y-29735607D01*
X232218259Y-29790600D01*
X232500141Y-29790600D01*
X232776607Y-29735607D01*
X233037033Y-29627736D01*
X233271409Y-29471130D01*
X233470730Y-29271809D01*
X233627336Y-29037433D01*
X233735207Y-28777007D01*
X233790200Y-28500541D01*
X233790200Y-28218659D01*
X233735207Y-27942193D01*
X233627336Y-27681767D01*
X233470730Y-27447391D01*
X233271409Y-27248070D01*
X233037033Y-27091464D01*
X232776607Y-26983593D01*
X232500141Y-26928600D01*
X232218259Y-26928600D01*
X231941793Y-26983593D01*
X231681367Y-27091464D01*
X231446991Y-27248070D01*
X231247670Y-27447391D01*
X231091064Y-27681767D01*
X230983193Y-27942193D01*
X230928200Y-28218659D01*
X229823902Y-28218659D01*
X232359200Y-25193837D01*
X249116754Y-45187000D01*
G37*
G04 #@! TD.AperFunction*
M02*
