M48
; DRILL file {KiCad (5.1.10-1-10_14)} date Saturday, November 27, 2021 at 11:14:16 PM
; FORMAT={-:-/ absolute / metric / decimal}
; #@! TF.CreationDate,2021-11-27T23:14:16-07:00
; #@! TF.GenerationSoftware,Kicad,Pcbnew,(5.1.10-1-10_14)
; #@! TF.FileFunction,Plated,1,2,PTH
FMAT,2
METRIC
T1C0.400
T2C1.000
T3C1.020
%
G90
G05
T1
X191.643Y-107.442
X200.279Y-86.36
X208.788Y-65.405
X213.685Y-64.572
X217.233Y-44.45
X219.075Y-95.25
X220.599Y-96.774
X221.107Y-97.917
X223.609Y-86.906
X224.336Y-76.4
X225.548Y-106.303
X226.998Y-78.818
X228.078Y-86.501
X230.124Y-105.156
X230.759Y-78.359
X231.056Y-65.362
X231.267Y-46.101
X231.394Y-80.518
X231.783Y-64.572
X232.283Y-102.743
X232.359Y-43.231
X232.791Y-63.817
X232.972Y-73.606
X233.299Y-78.359
X233.68Y-76.708
X233.807Y-80.264
X235.712Y-101.092
X239.522Y-79.375
X247.713Y-44.577
X250.825Y-107.442
X250.837Y-105.525
X251.023Y-64.572
X252.603Y-95.123
X254.889Y-95.25
X255.905Y-65.405
X264.414Y-86.36
X272.669Y-107.315
T2
X231.084Y-110.697
X231.084Y-113.237
X231.084Y-115.777
X233.624Y-110.697
X233.624Y-113.237
X233.624Y-115.777
T3
X225.883Y-102.753
X238.583Y-102.753
T0
M30
