G04 #@! TF.GenerationSoftware,KiCad,Pcbnew,(5.1.10-1-10_14)*
G04 #@! TF.CreationDate,2021-11-27T23:13:30-07:00*
G04 #@! TF.ProjectId,ChristmasTreePCB,43687269-7374-46d6-9173-547265655043,rev?*
G04 #@! TF.SameCoordinates,Original*
G04 #@! TF.FileFunction,Legend,Top*
G04 #@! TF.FilePolarity,Positive*
%FSLAX46Y46*%
G04 Gerber Fmt 4.6, Leading zero omitted, Abs format (unit mm)*
G04 Created by KiCad (PCBNEW (5.1.10-1-10_14)) date 2021-11-27 23:13:30*
%MOMM*%
%LPD*%
G01*
G04 APERTURE LIST*
%ADD10C,0.120000*%
%ADD11C,0.250000*%
%ADD12C,0.150000*%
%ADD13R,1.700000X1.700000*%
%ADD14O,1.700000X1.700000*%
%ADD15C,2.100000*%
%ADD16R,1.300000X1.550000*%
%ADD17R,2.000000X2.000000*%
%ADD18C,2.000000*%
G04 APERTURE END LIST*
D10*
X255524000Y-81026000D02*
X255524000Y-81788000D01*
X255206500Y-81089500D02*
X255841500Y-81724500D01*
X255143000Y-81407000D02*
X255905000Y-81407000D01*
X255841500Y-81089500D02*
X255206500Y-81724500D01*
X257111500Y-104076500D02*
X256476500Y-104711500D01*
X256413000Y-104394000D02*
X257175000Y-104394000D01*
X256794000Y-104013000D02*
X256794000Y-104775000D01*
X256476500Y-104076500D02*
X257111500Y-104711500D01*
X245554500Y-102044500D02*
X244919500Y-102679500D01*
X245237000Y-101981000D02*
X245237000Y-102743000D01*
X244919500Y-102044500D02*
X245554500Y-102679500D01*
X244856000Y-102362000D02*
X245618000Y-102362000D01*
X245808500Y-90487500D02*
X245173500Y-91122500D01*
X245491000Y-90424000D02*
X245491000Y-91186000D01*
X245173500Y-90487500D02*
X245808500Y-91122500D01*
X245110000Y-90805000D02*
X245872000Y-90805000D01*
X231140000Y-91313000D02*
X231902000Y-91313000D01*
X231838500Y-90995500D02*
X231203500Y-91630500D01*
X231521000Y-90932000D02*
X231521000Y-91694000D01*
X231203500Y-90995500D02*
X231838500Y-91630500D01*
X223520000Y-104013000D02*
X223520000Y-104775000D01*
X223202500Y-104076500D02*
X223837500Y-104711500D01*
X223837500Y-104076500D02*
X223202500Y-104711500D01*
X223139000Y-104394000D02*
X223901000Y-104394000D01*
X196469000Y-106045000D02*
X197231000Y-106045000D01*
X197167500Y-105727500D02*
X196532500Y-106362500D01*
X196532500Y-105727500D02*
X197167500Y-106362500D01*
X196850000Y-105664000D02*
X196850000Y-106426000D01*
X217233500Y-83756500D02*
X217868500Y-84391500D01*
X217868500Y-83756500D02*
X217233500Y-84391500D01*
X217551000Y-83693000D02*
X217551000Y-84455000D01*
X217170000Y-84074000D02*
X217932000Y-84074000D01*
X227012500Y-61531500D02*
X227647500Y-62166500D01*
X227647500Y-61531500D02*
X227012500Y-62166500D01*
X226949000Y-61849000D02*
X227711000Y-61849000D01*
X227330000Y-61468000D02*
X227330000Y-62230000D01*
X244856000Y-55880000D02*
X244856000Y-56642000D01*
X244538500Y-55943500D02*
X245173500Y-56578500D01*
X245173500Y-55943500D02*
X244538500Y-56578500D01*
X244475000Y-56261000D02*
X245237000Y-56261000D01*
X266827000Y-104521000D02*
X265557000Y-105791000D01*
X265557000Y-104521000D02*
X266827000Y-105791000D01*
X266192000Y-104267000D02*
X266192000Y-106045000D01*
X265303000Y-105156000D02*
X267081000Y-105156000D01*
X238379000Y-104267000D02*
X237109000Y-105537000D01*
X237109000Y-104267000D02*
X238379000Y-105537000D01*
X237744000Y-104013000D02*
X237744000Y-105791000D01*
X236855000Y-104902000D02*
X238633000Y-104902000D01*
X226822000Y-99568000D02*
X225552000Y-100838000D01*
X225552000Y-99568000D02*
X226822000Y-100838000D01*
X225298000Y-100203000D02*
X227076000Y-100203000D01*
X226187000Y-99314000D02*
X226187000Y-101092000D01*
X208280000Y-106045000D02*
X210058000Y-106045000D01*
X209804000Y-105410000D02*
X208534000Y-106680000D01*
X209169000Y-105156000D02*
X209169000Y-106934000D01*
X208534000Y-105410000D02*
X209804000Y-106680000D01*
X201295000Y-97028000D02*
X201295000Y-98806000D01*
X201930000Y-97282000D02*
X200660000Y-98552000D01*
X200660000Y-97282000D02*
X201930000Y-98552000D01*
X200406000Y-97917000D02*
X202184000Y-97917000D01*
X222504000Y-90170000D02*
X221234000Y-91440000D01*
X221869000Y-89916000D02*
X221869000Y-91694000D01*
X221234000Y-90170000D02*
X222504000Y-91440000D01*
X220980000Y-90805000D02*
X222758000Y-90805000D01*
X236982000Y-85090000D02*
X238252000Y-86360000D01*
X237617000Y-84836000D02*
X237617000Y-86614000D01*
X236728000Y-85725000D02*
X238506000Y-85725000D01*
X238252000Y-85090000D02*
X236982000Y-86360000D01*
X254889000Y-89027000D02*
X254889000Y-90805000D01*
X255524000Y-89281000D02*
X254254000Y-90551000D01*
X254254000Y-89281000D02*
X255524000Y-90551000D01*
X254000000Y-89916000D02*
X255778000Y-89916000D01*
X240284000Y-68580000D02*
X240284000Y-70358000D01*
X240919000Y-68834000D02*
X239649000Y-70104000D01*
X239395000Y-69469000D02*
X241173000Y-69469000D01*
X239649000Y-68834000D02*
X240919000Y-70104000D01*
X252222000Y-72644000D02*
X252222000Y-74422000D01*
X251333000Y-73533000D02*
X253111000Y-73533000D01*
X251587000Y-72898000D02*
X252857000Y-74168000D01*
X252857000Y-72898000D02*
X251587000Y-74168000D01*
X245491000Y-82296000D02*
X247269000Y-82296000D01*
X246380000Y-81407000D02*
X246380000Y-83185000D01*
X247015000Y-81661000D02*
X245745000Y-82931000D01*
X245745000Y-81661000D02*
X247015000Y-82931000D01*
X210058000Y-79502000D02*
X208788000Y-80772000D01*
X208534000Y-80137000D02*
X210312000Y-80137000D01*
X208788000Y-79502000D02*
X210058000Y-80772000D01*
X209423000Y-79248000D02*
X209423000Y-81026000D01*
X224282000Y-72898000D02*
X223012000Y-74168000D01*
X222758000Y-73533000D02*
X224536000Y-73533000D01*
X223012000Y-72898000D02*
X224282000Y-74168000D01*
X223647000Y-72644000D02*
X223647000Y-74422000D01*
X226123500Y-67627500D02*
X226758500Y-68262500D01*
X226441000Y-67564000D02*
X226441000Y-68326000D01*
X226060000Y-67945000D02*
X226822000Y-67945000D01*
X226758500Y-67627500D02*
X226123500Y-68262500D01*
X217297000Y-70231000D02*
X217297000Y-70993000D01*
X216979500Y-70294500D02*
X217614500Y-70929500D01*
X217614500Y-70294500D02*
X216979500Y-70929500D01*
X216916000Y-70612000D02*
X217678000Y-70612000D01*
X237744000Y-57531000D02*
X239014000Y-58801000D01*
X239014000Y-57531000D02*
X237744000Y-58801000D01*
X237490000Y-58166000D02*
X239268000Y-58166000D01*
X238379000Y-57277000D02*
X238379000Y-59055000D01*
X247015000Y-60960000D02*
X245745000Y-62230000D01*
X245491000Y-61595000D02*
X247269000Y-61595000D01*
X245745000Y-60960000D02*
X247015000Y-62230000D01*
X246380000Y-60706000D02*
X246380000Y-62484000D01*
X227012500Y-47561500D02*
X226377500Y-48196500D01*
X226377500Y-47561500D02*
X227012500Y-48196500D01*
X226695000Y-47498000D02*
X226695000Y-48260000D01*
X226314000Y-47879000D02*
X227076000Y-47879000D01*
X237490000Y-33655000D02*
X238252000Y-33655000D01*
X237871000Y-33274000D02*
X237871000Y-34036000D01*
X237553500Y-33337500D02*
X238188500Y-33972500D01*
X238188500Y-33337500D02*
X237553500Y-33972500D01*
X239522000Y-42418000D02*
X239522000Y-43180000D01*
X239204500Y-42481500D02*
X239839500Y-43116500D01*
X239839500Y-42481500D02*
X239204500Y-43116500D01*
X239141000Y-42799000D02*
X239903000Y-42799000D01*
X240157000Y-46482000D02*
X238887000Y-47752000D01*
X238633000Y-47117000D02*
X240411000Y-47117000D01*
X238887000Y-46482000D02*
X240157000Y-47752000D01*
X239522000Y-46228000D02*
X239522000Y-48006000D01*
X221996000Y-56769000D02*
X220726000Y-58039000D01*
X221361000Y-56515000D02*
X221361000Y-58293000D01*
X220472000Y-57404000D02*
X222250000Y-57404000D01*
X220726000Y-56769000D02*
X221996000Y-58039000D01*
X234569000Y-36449000D02*
X233299000Y-37719000D01*
X233934000Y-36195000D02*
X233934000Y-37973000D01*
X233045000Y-37084000D02*
X234823000Y-37084000D01*
X233299000Y-36449000D02*
X234569000Y-37719000D01*
X225171000Y-41656000D02*
X226949000Y-41656000D01*
X226060000Y-40767000D02*
X226060000Y-42545000D01*
X225425000Y-41021000D02*
X226695000Y-42291000D01*
X226695000Y-41021000D02*
X225425000Y-42291000D01*
X225044000Y-36004500D02*
X225044000Y-36766500D01*
X224663000Y-36385500D02*
X225425000Y-36385500D01*
X224726500Y-36068000D02*
X225361500Y-36703000D01*
X225361500Y-36068000D02*
X224726500Y-36703000D01*
D11*
X224537771Y-52031814D02*
X224859200Y-52138957D01*
X225394914Y-52138957D01*
X225609200Y-52031814D01*
X225716342Y-51924671D01*
X225823485Y-51710385D01*
X225823485Y-51496100D01*
X225716342Y-51281814D01*
X225609200Y-51174671D01*
X225394914Y-51067528D01*
X224966342Y-50960385D01*
X224752057Y-50853242D01*
X224644914Y-50746100D01*
X224537771Y-50531814D01*
X224537771Y-50317528D01*
X224644914Y-50103242D01*
X224752057Y-49996100D01*
X224966342Y-49888957D01*
X225502057Y-49888957D01*
X225823485Y-49996100D01*
X226787771Y-52138957D02*
X226787771Y-49888957D01*
X227752057Y-52138957D02*
X227752057Y-50960385D01*
X227644914Y-50746100D01*
X227430628Y-50638957D01*
X227109200Y-50638957D01*
X226894914Y-50746100D01*
X226787771Y-50853242D01*
X229680628Y-52031814D02*
X229466342Y-52138957D01*
X229037771Y-52138957D01*
X228823485Y-52031814D01*
X228716342Y-51817528D01*
X228716342Y-50960385D01*
X228823485Y-50746100D01*
X229037771Y-50638957D01*
X229466342Y-50638957D01*
X229680628Y-50746100D01*
X229787771Y-50960385D01*
X229787771Y-51174671D01*
X228716342Y-51388957D01*
X230752057Y-52138957D02*
X230752057Y-50638957D01*
X230752057Y-51067528D02*
X230859200Y-50853242D01*
X230966342Y-50746100D01*
X231180628Y-50638957D01*
X231394914Y-50638957D01*
X232037771Y-52031814D02*
X232252057Y-52138957D01*
X232680628Y-52138957D01*
X232894914Y-52031814D01*
X233002057Y-51817528D01*
X233002057Y-51710385D01*
X232894914Y-51496100D01*
X232680628Y-51388957D01*
X232359200Y-51388957D01*
X232144914Y-51281814D01*
X232037771Y-51067528D01*
X232037771Y-50960385D01*
X232144914Y-50746100D01*
X232359200Y-50638957D01*
X232680628Y-50638957D01*
X232894914Y-50746100D01*
X233644914Y-50638957D02*
X234502057Y-50638957D01*
X233966342Y-49888957D02*
X233966342Y-51817528D01*
X234073485Y-52031814D01*
X234287771Y-52138957D01*
X234502057Y-52138957D01*
X236216342Y-52138957D02*
X236216342Y-50960385D01*
X236109200Y-50746100D01*
X235894914Y-50638957D01*
X235466342Y-50638957D01*
X235252057Y-50746100D01*
X236216342Y-52031814D02*
X236002057Y-52138957D01*
X235466342Y-52138957D01*
X235252057Y-52031814D01*
X235144914Y-51817528D01*
X235144914Y-51603242D01*
X235252057Y-51388957D01*
X235466342Y-51281814D01*
X236002057Y-51281814D01*
X236216342Y-51174671D01*
X237287771Y-50638957D02*
X237287771Y-52138957D01*
X237287771Y-50853242D02*
X237394914Y-50746100D01*
X237609200Y-50638957D01*
X237930628Y-50638957D01*
X238144914Y-50746100D01*
X238252057Y-50960385D01*
X238252057Y-52138957D01*
X239216342Y-52031814D02*
X239430628Y-52138957D01*
X239859200Y-52138957D01*
X240073485Y-52031814D01*
X240180628Y-51817528D01*
X240180628Y-51710385D01*
X240073485Y-51496100D01*
X239859200Y-51388957D01*
X239537771Y-51388957D01*
X239323485Y-51281814D01*
X239216342Y-51067528D01*
X239216342Y-50960385D01*
X239323485Y-50746100D01*
X239537771Y-50638957D01*
X239859200Y-50638957D01*
X240073485Y-50746100D01*
X228502057Y-53728242D02*
X228609200Y-53621100D01*
X228823485Y-53513957D01*
X229359200Y-53513957D01*
X229573485Y-53621100D01*
X229680628Y-53728242D01*
X229787771Y-53942528D01*
X229787771Y-54156814D01*
X229680628Y-54478242D01*
X228394914Y-55763957D01*
X229787771Y-55763957D01*
X231180628Y-53513957D02*
X231394914Y-53513957D01*
X231609200Y-53621100D01*
X231716342Y-53728242D01*
X231823485Y-53942528D01*
X231930628Y-54371100D01*
X231930628Y-54906814D01*
X231823485Y-55335385D01*
X231716342Y-55549671D01*
X231609200Y-55656814D01*
X231394914Y-55763957D01*
X231180628Y-55763957D01*
X230966342Y-55656814D01*
X230859200Y-55549671D01*
X230752057Y-55335385D01*
X230644914Y-54906814D01*
X230644914Y-54371100D01*
X230752057Y-53942528D01*
X230859200Y-53728242D01*
X230966342Y-53621100D01*
X231180628Y-53513957D01*
X232787771Y-53728242D02*
X232894914Y-53621100D01*
X233109200Y-53513957D01*
X233644914Y-53513957D01*
X233859200Y-53621100D01*
X233966342Y-53728242D01*
X234073485Y-53942528D01*
X234073485Y-54156814D01*
X233966342Y-54478242D01*
X232680628Y-55763957D01*
X234073485Y-55763957D01*
X236216342Y-55763957D02*
X234930628Y-55763957D01*
X235573485Y-55763957D02*
X235573485Y-53513957D01*
X235359200Y-53835385D01*
X235144914Y-54049671D01*
X234930628Y-54156814D01*
D10*
X238635000Y-77850867D02*
X238635000Y-77558333D01*
X237615000Y-77850867D02*
X237615000Y-77558333D01*
X230721700Y-32438400D02*
X233181700Y-32438400D01*
X230721700Y-30968400D02*
X230721700Y-32438400D01*
X233181700Y-30968400D02*
X230721700Y-30968400D01*
X260919500Y-86340600D02*
X263379500Y-86340600D01*
X263379500Y-86340600D02*
X263379500Y-84870600D01*
X263379500Y-84870600D02*
X260919500Y-84870600D01*
X218594100Y-44278600D02*
X221054100Y-44278600D01*
X218594100Y-42808600D02*
X218594100Y-44278600D01*
X221054100Y-42808600D02*
X218594100Y-42808600D01*
X243664300Y-44278600D02*
X246124300Y-44278600D01*
X246124300Y-44278600D02*
X246124300Y-42808600D01*
X246124300Y-42808600D02*
X243664300Y-42808600D01*
X209966500Y-65306600D02*
X212426500Y-65306600D01*
X209966500Y-63836600D02*
X209966500Y-65306600D01*
X212426500Y-63836600D02*
X209966500Y-63836600D01*
X252291900Y-65306600D02*
X254751900Y-65306600D01*
X254751900Y-65306600D02*
X254751900Y-63836600D01*
X254751900Y-63836600D02*
X252291900Y-63836600D01*
X201338900Y-86340600D02*
X203798900Y-86340600D01*
X201338900Y-84870600D02*
X201338900Y-86340600D01*
X203798900Y-84870600D02*
X201338900Y-84870600D01*
X229754200Y-109367000D02*
X231084200Y-109367000D01*
X229754200Y-110697000D02*
X229754200Y-109367000D01*
X232354200Y-109367000D02*
X234954200Y-109367000D01*
X232354200Y-111967000D02*
X232354200Y-109367000D01*
X229754200Y-111967000D02*
X232354200Y-111967000D01*
X234954200Y-109367000D02*
X234954200Y-117107000D01*
X229754200Y-111967000D02*
X229754200Y-117107000D01*
X229754200Y-117107000D02*
X234954200Y-117107000D01*
X212616058Y-96599934D02*
X212106610Y-96599934D01*
X212616058Y-97644934D02*
X212106610Y-97644934D01*
X204571676Y-93907100D02*
X205081124Y-93907100D01*
X204571676Y-94952100D02*
X205081124Y-94952100D01*
X260146724Y-93627099D02*
X259637276Y-93627099D01*
X260146724Y-94672099D02*
X259637276Y-94672099D01*
X252309342Y-96459933D02*
X252818790Y-96459933D01*
X252309342Y-97504933D02*
X252818790Y-97504933D01*
X220150992Y-99292768D02*
X219641544Y-99292768D01*
X220150992Y-100337768D02*
X219641544Y-100337768D01*
X244981409Y-99292768D02*
X245490857Y-99292768D01*
X244981409Y-100337768D02*
X245490857Y-100337768D01*
X232359200Y-81692100D02*
X235106700Y-81692100D01*
X235106700Y-81692100D02*
X235106700Y-81409600D01*
X232359200Y-81692100D02*
X229611700Y-81692100D01*
X229611700Y-81692100D02*
X229611700Y-81409600D01*
X232359200Y-76197100D02*
X235106700Y-76197100D01*
X235106700Y-76197100D02*
X235106700Y-76479600D01*
X232359200Y-76197100D02*
X229611700Y-76197100D01*
X229611700Y-76197100D02*
X229611700Y-76479600D01*
X229611700Y-76479600D02*
X227959200Y-76479600D01*
X235589200Y-105983101D02*
X235589200Y-99523101D01*
X231059200Y-105983101D02*
X233659200Y-105983101D01*
X229129200Y-105983101D02*
X229129200Y-99523101D01*
X231059200Y-99523101D02*
X233659200Y-99523101D01*
X229159200Y-105983101D02*
X229129200Y-105983101D01*
X235589200Y-105983101D02*
X235559200Y-105983101D01*
X235589200Y-99523101D02*
X235559200Y-99523101D01*
X229129200Y-99523101D02*
X229159200Y-99523101D01*
D12*
X240006142Y-77871266D02*
X240053761Y-77918885D01*
X240101380Y-78061742D01*
X240101380Y-78156980D01*
X240053761Y-78299838D01*
X239958523Y-78395076D01*
X239863285Y-78442695D01*
X239672809Y-78490314D01*
X239529952Y-78490314D01*
X239339476Y-78442695D01*
X239244238Y-78395076D01*
X239149000Y-78299838D01*
X239101380Y-78156980D01*
X239101380Y-78061742D01*
X239149000Y-77918885D01*
X239196619Y-77871266D01*
X240101380Y-76918885D02*
X240101380Y-77490314D01*
X240101380Y-77204600D02*
X239101380Y-77204600D01*
X239244238Y-77299838D01*
X239339476Y-77395076D01*
X239387095Y-77490314D01*
X231643604Y-33835980D02*
X231643604Y-32835980D01*
X231881700Y-32835980D01*
X232024557Y-32883600D01*
X232119795Y-32978838D01*
X232167414Y-33074076D01*
X232215033Y-33264552D01*
X232215033Y-33407409D01*
X232167414Y-33597885D01*
X232119795Y-33693123D01*
X232024557Y-33788361D01*
X231881700Y-33835980D01*
X231643604Y-33835980D01*
X233167414Y-33835980D02*
X232595985Y-33835980D01*
X232881700Y-33835980D02*
X232881700Y-32835980D01*
X232786461Y-32978838D01*
X232691223Y-33074076D01*
X232595985Y-33121695D01*
X260981404Y-84533980D02*
X260981404Y-83533980D01*
X261219500Y-83533980D01*
X261362357Y-83581600D01*
X261457595Y-83676838D01*
X261505214Y-83772076D01*
X261552833Y-83962552D01*
X261552833Y-84105409D01*
X261505214Y-84295885D01*
X261457595Y-84391123D01*
X261362357Y-84486361D01*
X261219500Y-84533980D01*
X260981404Y-84533980D01*
X261933785Y-83629219D02*
X261981404Y-83581600D01*
X262076642Y-83533980D01*
X262314738Y-83533980D01*
X262409976Y-83581600D01*
X262457595Y-83629219D01*
X262505214Y-83724457D01*
X262505214Y-83819695D01*
X262457595Y-83962552D01*
X261886166Y-84533980D01*
X262505214Y-84533980D01*
X219516004Y-42471980D02*
X219516004Y-41471980D01*
X219754100Y-41471980D01*
X219896957Y-41519600D01*
X219992195Y-41614838D01*
X220039814Y-41710076D01*
X220087433Y-41900552D01*
X220087433Y-42043409D01*
X220039814Y-42233885D01*
X219992195Y-42329123D01*
X219896957Y-42424361D01*
X219754100Y-42471980D01*
X219516004Y-42471980D01*
X220420766Y-41471980D02*
X221039814Y-41471980D01*
X220706480Y-41852933D01*
X220849338Y-41852933D01*
X220944576Y-41900552D01*
X220992195Y-41948171D01*
X221039814Y-42043409D01*
X221039814Y-42281504D01*
X220992195Y-42376742D01*
X220944576Y-42424361D01*
X220849338Y-42471980D01*
X220563623Y-42471980D01*
X220468385Y-42424361D01*
X220420766Y-42376742D01*
X243726204Y-42471980D02*
X243726204Y-41471980D01*
X243964300Y-41471980D01*
X244107157Y-41519600D01*
X244202395Y-41614838D01*
X244250014Y-41710076D01*
X244297633Y-41900552D01*
X244297633Y-42043409D01*
X244250014Y-42233885D01*
X244202395Y-42329123D01*
X244107157Y-42424361D01*
X243964300Y-42471980D01*
X243726204Y-42471980D01*
X245154776Y-41805314D02*
X245154776Y-42471980D01*
X244916680Y-41424361D02*
X244678585Y-42138647D01*
X245297633Y-42138647D01*
X210888404Y-63499980D02*
X210888404Y-62499980D01*
X211126500Y-62499980D01*
X211269357Y-62547600D01*
X211364595Y-62642838D01*
X211412214Y-62738076D01*
X211459833Y-62928552D01*
X211459833Y-63071409D01*
X211412214Y-63261885D01*
X211364595Y-63357123D01*
X211269357Y-63452361D01*
X211126500Y-63499980D01*
X210888404Y-63499980D01*
X212364595Y-62499980D02*
X211888404Y-62499980D01*
X211840785Y-62976171D01*
X211888404Y-62928552D01*
X211983642Y-62880933D01*
X212221738Y-62880933D01*
X212316976Y-62928552D01*
X212364595Y-62976171D01*
X212412214Y-63071409D01*
X212412214Y-63309504D01*
X212364595Y-63404742D01*
X212316976Y-63452361D01*
X212221738Y-63499980D01*
X211983642Y-63499980D01*
X211888404Y-63452361D01*
X211840785Y-63404742D01*
X252353804Y-63499980D02*
X252353804Y-62499980D01*
X252591900Y-62499980D01*
X252734757Y-62547600D01*
X252829995Y-62642838D01*
X252877614Y-62738076D01*
X252925233Y-62928552D01*
X252925233Y-63071409D01*
X252877614Y-63261885D01*
X252829995Y-63357123D01*
X252734757Y-63452361D01*
X252591900Y-63499980D01*
X252353804Y-63499980D01*
X253782376Y-62499980D02*
X253591900Y-62499980D01*
X253496661Y-62547600D01*
X253449042Y-62595219D01*
X253353804Y-62738076D01*
X253306185Y-62928552D01*
X253306185Y-63309504D01*
X253353804Y-63404742D01*
X253401423Y-63452361D01*
X253496661Y-63499980D01*
X253687138Y-63499980D01*
X253782376Y-63452361D01*
X253829995Y-63404742D01*
X253877614Y-63309504D01*
X253877614Y-63071409D01*
X253829995Y-62976171D01*
X253782376Y-62928552D01*
X253687138Y-62880933D01*
X253496661Y-62880933D01*
X253401423Y-62928552D01*
X253353804Y-62976171D01*
X253306185Y-63071409D01*
X202260804Y-84533980D02*
X202260804Y-83533980D01*
X202498900Y-83533980D01*
X202641757Y-83581600D01*
X202736995Y-83676838D01*
X202784614Y-83772076D01*
X202832233Y-83962552D01*
X202832233Y-84105409D01*
X202784614Y-84295885D01*
X202736995Y-84391123D01*
X202641757Y-84486361D01*
X202498900Y-84533980D01*
X202260804Y-84533980D01*
X203165566Y-83533980D02*
X203832233Y-83533980D01*
X203403661Y-84533980D01*
X212194667Y-96057980D02*
X211861334Y-95581790D01*
X211623238Y-96057980D02*
X211623238Y-95057980D01*
X212004191Y-95057980D01*
X212099429Y-95105600D01*
X212147048Y-95153219D01*
X212194667Y-95248457D01*
X212194667Y-95391314D01*
X212147048Y-95486552D01*
X212099429Y-95534171D01*
X212004191Y-95581790D01*
X211623238Y-95581790D01*
X213147048Y-96057980D02*
X212575619Y-96057980D01*
X212861334Y-96057980D02*
X212861334Y-95057980D01*
X212766095Y-95200838D01*
X212670857Y-95296076D01*
X212575619Y-95343695D01*
X204659733Y-93451980D02*
X204326400Y-92975790D01*
X204088304Y-93451980D02*
X204088304Y-92451980D01*
X204469257Y-92451980D01*
X204564495Y-92499600D01*
X204612114Y-92547219D01*
X204659733Y-92642457D01*
X204659733Y-92785314D01*
X204612114Y-92880552D01*
X204564495Y-92928171D01*
X204469257Y-92975790D01*
X204088304Y-92975790D01*
X205040685Y-92547219D02*
X205088304Y-92499600D01*
X205183542Y-92451980D01*
X205421638Y-92451980D01*
X205516876Y-92499600D01*
X205564495Y-92547219D01*
X205612114Y-92642457D01*
X205612114Y-92737695D01*
X205564495Y-92880552D01*
X204993066Y-93451980D01*
X205612114Y-93451980D01*
X259725333Y-93162380D02*
X259392000Y-92686190D01*
X259153904Y-93162380D02*
X259153904Y-92162380D01*
X259534857Y-92162380D01*
X259630095Y-92210000D01*
X259677714Y-92257619D01*
X259725333Y-92352857D01*
X259725333Y-92495714D01*
X259677714Y-92590952D01*
X259630095Y-92638571D01*
X259534857Y-92686190D01*
X259153904Y-92686190D01*
X260058666Y-92162380D02*
X260677714Y-92162380D01*
X260344380Y-92543333D01*
X260487238Y-92543333D01*
X260582476Y-92590952D01*
X260630095Y-92638571D01*
X260677714Y-92733809D01*
X260677714Y-92971904D01*
X260630095Y-93067142D01*
X260582476Y-93114761D01*
X260487238Y-93162380D01*
X260201523Y-93162380D01*
X260106285Y-93114761D01*
X260058666Y-93067142D01*
X252397399Y-96004813D02*
X252064066Y-95528623D01*
X251825970Y-96004813D02*
X251825970Y-95004813D01*
X252206923Y-95004813D01*
X252302161Y-95052433D01*
X252349780Y-95100052D01*
X252397399Y-95195290D01*
X252397399Y-95338147D01*
X252349780Y-95433385D01*
X252302161Y-95481004D01*
X252206923Y-95528623D01*
X251825970Y-95528623D01*
X253254542Y-95338147D02*
X253254542Y-96004813D01*
X253016446Y-94957194D02*
X252778351Y-95671480D01*
X253397399Y-95671480D01*
X219670333Y-98851980D02*
X219337000Y-98375790D01*
X219098904Y-98851980D02*
X219098904Y-97851980D01*
X219479857Y-97851980D01*
X219575095Y-97899600D01*
X219622714Y-97947219D01*
X219670333Y-98042457D01*
X219670333Y-98185314D01*
X219622714Y-98280552D01*
X219575095Y-98328171D01*
X219479857Y-98375790D01*
X219098904Y-98375790D01*
X220575095Y-97851980D02*
X220098904Y-97851980D01*
X220051285Y-98328171D01*
X220098904Y-98280552D01*
X220194142Y-98232933D01*
X220432238Y-98232933D01*
X220527476Y-98280552D01*
X220575095Y-98328171D01*
X220622714Y-98423409D01*
X220622714Y-98661504D01*
X220575095Y-98756742D01*
X220527476Y-98804361D01*
X220432238Y-98851980D01*
X220194142Y-98851980D01*
X220098904Y-98804361D01*
X220051285Y-98756742D01*
X245069466Y-98837648D02*
X244736133Y-98361458D01*
X244498037Y-98837648D02*
X244498037Y-97837648D01*
X244878990Y-97837648D01*
X244974228Y-97885268D01*
X245021847Y-97932887D01*
X245069466Y-98028125D01*
X245069466Y-98170982D01*
X245021847Y-98266220D01*
X244974228Y-98313839D01*
X244878990Y-98361458D01*
X244498037Y-98361458D01*
X245926609Y-97837648D02*
X245736133Y-97837648D01*
X245640894Y-97885268D01*
X245593275Y-97932887D01*
X245498037Y-98075744D01*
X245450418Y-98266220D01*
X245450418Y-98647172D01*
X245498037Y-98742410D01*
X245545656Y-98790029D01*
X245640894Y-98837648D01*
X245831371Y-98837648D01*
X245926609Y-98790029D01*
X245974228Y-98742410D01*
X246021847Y-98647172D01*
X246021847Y-98409077D01*
X245974228Y-98313839D01*
X245926609Y-98266220D01*
X245831371Y-98218601D01*
X245640894Y-98218601D01*
X245545656Y-98266220D01*
X245498037Y-98313839D01*
X245450418Y-98409077D01*
X231597295Y-74806980D02*
X231597295Y-75616504D01*
X231644914Y-75711742D01*
X231692533Y-75759361D01*
X231787771Y-75806980D01*
X231978247Y-75806980D01*
X232073485Y-75759361D01*
X232121104Y-75711742D01*
X232168723Y-75616504D01*
X232168723Y-74806980D01*
X233168723Y-75806980D02*
X232597295Y-75806980D01*
X232883009Y-75806980D02*
X232883009Y-74806980D01*
X232787771Y-74949838D01*
X232692533Y-75045076D01*
X232597295Y-75092695D01*
X231076666Y-108608761D02*
X231219523Y-108656380D01*
X231457619Y-108656380D01*
X231552857Y-108608761D01*
X231600476Y-108561142D01*
X231648095Y-108465904D01*
X231648095Y-108370666D01*
X231600476Y-108275428D01*
X231552857Y-108227809D01*
X231457619Y-108180190D01*
X231267142Y-108132571D01*
X231171904Y-108084952D01*
X231124285Y-108037333D01*
X231076666Y-107942095D01*
X231076666Y-107846857D01*
X231124285Y-107751619D01*
X231171904Y-107704000D01*
X231267142Y-107656380D01*
X231505238Y-107656380D01*
X231648095Y-107704000D01*
X231981428Y-107656380D02*
X232219523Y-108656380D01*
X232410000Y-107942095D01*
X232600476Y-108656380D01*
X232838571Y-107656380D01*
X233743333Y-108656380D02*
X233171904Y-108656380D01*
X233457619Y-108656380D02*
X233457619Y-107656380D01*
X233362380Y-107799238D01*
X233267142Y-107894476D01*
X233171904Y-107942095D01*
%LPC*%
G36*
G01*
X238362500Y-79104600D02*
X237887500Y-79104600D01*
G75*
G02*
X237650000Y-78867100I0J237500D01*
G01*
X237650000Y-78267100D01*
G75*
G02*
X237887500Y-78029600I237500J0D01*
G01*
X238362500Y-78029600D01*
G75*
G02*
X238600000Y-78267100I0J-237500D01*
G01*
X238600000Y-78867100D01*
G75*
G02*
X238362500Y-79104600I-237500J0D01*
G01*
G37*
G36*
G01*
X238362500Y-77379600D02*
X237887500Y-77379600D01*
G75*
G02*
X237650000Y-77142100I0J237500D01*
G01*
X237650000Y-76542100D01*
G75*
G02*
X237887500Y-76304600I237500J0D01*
G01*
X238362500Y-76304600D01*
G75*
G02*
X238600000Y-76542100I0J-237500D01*
G01*
X238600000Y-77142100D01*
G75*
G02*
X238362500Y-77379600I-237500J0D01*
G01*
G37*
G36*
G01*
X230981700Y-31940900D02*
X230981700Y-31465900D01*
G75*
G02*
X231219200Y-31228400I237500J0D01*
G01*
X231794200Y-31228400D01*
G75*
G02*
X232031700Y-31465900I0J-237500D01*
G01*
X232031700Y-31940900D01*
G75*
G02*
X231794200Y-32178400I-237500J0D01*
G01*
X231219200Y-32178400D01*
G75*
G02*
X230981700Y-31940900I0J237500D01*
G01*
G37*
G36*
G01*
X232731700Y-31940900D02*
X232731700Y-31465900D01*
G75*
G02*
X232969200Y-31228400I237500J0D01*
G01*
X233544200Y-31228400D01*
G75*
G02*
X233781700Y-31465900I0J-237500D01*
G01*
X233781700Y-31940900D01*
G75*
G02*
X233544200Y-32178400I-237500J0D01*
G01*
X232969200Y-32178400D01*
G75*
G02*
X232731700Y-31940900I0J237500D01*
G01*
G37*
G36*
G01*
X261369500Y-85368100D02*
X261369500Y-85843100D01*
G75*
G02*
X261132000Y-86080600I-237500J0D01*
G01*
X260557000Y-86080600D01*
G75*
G02*
X260319500Y-85843100I0J237500D01*
G01*
X260319500Y-85368100D01*
G75*
G02*
X260557000Y-85130600I237500J0D01*
G01*
X261132000Y-85130600D01*
G75*
G02*
X261369500Y-85368100I0J-237500D01*
G01*
G37*
G36*
G01*
X263119500Y-85368100D02*
X263119500Y-85843100D01*
G75*
G02*
X262882000Y-86080600I-237500J0D01*
G01*
X262307000Y-86080600D01*
G75*
G02*
X262069500Y-85843100I0J237500D01*
G01*
X262069500Y-85368100D01*
G75*
G02*
X262307000Y-85130600I237500J0D01*
G01*
X262882000Y-85130600D01*
G75*
G02*
X263119500Y-85368100I0J-237500D01*
G01*
G37*
G36*
G01*
X218854100Y-43781100D02*
X218854100Y-43306100D01*
G75*
G02*
X219091600Y-43068600I237500J0D01*
G01*
X219666600Y-43068600D01*
G75*
G02*
X219904100Y-43306100I0J-237500D01*
G01*
X219904100Y-43781100D01*
G75*
G02*
X219666600Y-44018600I-237500J0D01*
G01*
X219091600Y-44018600D01*
G75*
G02*
X218854100Y-43781100I0J237500D01*
G01*
G37*
G36*
G01*
X220604100Y-43781100D02*
X220604100Y-43306100D01*
G75*
G02*
X220841600Y-43068600I237500J0D01*
G01*
X221416600Y-43068600D01*
G75*
G02*
X221654100Y-43306100I0J-237500D01*
G01*
X221654100Y-43781100D01*
G75*
G02*
X221416600Y-44018600I-237500J0D01*
G01*
X220841600Y-44018600D01*
G75*
G02*
X220604100Y-43781100I0J237500D01*
G01*
G37*
G36*
G01*
X244114300Y-43306100D02*
X244114300Y-43781100D01*
G75*
G02*
X243876800Y-44018600I-237500J0D01*
G01*
X243301800Y-44018600D01*
G75*
G02*
X243064300Y-43781100I0J237500D01*
G01*
X243064300Y-43306100D01*
G75*
G02*
X243301800Y-43068600I237500J0D01*
G01*
X243876800Y-43068600D01*
G75*
G02*
X244114300Y-43306100I0J-237500D01*
G01*
G37*
G36*
G01*
X245864300Y-43306100D02*
X245864300Y-43781100D01*
G75*
G02*
X245626800Y-44018600I-237500J0D01*
G01*
X245051800Y-44018600D01*
G75*
G02*
X244814300Y-43781100I0J237500D01*
G01*
X244814300Y-43306100D01*
G75*
G02*
X245051800Y-43068600I237500J0D01*
G01*
X245626800Y-43068600D01*
G75*
G02*
X245864300Y-43306100I0J-237500D01*
G01*
G37*
G36*
G01*
X210226500Y-64809100D02*
X210226500Y-64334100D01*
G75*
G02*
X210464000Y-64096600I237500J0D01*
G01*
X211039000Y-64096600D01*
G75*
G02*
X211276500Y-64334100I0J-237500D01*
G01*
X211276500Y-64809100D01*
G75*
G02*
X211039000Y-65046600I-237500J0D01*
G01*
X210464000Y-65046600D01*
G75*
G02*
X210226500Y-64809100I0J237500D01*
G01*
G37*
G36*
G01*
X211976500Y-64809100D02*
X211976500Y-64334100D01*
G75*
G02*
X212214000Y-64096600I237500J0D01*
G01*
X212789000Y-64096600D01*
G75*
G02*
X213026500Y-64334100I0J-237500D01*
G01*
X213026500Y-64809100D01*
G75*
G02*
X212789000Y-65046600I-237500J0D01*
G01*
X212214000Y-65046600D01*
G75*
G02*
X211976500Y-64809100I0J237500D01*
G01*
G37*
G36*
G01*
X252741900Y-64334100D02*
X252741900Y-64809100D01*
G75*
G02*
X252504400Y-65046600I-237500J0D01*
G01*
X251929400Y-65046600D01*
G75*
G02*
X251691900Y-64809100I0J237500D01*
G01*
X251691900Y-64334100D01*
G75*
G02*
X251929400Y-64096600I237500J0D01*
G01*
X252504400Y-64096600D01*
G75*
G02*
X252741900Y-64334100I0J-237500D01*
G01*
G37*
G36*
G01*
X254491900Y-64334100D02*
X254491900Y-64809100D01*
G75*
G02*
X254254400Y-65046600I-237500J0D01*
G01*
X253679400Y-65046600D01*
G75*
G02*
X253441900Y-64809100I0J237500D01*
G01*
X253441900Y-64334100D01*
G75*
G02*
X253679400Y-64096600I237500J0D01*
G01*
X254254400Y-64096600D01*
G75*
G02*
X254491900Y-64334100I0J-237500D01*
G01*
G37*
G36*
G01*
X201598900Y-85843100D02*
X201598900Y-85368100D01*
G75*
G02*
X201836400Y-85130600I237500J0D01*
G01*
X202411400Y-85130600D01*
G75*
G02*
X202648900Y-85368100I0J-237500D01*
G01*
X202648900Y-85843100D01*
G75*
G02*
X202411400Y-86080600I-237500J0D01*
G01*
X201836400Y-86080600D01*
G75*
G02*
X201598900Y-85843100I0J237500D01*
G01*
G37*
G36*
G01*
X203348900Y-85843100D02*
X203348900Y-85368100D01*
G75*
G02*
X203586400Y-85130600I237500J0D01*
G01*
X204161400Y-85130600D01*
G75*
G02*
X204398900Y-85368100I0J-237500D01*
G01*
X204398900Y-85843100D01*
G75*
G02*
X204161400Y-86080600I-237500J0D01*
G01*
X203586400Y-86080600D01*
G75*
G02*
X203348900Y-85843100I0J237500D01*
G01*
G37*
D13*
X231084200Y-110697000D03*
D14*
X233624200Y-110697000D03*
X231084200Y-113237000D03*
X233624200Y-113237000D03*
X231084200Y-115777000D03*
X233624200Y-115777000D03*
G36*
G01*
X213761334Y-96884934D02*
X213761334Y-97359934D01*
G75*
G02*
X213523834Y-97597434I-237500J0D01*
G01*
X213023834Y-97597434D01*
G75*
G02*
X212786334Y-97359934I0J237500D01*
G01*
X212786334Y-96884934D01*
G75*
G02*
X213023834Y-96647434I237500J0D01*
G01*
X213523834Y-96647434D01*
G75*
G02*
X213761334Y-96884934I0J-237500D01*
G01*
G37*
G36*
G01*
X211936334Y-96884934D02*
X211936334Y-97359934D01*
G75*
G02*
X211698834Y-97597434I-237500J0D01*
G01*
X211198834Y-97597434D01*
G75*
G02*
X210961334Y-97359934I0J237500D01*
G01*
X210961334Y-96884934D01*
G75*
G02*
X211198834Y-96647434I237500J0D01*
G01*
X211698834Y-96647434D01*
G75*
G02*
X211936334Y-96884934I0J-237500D01*
G01*
G37*
G36*
G01*
X205251400Y-94667100D02*
X205251400Y-94192100D01*
G75*
G02*
X205488900Y-93954600I237500J0D01*
G01*
X205988900Y-93954600D01*
G75*
G02*
X206226400Y-94192100I0J-237500D01*
G01*
X206226400Y-94667100D01*
G75*
G02*
X205988900Y-94904600I-237500J0D01*
G01*
X205488900Y-94904600D01*
G75*
G02*
X205251400Y-94667100I0J237500D01*
G01*
G37*
G36*
G01*
X203426400Y-94667100D02*
X203426400Y-94192100D01*
G75*
G02*
X203663900Y-93954600I237500J0D01*
G01*
X204163900Y-93954600D01*
G75*
G02*
X204401400Y-94192100I0J-237500D01*
G01*
X204401400Y-94667100D01*
G75*
G02*
X204163900Y-94904600I-237500J0D01*
G01*
X203663900Y-94904600D01*
G75*
G02*
X203426400Y-94667100I0J237500D01*
G01*
G37*
G36*
G01*
X261292000Y-93912099D02*
X261292000Y-94387099D01*
G75*
G02*
X261054500Y-94624599I-237500J0D01*
G01*
X260554500Y-94624599D01*
G75*
G02*
X260317000Y-94387099I0J237500D01*
G01*
X260317000Y-93912099D01*
G75*
G02*
X260554500Y-93674599I237500J0D01*
G01*
X261054500Y-93674599D01*
G75*
G02*
X261292000Y-93912099I0J-237500D01*
G01*
G37*
G36*
G01*
X259467000Y-93912099D02*
X259467000Y-94387099D01*
G75*
G02*
X259229500Y-94624599I-237500J0D01*
G01*
X258729500Y-94624599D01*
G75*
G02*
X258492000Y-94387099I0J237500D01*
G01*
X258492000Y-93912099D01*
G75*
G02*
X258729500Y-93674599I237500J0D01*
G01*
X259229500Y-93674599D01*
G75*
G02*
X259467000Y-93912099I0J-237500D01*
G01*
G37*
G36*
G01*
X252989066Y-97219933D02*
X252989066Y-96744933D01*
G75*
G02*
X253226566Y-96507433I237500J0D01*
G01*
X253726566Y-96507433D01*
G75*
G02*
X253964066Y-96744933I0J-237500D01*
G01*
X253964066Y-97219933D01*
G75*
G02*
X253726566Y-97457433I-237500J0D01*
G01*
X253226566Y-97457433D01*
G75*
G02*
X252989066Y-97219933I0J237500D01*
G01*
G37*
G36*
G01*
X251164066Y-97219933D02*
X251164066Y-96744933D01*
G75*
G02*
X251401566Y-96507433I237500J0D01*
G01*
X251901566Y-96507433D01*
G75*
G02*
X252139066Y-96744933I0J-237500D01*
G01*
X252139066Y-97219933D01*
G75*
G02*
X251901566Y-97457433I-237500J0D01*
G01*
X251401566Y-97457433D01*
G75*
G02*
X251164066Y-97219933I0J237500D01*
G01*
G37*
G36*
G01*
X221296268Y-99577768D02*
X221296268Y-100052768D01*
G75*
G02*
X221058768Y-100290268I-237500J0D01*
G01*
X220558768Y-100290268D01*
G75*
G02*
X220321268Y-100052768I0J237500D01*
G01*
X220321268Y-99577768D01*
G75*
G02*
X220558768Y-99340268I237500J0D01*
G01*
X221058768Y-99340268D01*
G75*
G02*
X221296268Y-99577768I0J-237500D01*
G01*
G37*
G36*
G01*
X219471268Y-99577768D02*
X219471268Y-100052768D01*
G75*
G02*
X219233768Y-100290268I-237500J0D01*
G01*
X218733768Y-100290268D01*
G75*
G02*
X218496268Y-100052768I0J237500D01*
G01*
X218496268Y-99577768D01*
G75*
G02*
X218733768Y-99340268I237500J0D01*
G01*
X219233768Y-99340268D01*
G75*
G02*
X219471268Y-99577768I0J-237500D01*
G01*
G37*
G36*
G01*
X245661133Y-100052768D02*
X245661133Y-99577768D01*
G75*
G02*
X245898633Y-99340268I237500J0D01*
G01*
X246398633Y-99340268D01*
G75*
G02*
X246636133Y-99577768I0J-237500D01*
G01*
X246636133Y-100052768D01*
G75*
G02*
X246398633Y-100290268I-237500J0D01*
G01*
X245898633Y-100290268D01*
G75*
G02*
X245661133Y-100052768I0J237500D01*
G01*
G37*
G36*
G01*
X243836133Y-100052768D02*
X243836133Y-99577768D01*
G75*
G02*
X244073633Y-99340268I237500J0D01*
G01*
X244573633Y-99340268D01*
G75*
G02*
X244811133Y-99577768I0J-237500D01*
G01*
X244811133Y-100052768D01*
G75*
G02*
X244573633Y-100290268I-237500J0D01*
G01*
X244073633Y-100290268D01*
G75*
G02*
X243836133Y-100052768I0J237500D01*
G01*
G37*
G36*
G01*
X227959200Y-77189600D02*
X227959200Y-76889600D01*
G75*
G02*
X228109200Y-76739600I150000J0D01*
G01*
X229409200Y-76739600D01*
G75*
G02*
X229559200Y-76889600I0J-150000D01*
G01*
X229559200Y-77189600D01*
G75*
G02*
X229409200Y-77339600I-150000J0D01*
G01*
X228109200Y-77339600D01*
G75*
G02*
X227959200Y-77189600I0J150000D01*
G01*
G37*
G36*
G01*
X227959200Y-78459600D02*
X227959200Y-78159600D01*
G75*
G02*
X228109200Y-78009600I150000J0D01*
G01*
X229409200Y-78009600D01*
G75*
G02*
X229559200Y-78159600I0J-150000D01*
G01*
X229559200Y-78459600D01*
G75*
G02*
X229409200Y-78609600I-150000J0D01*
G01*
X228109200Y-78609600D01*
G75*
G02*
X227959200Y-78459600I0J150000D01*
G01*
G37*
G36*
G01*
X227959200Y-79729600D02*
X227959200Y-79429600D01*
G75*
G02*
X228109200Y-79279600I150000J0D01*
G01*
X229409200Y-79279600D01*
G75*
G02*
X229559200Y-79429600I0J-150000D01*
G01*
X229559200Y-79729600D01*
G75*
G02*
X229409200Y-79879600I-150000J0D01*
G01*
X228109200Y-79879600D01*
G75*
G02*
X227959200Y-79729600I0J150000D01*
G01*
G37*
G36*
G01*
X227959200Y-80999600D02*
X227959200Y-80699600D01*
G75*
G02*
X228109200Y-80549600I150000J0D01*
G01*
X229409200Y-80549600D01*
G75*
G02*
X229559200Y-80699600I0J-150000D01*
G01*
X229559200Y-80999600D01*
G75*
G02*
X229409200Y-81149600I-150000J0D01*
G01*
X228109200Y-81149600D01*
G75*
G02*
X227959200Y-80999600I0J150000D01*
G01*
G37*
G36*
G01*
X235159200Y-80999600D02*
X235159200Y-80699600D01*
G75*
G02*
X235309200Y-80549600I150000J0D01*
G01*
X236609200Y-80549600D01*
G75*
G02*
X236759200Y-80699600I0J-150000D01*
G01*
X236759200Y-80999600D01*
G75*
G02*
X236609200Y-81149600I-150000J0D01*
G01*
X235309200Y-81149600D01*
G75*
G02*
X235159200Y-80999600I0J150000D01*
G01*
G37*
G36*
G01*
X235159200Y-79729600D02*
X235159200Y-79429600D01*
G75*
G02*
X235309200Y-79279600I150000J0D01*
G01*
X236609200Y-79279600D01*
G75*
G02*
X236759200Y-79429600I0J-150000D01*
G01*
X236759200Y-79729600D01*
G75*
G02*
X236609200Y-79879600I-150000J0D01*
G01*
X235309200Y-79879600D01*
G75*
G02*
X235159200Y-79729600I0J150000D01*
G01*
G37*
G36*
G01*
X235159200Y-78459600D02*
X235159200Y-78159600D01*
G75*
G02*
X235309200Y-78009600I150000J0D01*
G01*
X236609200Y-78009600D01*
G75*
G02*
X236759200Y-78159600I0J-150000D01*
G01*
X236759200Y-78459600D01*
G75*
G02*
X236609200Y-78609600I-150000J0D01*
G01*
X235309200Y-78609600D01*
G75*
G02*
X235159200Y-78459600I0J150000D01*
G01*
G37*
G36*
G01*
X235159200Y-77189600D02*
X235159200Y-76889600D01*
G75*
G02*
X235309200Y-76739600I150000J0D01*
G01*
X236609200Y-76739600D01*
G75*
G02*
X236759200Y-76889600I0J-150000D01*
G01*
X236759200Y-77189600D01*
G75*
G02*
X236609200Y-77339600I-150000J0D01*
G01*
X235309200Y-77339600D01*
G75*
G02*
X235159200Y-77189600I0J150000D01*
G01*
G37*
D15*
X232359200Y-28359600D03*
D16*
X234609200Y-106733101D03*
X230109200Y-106733101D03*
X230109200Y-98773101D03*
X234609200Y-98773101D03*
D17*
X238583201Y-102753101D03*
D18*
X225883201Y-102753101D03*
M02*
