G04 #@! TF.GenerationSoftware,KiCad,Pcbnew,(5.1.10-1-10_14)*
G04 #@! TF.CreationDate,2021-11-27T23:13:30-07:00*
G04 #@! TF.ProjectId,ChristmasTreePCB,43687269-7374-46d6-9173-547265655043,rev?*
G04 #@! TF.SameCoordinates,Original*
G04 #@! TF.FileFunction,Paste,Top*
G04 #@! TF.FilePolarity,Positive*
%FSLAX46Y46*%
G04 Gerber Fmt 4.6, Leading zero omitted, Abs format (unit mm)*
G04 Created by KiCad (PCBNEW (5.1.10-1-10_14)) date 2021-11-27 23:13:30*
%MOMM*%
%LPD*%
G01*
G04 APERTURE LIST*
%ADD10R,1.300000X1.550000*%
G04 APERTURE END LIST*
G36*
G01*
X238362500Y-79104600D02*
X237887500Y-79104600D01*
G75*
G02*
X237650000Y-78867100I0J237500D01*
G01*
X237650000Y-78267100D01*
G75*
G02*
X237887500Y-78029600I237500J0D01*
G01*
X238362500Y-78029600D01*
G75*
G02*
X238600000Y-78267100I0J-237500D01*
G01*
X238600000Y-78867100D01*
G75*
G02*
X238362500Y-79104600I-237500J0D01*
G01*
G37*
G36*
G01*
X238362500Y-77379600D02*
X237887500Y-77379600D01*
G75*
G02*
X237650000Y-77142100I0J237500D01*
G01*
X237650000Y-76542100D01*
G75*
G02*
X237887500Y-76304600I237500J0D01*
G01*
X238362500Y-76304600D01*
G75*
G02*
X238600000Y-76542100I0J-237500D01*
G01*
X238600000Y-77142100D01*
G75*
G02*
X238362500Y-77379600I-237500J0D01*
G01*
G37*
G36*
G01*
X230981700Y-31940900D02*
X230981700Y-31465900D01*
G75*
G02*
X231219200Y-31228400I237500J0D01*
G01*
X231794200Y-31228400D01*
G75*
G02*
X232031700Y-31465900I0J-237500D01*
G01*
X232031700Y-31940900D01*
G75*
G02*
X231794200Y-32178400I-237500J0D01*
G01*
X231219200Y-32178400D01*
G75*
G02*
X230981700Y-31940900I0J237500D01*
G01*
G37*
G36*
G01*
X232731700Y-31940900D02*
X232731700Y-31465900D01*
G75*
G02*
X232969200Y-31228400I237500J0D01*
G01*
X233544200Y-31228400D01*
G75*
G02*
X233781700Y-31465900I0J-237500D01*
G01*
X233781700Y-31940900D01*
G75*
G02*
X233544200Y-32178400I-237500J0D01*
G01*
X232969200Y-32178400D01*
G75*
G02*
X232731700Y-31940900I0J237500D01*
G01*
G37*
G36*
G01*
X261369500Y-85368100D02*
X261369500Y-85843100D01*
G75*
G02*
X261132000Y-86080600I-237500J0D01*
G01*
X260557000Y-86080600D01*
G75*
G02*
X260319500Y-85843100I0J237500D01*
G01*
X260319500Y-85368100D01*
G75*
G02*
X260557000Y-85130600I237500J0D01*
G01*
X261132000Y-85130600D01*
G75*
G02*
X261369500Y-85368100I0J-237500D01*
G01*
G37*
G36*
G01*
X263119500Y-85368100D02*
X263119500Y-85843100D01*
G75*
G02*
X262882000Y-86080600I-237500J0D01*
G01*
X262307000Y-86080600D01*
G75*
G02*
X262069500Y-85843100I0J237500D01*
G01*
X262069500Y-85368100D01*
G75*
G02*
X262307000Y-85130600I237500J0D01*
G01*
X262882000Y-85130600D01*
G75*
G02*
X263119500Y-85368100I0J-237500D01*
G01*
G37*
G36*
G01*
X218854100Y-43781100D02*
X218854100Y-43306100D01*
G75*
G02*
X219091600Y-43068600I237500J0D01*
G01*
X219666600Y-43068600D01*
G75*
G02*
X219904100Y-43306100I0J-237500D01*
G01*
X219904100Y-43781100D01*
G75*
G02*
X219666600Y-44018600I-237500J0D01*
G01*
X219091600Y-44018600D01*
G75*
G02*
X218854100Y-43781100I0J237500D01*
G01*
G37*
G36*
G01*
X220604100Y-43781100D02*
X220604100Y-43306100D01*
G75*
G02*
X220841600Y-43068600I237500J0D01*
G01*
X221416600Y-43068600D01*
G75*
G02*
X221654100Y-43306100I0J-237500D01*
G01*
X221654100Y-43781100D01*
G75*
G02*
X221416600Y-44018600I-237500J0D01*
G01*
X220841600Y-44018600D01*
G75*
G02*
X220604100Y-43781100I0J237500D01*
G01*
G37*
G36*
G01*
X244114300Y-43306100D02*
X244114300Y-43781100D01*
G75*
G02*
X243876800Y-44018600I-237500J0D01*
G01*
X243301800Y-44018600D01*
G75*
G02*
X243064300Y-43781100I0J237500D01*
G01*
X243064300Y-43306100D01*
G75*
G02*
X243301800Y-43068600I237500J0D01*
G01*
X243876800Y-43068600D01*
G75*
G02*
X244114300Y-43306100I0J-237500D01*
G01*
G37*
G36*
G01*
X245864300Y-43306100D02*
X245864300Y-43781100D01*
G75*
G02*
X245626800Y-44018600I-237500J0D01*
G01*
X245051800Y-44018600D01*
G75*
G02*
X244814300Y-43781100I0J237500D01*
G01*
X244814300Y-43306100D01*
G75*
G02*
X245051800Y-43068600I237500J0D01*
G01*
X245626800Y-43068600D01*
G75*
G02*
X245864300Y-43306100I0J-237500D01*
G01*
G37*
G36*
G01*
X210226500Y-64809100D02*
X210226500Y-64334100D01*
G75*
G02*
X210464000Y-64096600I237500J0D01*
G01*
X211039000Y-64096600D01*
G75*
G02*
X211276500Y-64334100I0J-237500D01*
G01*
X211276500Y-64809100D01*
G75*
G02*
X211039000Y-65046600I-237500J0D01*
G01*
X210464000Y-65046600D01*
G75*
G02*
X210226500Y-64809100I0J237500D01*
G01*
G37*
G36*
G01*
X211976500Y-64809100D02*
X211976500Y-64334100D01*
G75*
G02*
X212214000Y-64096600I237500J0D01*
G01*
X212789000Y-64096600D01*
G75*
G02*
X213026500Y-64334100I0J-237500D01*
G01*
X213026500Y-64809100D01*
G75*
G02*
X212789000Y-65046600I-237500J0D01*
G01*
X212214000Y-65046600D01*
G75*
G02*
X211976500Y-64809100I0J237500D01*
G01*
G37*
G36*
G01*
X252741900Y-64334100D02*
X252741900Y-64809100D01*
G75*
G02*
X252504400Y-65046600I-237500J0D01*
G01*
X251929400Y-65046600D01*
G75*
G02*
X251691900Y-64809100I0J237500D01*
G01*
X251691900Y-64334100D01*
G75*
G02*
X251929400Y-64096600I237500J0D01*
G01*
X252504400Y-64096600D01*
G75*
G02*
X252741900Y-64334100I0J-237500D01*
G01*
G37*
G36*
G01*
X254491900Y-64334100D02*
X254491900Y-64809100D01*
G75*
G02*
X254254400Y-65046600I-237500J0D01*
G01*
X253679400Y-65046600D01*
G75*
G02*
X253441900Y-64809100I0J237500D01*
G01*
X253441900Y-64334100D01*
G75*
G02*
X253679400Y-64096600I237500J0D01*
G01*
X254254400Y-64096600D01*
G75*
G02*
X254491900Y-64334100I0J-237500D01*
G01*
G37*
G36*
G01*
X201598900Y-85843100D02*
X201598900Y-85368100D01*
G75*
G02*
X201836400Y-85130600I237500J0D01*
G01*
X202411400Y-85130600D01*
G75*
G02*
X202648900Y-85368100I0J-237500D01*
G01*
X202648900Y-85843100D01*
G75*
G02*
X202411400Y-86080600I-237500J0D01*
G01*
X201836400Y-86080600D01*
G75*
G02*
X201598900Y-85843100I0J237500D01*
G01*
G37*
G36*
G01*
X203348900Y-85843100D02*
X203348900Y-85368100D01*
G75*
G02*
X203586400Y-85130600I237500J0D01*
G01*
X204161400Y-85130600D01*
G75*
G02*
X204398900Y-85368100I0J-237500D01*
G01*
X204398900Y-85843100D01*
G75*
G02*
X204161400Y-86080600I-237500J0D01*
G01*
X203586400Y-86080600D01*
G75*
G02*
X203348900Y-85843100I0J237500D01*
G01*
G37*
G36*
G01*
X213761334Y-96884934D02*
X213761334Y-97359934D01*
G75*
G02*
X213523834Y-97597434I-237500J0D01*
G01*
X213023834Y-97597434D01*
G75*
G02*
X212786334Y-97359934I0J237500D01*
G01*
X212786334Y-96884934D01*
G75*
G02*
X213023834Y-96647434I237500J0D01*
G01*
X213523834Y-96647434D01*
G75*
G02*
X213761334Y-96884934I0J-237500D01*
G01*
G37*
G36*
G01*
X211936334Y-96884934D02*
X211936334Y-97359934D01*
G75*
G02*
X211698834Y-97597434I-237500J0D01*
G01*
X211198834Y-97597434D01*
G75*
G02*
X210961334Y-97359934I0J237500D01*
G01*
X210961334Y-96884934D01*
G75*
G02*
X211198834Y-96647434I237500J0D01*
G01*
X211698834Y-96647434D01*
G75*
G02*
X211936334Y-96884934I0J-237500D01*
G01*
G37*
G36*
G01*
X205251400Y-94667100D02*
X205251400Y-94192100D01*
G75*
G02*
X205488900Y-93954600I237500J0D01*
G01*
X205988900Y-93954600D01*
G75*
G02*
X206226400Y-94192100I0J-237500D01*
G01*
X206226400Y-94667100D01*
G75*
G02*
X205988900Y-94904600I-237500J0D01*
G01*
X205488900Y-94904600D01*
G75*
G02*
X205251400Y-94667100I0J237500D01*
G01*
G37*
G36*
G01*
X203426400Y-94667100D02*
X203426400Y-94192100D01*
G75*
G02*
X203663900Y-93954600I237500J0D01*
G01*
X204163900Y-93954600D01*
G75*
G02*
X204401400Y-94192100I0J-237500D01*
G01*
X204401400Y-94667100D01*
G75*
G02*
X204163900Y-94904600I-237500J0D01*
G01*
X203663900Y-94904600D01*
G75*
G02*
X203426400Y-94667100I0J237500D01*
G01*
G37*
G36*
G01*
X261292000Y-93912099D02*
X261292000Y-94387099D01*
G75*
G02*
X261054500Y-94624599I-237500J0D01*
G01*
X260554500Y-94624599D01*
G75*
G02*
X260317000Y-94387099I0J237500D01*
G01*
X260317000Y-93912099D01*
G75*
G02*
X260554500Y-93674599I237500J0D01*
G01*
X261054500Y-93674599D01*
G75*
G02*
X261292000Y-93912099I0J-237500D01*
G01*
G37*
G36*
G01*
X259467000Y-93912099D02*
X259467000Y-94387099D01*
G75*
G02*
X259229500Y-94624599I-237500J0D01*
G01*
X258729500Y-94624599D01*
G75*
G02*
X258492000Y-94387099I0J237500D01*
G01*
X258492000Y-93912099D01*
G75*
G02*
X258729500Y-93674599I237500J0D01*
G01*
X259229500Y-93674599D01*
G75*
G02*
X259467000Y-93912099I0J-237500D01*
G01*
G37*
G36*
G01*
X252989066Y-97219933D02*
X252989066Y-96744933D01*
G75*
G02*
X253226566Y-96507433I237500J0D01*
G01*
X253726566Y-96507433D01*
G75*
G02*
X253964066Y-96744933I0J-237500D01*
G01*
X253964066Y-97219933D01*
G75*
G02*
X253726566Y-97457433I-237500J0D01*
G01*
X253226566Y-97457433D01*
G75*
G02*
X252989066Y-97219933I0J237500D01*
G01*
G37*
G36*
G01*
X251164066Y-97219933D02*
X251164066Y-96744933D01*
G75*
G02*
X251401566Y-96507433I237500J0D01*
G01*
X251901566Y-96507433D01*
G75*
G02*
X252139066Y-96744933I0J-237500D01*
G01*
X252139066Y-97219933D01*
G75*
G02*
X251901566Y-97457433I-237500J0D01*
G01*
X251401566Y-97457433D01*
G75*
G02*
X251164066Y-97219933I0J237500D01*
G01*
G37*
G36*
G01*
X221296268Y-99577768D02*
X221296268Y-100052768D01*
G75*
G02*
X221058768Y-100290268I-237500J0D01*
G01*
X220558768Y-100290268D01*
G75*
G02*
X220321268Y-100052768I0J237500D01*
G01*
X220321268Y-99577768D01*
G75*
G02*
X220558768Y-99340268I237500J0D01*
G01*
X221058768Y-99340268D01*
G75*
G02*
X221296268Y-99577768I0J-237500D01*
G01*
G37*
G36*
G01*
X219471268Y-99577768D02*
X219471268Y-100052768D01*
G75*
G02*
X219233768Y-100290268I-237500J0D01*
G01*
X218733768Y-100290268D01*
G75*
G02*
X218496268Y-100052768I0J237500D01*
G01*
X218496268Y-99577768D01*
G75*
G02*
X218733768Y-99340268I237500J0D01*
G01*
X219233768Y-99340268D01*
G75*
G02*
X219471268Y-99577768I0J-237500D01*
G01*
G37*
G36*
G01*
X245661133Y-100052768D02*
X245661133Y-99577768D01*
G75*
G02*
X245898633Y-99340268I237500J0D01*
G01*
X246398633Y-99340268D01*
G75*
G02*
X246636133Y-99577768I0J-237500D01*
G01*
X246636133Y-100052768D01*
G75*
G02*
X246398633Y-100290268I-237500J0D01*
G01*
X245898633Y-100290268D01*
G75*
G02*
X245661133Y-100052768I0J237500D01*
G01*
G37*
G36*
G01*
X243836133Y-100052768D02*
X243836133Y-99577768D01*
G75*
G02*
X244073633Y-99340268I237500J0D01*
G01*
X244573633Y-99340268D01*
G75*
G02*
X244811133Y-99577768I0J-237500D01*
G01*
X244811133Y-100052768D01*
G75*
G02*
X244573633Y-100290268I-237500J0D01*
G01*
X244073633Y-100290268D01*
G75*
G02*
X243836133Y-100052768I0J237500D01*
G01*
G37*
G36*
G01*
X227959200Y-77189600D02*
X227959200Y-76889600D01*
G75*
G02*
X228109200Y-76739600I150000J0D01*
G01*
X229409200Y-76739600D01*
G75*
G02*
X229559200Y-76889600I0J-150000D01*
G01*
X229559200Y-77189600D01*
G75*
G02*
X229409200Y-77339600I-150000J0D01*
G01*
X228109200Y-77339600D01*
G75*
G02*
X227959200Y-77189600I0J150000D01*
G01*
G37*
G36*
G01*
X227959200Y-78459600D02*
X227959200Y-78159600D01*
G75*
G02*
X228109200Y-78009600I150000J0D01*
G01*
X229409200Y-78009600D01*
G75*
G02*
X229559200Y-78159600I0J-150000D01*
G01*
X229559200Y-78459600D01*
G75*
G02*
X229409200Y-78609600I-150000J0D01*
G01*
X228109200Y-78609600D01*
G75*
G02*
X227959200Y-78459600I0J150000D01*
G01*
G37*
G36*
G01*
X227959200Y-79729600D02*
X227959200Y-79429600D01*
G75*
G02*
X228109200Y-79279600I150000J0D01*
G01*
X229409200Y-79279600D01*
G75*
G02*
X229559200Y-79429600I0J-150000D01*
G01*
X229559200Y-79729600D01*
G75*
G02*
X229409200Y-79879600I-150000J0D01*
G01*
X228109200Y-79879600D01*
G75*
G02*
X227959200Y-79729600I0J150000D01*
G01*
G37*
G36*
G01*
X227959200Y-80999600D02*
X227959200Y-80699600D01*
G75*
G02*
X228109200Y-80549600I150000J0D01*
G01*
X229409200Y-80549600D01*
G75*
G02*
X229559200Y-80699600I0J-150000D01*
G01*
X229559200Y-80999600D01*
G75*
G02*
X229409200Y-81149600I-150000J0D01*
G01*
X228109200Y-81149600D01*
G75*
G02*
X227959200Y-80999600I0J150000D01*
G01*
G37*
G36*
G01*
X235159200Y-80999600D02*
X235159200Y-80699600D01*
G75*
G02*
X235309200Y-80549600I150000J0D01*
G01*
X236609200Y-80549600D01*
G75*
G02*
X236759200Y-80699600I0J-150000D01*
G01*
X236759200Y-80999600D01*
G75*
G02*
X236609200Y-81149600I-150000J0D01*
G01*
X235309200Y-81149600D01*
G75*
G02*
X235159200Y-80999600I0J150000D01*
G01*
G37*
G36*
G01*
X235159200Y-79729600D02*
X235159200Y-79429600D01*
G75*
G02*
X235309200Y-79279600I150000J0D01*
G01*
X236609200Y-79279600D01*
G75*
G02*
X236759200Y-79429600I0J-150000D01*
G01*
X236759200Y-79729600D01*
G75*
G02*
X236609200Y-79879600I-150000J0D01*
G01*
X235309200Y-79879600D01*
G75*
G02*
X235159200Y-79729600I0J150000D01*
G01*
G37*
G36*
G01*
X235159200Y-78459600D02*
X235159200Y-78159600D01*
G75*
G02*
X235309200Y-78009600I150000J0D01*
G01*
X236609200Y-78009600D01*
G75*
G02*
X236759200Y-78159600I0J-150000D01*
G01*
X236759200Y-78459600D01*
G75*
G02*
X236609200Y-78609600I-150000J0D01*
G01*
X235309200Y-78609600D01*
G75*
G02*
X235159200Y-78459600I0J150000D01*
G01*
G37*
G36*
G01*
X235159200Y-77189600D02*
X235159200Y-76889600D01*
G75*
G02*
X235309200Y-76739600I150000J0D01*
G01*
X236609200Y-76739600D01*
G75*
G02*
X236759200Y-76889600I0J-150000D01*
G01*
X236759200Y-77189600D01*
G75*
G02*
X236609200Y-77339600I-150000J0D01*
G01*
X235309200Y-77339600D01*
G75*
G02*
X235159200Y-77189600I0J150000D01*
G01*
G37*
D10*
X234609200Y-106733101D03*
X230109200Y-106733101D03*
X230109200Y-98773101D03*
X234609200Y-98773101D03*
M02*
